/* XPM */
static char *result[] = {
/* columns rows colors chars-per-pixel */
"75 75 47 1 ",
"  c black",
". c #010101",
"X c gray2",
"o c #060606",
"O c #070707",
"+ c #090909",
"@ c gray4",
"# c gray5",
"$ c #0E0E0E",
"% c gray6",
"& c #1B1B1B",
"* c gray11",
"= c gray22",
"- c gray30",
"; c #4E4E4E",
": c gray31",
"> c #515151",
", c gray32",
"< c gray33",
"1 c #555555",
"2 c gray34",
"3 c gray36",
"4 c gray46",
"5 c gray54",
"6 c gray64",
"7 c #AAAAAA",
"8 c gray67",
"9 c gray68",
"0 c #AEAEAE",
"q c gray69",
"w c #B1B1B1",
"e c #B2B2B2",
"r c #B6B6B6",
"t c gray78",
"y c gray89",
"u c #E4E4E4",
"i c gray94",
"p c #F1F1F1",
"a c gray95",
"s c gray96",
"d c #F6F6F6",
"f c #F8F8F8",
"g c #F9F9F9",
"h c gray98",
"j c #FEFEFE",
"k c white",
"l c None",
/* pixels */
"kkkkkkkkkkkkkkkkkkkkkkkkkkkkkkkkkkkkkkkkkkkkkkkkkkkkkkkkkkkkkkkkkkkkkkkklll",
"kkkkkkkkkkkkkkkkkkkkkkkkkkkkkkkkkkkkkkkkkkkkkkkkkkkkkkkkkkkkkkkkkkkkkkkklll",
"kkkkkkkkkkkkkkkkkkkkkkkkkkkkkkkkkkkkkkkkkkkkkkkkkkkkkkkkkkkkkkkkkkkkkkkklll",
"kkkkkkkkkkkkkkkkkkkkkkkkkkkkkkkkkkkkkkkkkkkkkkkkkkkkkkkkkkkkkkkkkkkkkkkklll",
"kkkkkkkkkkkkkkkkkkkkkkkkkkkkkkkkkkkkkkkkkkkkkkkkkkkkkkkkkkkkkkkkjhsaippplll",
"kkkkkkkkkkkkkkkkkkkkkkkkkkkkkkkkkkkkkkkkkkkkkkkkkkkkkkkkkkkkkkkkhutw7899lll",
"kkkkkkkkkkkkkkkkkkkkkkkkkkkkkkkkkkkkkkkkkkkkkkkkkkkkkkkkkkkkkkkkst53-:,,lll",
"kkkkkkkkkkkkkkkkkkkkkkkkkkkkkkkkkkkkkkkkkkkkkkkkkkkkkkkkkkkkkkkkaw3*o+$$lll",
"kkkkkkkkkkkkkkkkkkkkkkkkkkkkkkkkkkkkkkkkkkkkkkkkkkkkkkkkkkkkkkkki7-o    lll",
"kkkkkkkkkkkkkkkkkkkkkkkkkkkkkkkkkkkkkkkkkkkkkkkkkkkkkkkkkkkkkkkkp8;+    lll",
"kkkkkkkkkkjhsaippppppppppppppppppppppppppppppppppppppppppiashjkkp9,$    lll",
"kkkkkkkkkkhutw78999999999999999999999999999999999999999987wtuhkkp9,$    lll",
"kkkkkkkkkkst53-;,,,,,,,,,,,,,,,,,,,,,,,,,,,,,,,,,,,,,,,,;-35tskkp9,$    lll",
"kkkkkkkkkkaw3*o+$$$$$$$$$$$$$$$$$$$$$$$$$$$$$$$$$$$$$$$$+o*3wakkp9,$    lll",
"kkkkkkkkkki7-o                                            o-7ikkp9,$    lll",
"kkkkkkkkkkp8;+                                            +;8pkkp9,$    lll",
"kkkkkkkkkkp9,$  .X@#%$$$$$$$$$$$$$$$$$$$$$$$$$$$$$$%#@X.  $,9pkkp9,$    lll",
"kkkkkkkkkkp9,$  X&=;1<,,,,,,,,,,,,,,,,,,,,,,,,,,,,<1;=&X  $,9pkkp9,$    lll",
"kkkkkkkkkkp9,$  @=46ew9999999999999999999999999999we64=@  $,9pkkp9,$    lll",
"kkkkkkkkkkp9,$  #;6ygdppppppppppppppppppppppppppppdgy6;#  $,9pkkp9,$    lll",
"kkkkkkkkkkp9,$  %1egkkkkkkkkkkkkkkkkkkkkkkkkkkkkkkkkjr2%  $,9pkkp9,$    lll",
"kkkkkkkkkkp9,$  $<wdkkkkkkkkkkkkkkkkkkkkkkkkkkkkkkkkjr2%  $,9pkkp9,$    lll",
"kkkkkkkkkkp9,$  $,9pkkkkkkkkkkkkkkkkkkkkkkkkkkjhsadfy6;#  $,9pkkp9,$    lll",
"kkkkkkkkkkp9,$  $,9pkkkkkkkkkkkkkkkkkkkkkkkkkkhutw0q64=@  $,9pkkp9,$    lll",
"kkkkkkkkkkp9,$  $,9pkkkkkkkkkkkkkkkkkkkkkkkkkkst53:>;=&X  $,9pkkp9,$    lll",
"kkkkkkkkkkp9,$  $,9pkkkkkkkkkkkkkkkkkkkkkkkkkkaw3*O+#@X.  $,9pkkp9,$    lll",
"kkkkkkkkkkp9,$  $,9pkkkkkkkkkkkkkkkkkkkkkkkkkki7-o        $,9pkkp9,$    lll",
"kkkkkkkkkkp9,$  $,9pkkkkkkkkkkkkkkkkkkkkkkkkkkp8;+        $,9pkkp9,$    lll",
"kkkkkkkkkkp9,$  $,9pkkkkkkkkkkkkkkkkkkkkkkkkkkp9,$        $,9pkkp9,$    lll",
"kkkkkkkkkkp9,$  $,9pkkkkkkkkkkkkkkkkkkkkkkkkkkp9,$        $,9pkkp9,$    lll",
"kkkkkkkkkkp9,$  $,9pkkkkkkkkkkkkkkkkkkkkkkkkkkp9,$        $,9pkkp9,$    lll",
"kkkkkkkkkkp9,$  $,9pkkkkkkkkkkkkkkkkkkkkkkkkkkp9,$        $,9pkkp9,$    lll",
"kkkkkkkkkkp9,$  $,9pkkkkkkkkkkkkkkkkkkkkkkkkkkp9,$        $,9pkkp9,$    lll",
"kkkkkkkkkkp9,$  $,9pkkkkkkkkkkkkkkkkkkkkkkkkkkp9,$        $,9pkkp9,$    lll",
"kkkkkkkkkkp9,$  $,9pkkkkkkkkkkkkkkkkkkkkkkkkkkp9,$        $,9pkkp9,$    lll",
"kkkkkkkkkkp9,$  $,9pkkkkkkkkkkkkkkkkkkkkkkkkkkp9,$        $,9pkkp9,$    lll",
"kkkkkkkkkkp9,$  $,9pkkkkkkkkkkkkkkkkkkkkkkkkkkp9,$        $,9pkkp9,$    lll",
"kkkkkkkkkkp9,$  $,9pkkkkkkkkkkkkkkkkkkkkkkkkkkp9,$        $,9pkkp9,$    lll",
"kkkkkkkkkkp9,$  $,9pkkkkkkkkkkkkkkkkkkkkkkkkkkp9,$        $,9pkkp9,$    lll",
"kkkkkkkkkkp9,$  $,9pkkkkkkkkkkkkkkkkkkkkkkkkkkp9,$        $,9pkkp9,$    lll",
"kkkkkkkkkkp9,$  $,9pkkkkkkkkkkkkkkkkkkkkkkkkkkp9,$        $,9pkkp9,$    lll",
"kkkkkkkkkkp9,$  $,9pkkkkkkkkkkkkkkkkkkkkkkkkkkp9,$        $,9pkkp9,$    lll",
"kkkkkkkkkkp9,$  $,9pkkkkkkkkkkkkkkkkkkkkkkkkkkp9,$        $,9pkkp9,$    lll",
"kkkkkkkkkkp9,$  $,9pkkkkkkkkkkkkkkkkkkkkkkkkkkp9,$        $,9pkkp9,$    lll",
"kkkkkkkkkkp9,$  $,9pkkkkkkkkkkkkkkkkkkkkkkkkkkdw<$        $,9pkkp9,$    lll",
"kkkkkkkkkkp9,$  $,9pkkkkkkkkkkkkkkkkkkkkkkkkkkge1%        $,9pkkp9,$    lll",
"kkkkkkkkkkp9,$  $,9pkkjhsaipppppppppppppppppdgy6;#        $,9pkkp9,$    lll",
"kkkkkkkkkkp9,$  $,9pkkhutw789999999999999999we64=@        $,9pkkp9,$    lll",
"kkkkkkkkkkp9,$  $,9pkkst53-;,,,,,,,,,,,,,,,,<1;=&X        $,9pkkp9,$    lll",
"kkkkkkkkkkp9,$  $,9pkkaw3*o+$$$$$$$$$$$$$$$$$%#@X.        $,9pkkp9,$    lll",
"kkkkkkkkkkp9,$  $<wdkkd0:O                                $,9pkkp9,$    lll",
"kkkkkkkkkkp9,$  %1egkkfq>+                                $,9pkkp9,$    lll",
"kkkkkkkkkkp9,$  #;6yjjy6;#                                $,9pkkp9,$    lll",
"kkkkkkkkkkp9,$  @=46rr64=@                                $,9pkkp9,$    lll",
"kkkkkkkkkkp9,$  X&=;22;=&X                                $,9pkkp9,$    lll",
"kkkkkkkkkkp9,$  .X@#%%#@X.                                $,9pkkp9,$    lll",
"kkkkkkkkkkp8;+                                            +;8pkkp9,$    lll",
"kkkkkkkkkki7-o                                            o-7ikkp9,$    lll",
"kkkkkkkkkkaw3*o+$$$$$$$$$$$$$$$$$$$$$$$$$$$$$$$$$$$$$$$$+o*3wakkp9,$    lll",
"kkkkkkkkkkst53-;,,,,,,,,,,,,,,,,,,,,,,,,,,,,,,,,,,,,,,,,;-35tskkp9,$    lll",
"kkkkkkkkkkhutw78999999999999999999999999999999999999999987wtuhkkp9,$    lll",
"kkkkkkkkkkjhsaippppppppppppppppppppppppppppppppppppppppppiashjkkp9,$    lll",
"kkkkkkkkkkkkkkkkkkkkkkkkkkkkkkkkkkkkkkkkkkkkkkkkkkkkkkkkkkkkkkkkdw<$    lll",
"kkkkkkkkkkkkkkkkkkkkkkkkkkkkkkkkkkkkkkkkkkkkkkkkkkkkkkkkkkkkkkkkge1%    lll",
"kkkkjhsaipppppppppppppppppppppppppppppppppppppppppppppppppppppdgy6;#    lll",
"kkkkhutw789999999999999999999999999999999999999999999999999999we64=@    lll",
"kkkkst53-;,,,,,,,,,,,,,,,,,,,,,,,,,,,,,,,,,,,,,,,,,,,,,,,,,,,,<1;=&X    lll",
"kkkkaw3*o+$$$$$$$$$$$$$$$$$$$$$$$$$$$$$$$$$$$$$$$$$$$$$$$$$$$$$%#@X.    lll",
"kkkki7-o                                                                lll",
"kkkkp8:+                                                                lll",
"kkkkp9,$                                                                lll",
"kkkkp9,$                                                               llll",
"lllllllllllllllllllllllllllllllllllllllllllllllllllllllllllllllllllllllllll",
"lllllllllllllllllllllllllllllllllllllllllllllllllllllllllllllllllllllllllll",
"lllllllllllllllllllllllllllllllllllllllllllllllllllllllllllllllllllllllllll"
};
