/* XPM */
static char *result[] = {
/* columns rows colors chars-per-pixel */
"75 75 57 1 ",
"  c black",
". c #010101",
"X c gray2",
"o c #060606",
"O c #070707",
"+ c #090909",
"@ c gray4",
"# c gray5",
"$ c #0E0E0E",
"% c gray6",
"& c #1B1B1B",
"* c gray11",
"= c gray22",
"- c #494949",
"; c #4B4B4B",
": c gray30",
"> c #4E4E4E",
", c gray31",
"< c #505050",
"1 c #515151",
"2 c gray32",
"3 c #535353",
"4 c gray33",
"5 c #555555",
"6 c gray34",
"7 c gray36",
"8 c gray44",
"9 c gray46",
"0 c gray54",
"q c gray56",
"w c gray64",
"e c gray66",
"r c #AAAAAA",
"t c gray67",
"y c #ACACAC",
"u c gray68",
"i c #AEAEAE",
"p c #AFAFAF",
"a c gray69",
"s c #B1B1B1",
"d c #B2B2B2",
"f c #B4B4B4",
"g c #B6B6B6",
"h c gray78",
"j c gray89",
"k c #E4E4E4",
"l c gray94",
"z c #F1F1F1",
"x c gray95",
"c c gray96",
"v c #F6F6F6",
"b c #F8F8F8",
"n c #F9F9F9",
"m c gray98",
"M c #FEFEFE",
"N c white",
"B c None",
/* pixels */
"                                                                        BBB",
"                                                                        BBB",
"                                                                        BBB",
"                                                                        BBB",
"                                                                        BBB",
"                                                                        BBB",
"                                                                        BBB",
"                                                                        BBB",
"                                                                        BBB",
"                                                                        BBB",
"                                                                        BBB",
"                                                                        BBB",
"                                                                        BBB",
"                                                                        BBB",
"                                                                        BBB",
"                                                                        BBB",
"    .X@#%%#@X.  .X@#%$$$$$$%#@X.  .X@#%$$$$$$%#@X.  .X@#%$$$$$$%#@X.    BBB",
"    X&=>66>=&X  X&=>54222245>=&X  X&=>54222245>=&X  X&=>54222245>=&X    BBB",
"    @=9wggw9=@  @=9wdsuuuusdw9=@  @=9wdsuuuusdw9=@  @=9wdsuuuusdw9=@    BBB",
"    #>wjMMjw>#  #>wjnvzzzzvnjw>#  #>wjnvzzzzvnjw>#  #>wjnvzzzzvnjw>#    BBB",
"    %6gMNNMg6%  %6gMNNNNNNNNMg6%  %6gMNNNNNNNNMg6%  %6gMNNNNNNNNMg6%    BBB",
"    %6gMNNMg6%  %6gMNNNNNNNNMg6%  %6gMNNNNNNNNMg6%  %6gMNNNNNNNNMg6%    BBB",
"    #>wjMMjw>#  #>wjnvzzzzvnjw>#  #>wjnvzzzzvnjw>#  #>wjnvzzzzvnjw>#    BBB",
"    @=9wggw9=@  @=9wdsuuuusdw9=@  @=9wdsuuuusdw9=@  @=9wdsuuuusdw9=@    BBB",
"    X&=>66>=&X  X&=>54222245>=&X  X&=>54222245>=&X  X&=>54222245>=&X    BBB",
"    .X@#%%#@X.  .X@#%$$$$$$%#@X.  .X@#%$$$$$$%#@X.  .X@#%$$$$$$%#@X.    BBB",
"                                                                        BBB",
"                                                                        BBB",
"$$$%#@X.  .X@#%$$$$$$%#@X.              .X@#%$$$$$$$$$$$$%#@X.          BBB",
"2245>=&X  X&=>54222245>=&X              X&=>54222222222245>=&X          BBB",
"uuadw9=@  @=9wdsuuuusdw9=@              @=9wdsuuuuuuuuuusdw9=@          BBB",
"zzvnjw>#  #>wjnvzzzzvnjw>#              #>wjnvzzzzzzzzzzvnjw>#          BBB",
"NNNNMf3@  +1abNNNNNNNNnd5%              +1abNNNNNNNNNNNNNNba1+          BBB",
"NNNNMf1O  O,ivNNNNNNNNvs4$              O,ivNNNNNNNNNNNNNNvi,O          BBB",
"zzvbke6&..*7sxNNNNNNNNzu2$  .X@#%$$$$$+o*7sxNNMmcxllxcmMNNxs7*O+#@X.    BBB",
"uupaeq86;;70hcNNNNNNNNzu2$  X&=>542222>:70hcNNmkhseeshkmNNch07,1>=&X    BBB",
"22<,68qeiyshkmNNNNNNNNzu2$  @=9wdsuuuutrshkmNNch07--70hcNNmkhsiaw9=@    BBB",
"$$+O&6ekbcxcmMNNNNNNNNzu2$  #>wjnvzzzzzlxcmMNNxs7*..*7sxNNMmcxvbjw>#    BBB",
"    O1fMNNNNNNNNNNNNNNvs4$  %6gMNNNNNNNNNNNNNNvi,O  O,ivNNNNNNNNMg6%    BBB",
"    @3fMNNNNNNNNNNNNNNnd5%  %6gMNNNNNNNNNNNNNNba1+  +1abNNNNNNNNMg6%    BBB",
"    #>wjnvzzzzzzzzzzvnjw>#  #>wjnvzzzzzzzzzzvnjw>#  #>wjnvzzzzvnjw>#    BBB",
"    @=9wdsuuuuuuuuuusdw9=@  @=9wdsuuuuuuuuuusdw9=@  @=9wdsuuuusdw9=@    BBB",
"    X&=>54222222222245>=&X  X&=>54222222222245>=&X  X&=>54222245>=&X    BBB",
"    .X@#%$$$$$$$$$$$$%#@X.  .X@#%$$$$$$$$$$$$%#@X.  .X@#%$$$$$$%#@X.    BBB",
"                                                                        BBB",
"                                                                        BBB",
"$$$$$$$$$$$$$$$%#@X.  .X@#%$$$$$$$$$$$$%#@X.  .X@#%$$$$$$$$$$$$$$$$$$$$$BBB",
"2222222222222245>=&X  X&=>54222222222245>=&X  X&=>5422222222222222222222BBB",
"uuuuuuuuuuuuuusdw9=@  @=9wdsuuuuuuuuuusdw9=@  @=9wdsuuuuuuuuuuuuuuuuuuuuBBB",
"zzzzzzzzzzzzzzvnjw>#  #>wjnvzzzzzzzzzzvnjw>#  #>wjnvzzzzzzzzzzzzzzzzzzzzBBB",
"NNNNNNNNNNNNNNNNMg6%  %6gMNNNNNNNNNNNNNNMg6%  %6gMNNNNNNNNNNNNNNNNNNNNNNBBB",
"NNNNNNNNNNNNNNNNMg6%  %6gMNNNNNNNNNNNNNNMg6%  %6gMNNNNNNNNNNNNNNNNNNNNNNBBB",
"zzzzzzzzzzzzzzvnjw>#  #>wjnvzzzzzzzzzzvnjw>#  #>wjnvzzzzzzzzzzzzzzzzzzzzBBB",
"uuuuuuuuuuuuuusdw9=@  @=9wdsuuuuuuuuuusdw9=@  @=9wdsuuuuuuuuuuuuuuuuuuuuBBB",
"2222222222222245>=&X  X&=>54222222222245>=&X  X&=>5422222222222222222222BBB",
"$$$$$$$$$$$$$$$%#@X.  .X@#%$$$$$$$$$$$$%#@X.  .X@#%$$$$$$$$$$$$$$$$$$$$$BBB",
"                    ..                                                  BBB",
"                    ..                                                  BBB",
"    .X@#%$$$$$$%#@X.  .X@#%%#@X.        .X@#%$$$$$$$$$$$$$$$$$$%#@X.    BBB",
"    X&=>54222245>=&X  X&=>66>=&X        X&=>54222222222222222245>=&X    BBB",
"    @=9wdsuuuusdw9=@  @=9wggw9=@        @=9wdsuuuuuuuuuuuuuuuusdw9=@    BBB",
"    #>wjnvzzzzvnjw>#  #>wjMMjw>#        #>wjnvzzzzzzzzzzzzzzzzvnjw>#    BBB",
"    +1abNNNNNNNNba1+  +1abNNba1+        +1abNNNNNNNNNNNNNNNNNNNNba1+    BBB",
"    O,ivNNNNNNNNvi,O  O,ivNNvi,O        O,ivNNNNNNNNNNNNNNNNNNNNvi,O    BBB",
"$$+o*7sxNNNNNNNNxs7*..*7sxNNxs7*o+$$$$+o*7sxNNNNNNNNNNNNNNNNNNNNxs7*o+$$BBB",
"22,:70hcNNNNNNNNch07--70hcNNch07:>2222>:70hcNNNNNNNNNNNNNNNNNNNNch07:,22BBB",
"uutrshkmNNNNNNNNmkhseeshkmNNmkhsrtuuuutrshkmNNNNNNNNNNNNNNNNNNNNmkhsrtuuBBB",
"zzzlxcmMNNNNNNNNMmcxllxcmMNNMmcxlzzzzzzlxcmMNNNNNNNNNNNNNNNNNNNNMmcxlzzzBBB",
"NNNNNNNNNNNNNNNNNNNNNNNNNNNNNNNNNNNNNNNNNNNNNNNNNNNNNNNNNNNNNNNNNNNNNNNNBBB",
"NNNNNNNNNNNNNNNNNNNNNNNNNNNNNNNNNNNNNNNNNNNNNNNNNNNNNNNNNNNNNNNNNNNNNNNNBBB",
"NNNNNNNNNNNNNNNNNNNNNNNNNNNNNNNNNNNNNNNNNNNNNNNNNNNNNNNNNNNNNNNNNNNNNNNNBBB",
"NNNNNNNNNNNNNNNNNNNNNNNNNNNNNNNNNNNNNNNNNNNNNNNNNNNNNNNNNNNNNNNNNNNNNNNBBBB",
"BBBBBBBBBBBBBBBBBBBBBBBBBBBBBBBBBBBBBBBBBBBBBBBBBBBBBBBBBBBBBBBBBBBBBBBBBBB",
"BBBBBBBBBBBBBBBBBBBBBBBBBBBBBBBBBBBBBBBBBBBBBBBBBBBBBBBBBBBBBBBBBBBBBBBBBBB",
"BBBBBBBBBBBBBBBBBBBBBBBBBBBBBBBBBBBBBBBBBBBBBBBBBBBBBBBBBBBBBBBBBBBBBBBBBBB"
};
