/* XPM */
static char *result[] = {
/* columns rows colors chars-per-pixel */
"75 75 49 1 ",
"  c black",
". c #010101",
"X c gray2",
"o c #060606",
"O c #070707",
"+ c #090909",
"@ c gray4",
"# c gray5",
"$ c #0E0E0E",
"% c gray6",
"& c #1B1B1B",
"* c gray11",
"= c gray22",
"- c #494949",
"; c gray30",
": c #4E4E4E",
"> c gray31",
", c #515151",
"< c gray32",
"1 c gray33",
"2 c #555555",
"3 c gray34",
"4 c gray36",
"5 c gray46",
"6 c gray54",
"7 c gray64",
"8 c gray66",
"9 c #AAAAAA",
"0 c gray67",
"q c gray68",
"w c #AEAEAE",
"e c gray69",
"r c #B1B1B1",
"t c #B2B2B2",
"y c #B6B6B6",
"u c gray78",
"i c gray89",
"p c #E4E4E4",
"a c gray94",
"s c #F1F1F1",
"d c gray95",
"f c gray96",
"g c #F6F6F6",
"h c #F8F8F8",
"j c #F9F9F9",
"k c gray98",
"l c #FEFEFE",
"z c white",
"x c None",
/* pixels */
"zzzzzzzzzzzzzzzzzzzzzzzzzzzzzzzzzzzzzzzzzzzzzzzzzzzzzzzzzzzzzzzzzzzzzzzzxxx",
"zzzzzzzzzzzzzzzzzzzzzzzzzzzzzzzzzzzzzzzzzzzzzzzzzzzzzzzzzzzzzzzzzzzzzzzzxxx",
"zzzzzzzzzzzzzzzzzzzzzzzzzzzzzzzzzzzzzzzzzzzzzzzzzzzzzzzzzzzzzzzzzzzzzzzzxxx",
"zzzzzzzzzzzzzzzzzzzzzzzzzzzzzzzzzzzzzzzzzzzzzzzzzzzzzzzzzzzzzzzzzzzzzzzzxxx",
"zzzzzzzzzzzzzzzzzzzzzzzzzzzzlkfdassssssadfklzzzzzzzzzzzzzzzzzzzzzzzzzzzzxxx",
"zzzzzzzzzzzzzzzzzzzzzzzzzzzzkpur90qqqq09rupkzzzzzzzzzzzzzzzzzzzzzzzzzzzzxxx",
"zzzzzzzzzzzzzzzzzzzzzzzzzzzzfu64;:<<<<:;46ufzzzzzzzzzzzzzzzzzzzzzzzzzzzzxxx",
"zzzzzzzzzzzzzzzzzzzzzzzzzzzzdr4*o+$$$$+o*4rdzzzzzzzzzzzzzzzzzzzzzzzzzzzzxxx",
"zzzzzzzzzzzzzzzzzzzzzzzzzzzzgw>O        O>wgzzzzzzzzzzzzzzzzzzzzzzzzzzzzxxx",
"zzzzzzzzzzzzzzzzzzzzzzzzzzzzhe,+        +,ehzzzzzzzzzzzzzzzzzzzzzzzzzzzzxxx",
"ssssssssssssssssssssssssssgji7:#        #:7ijgsssssssssssadfklzzzzzzzzzzxxx",
"qqqqqqqqqqqqqqqqqqqqqqqqqqrt75=@        @=57trqqqqqqqqqq09rupkzzzzzzzzzzxxx",
"<<<<<<<<<<<<<<<<<<<<<<<<<<12:=&X        X&=:21<<<<<<<<<<:;46ufzzzzzzzzzzxxx",
"$$$$$$$$$$$$$$$$$$$$$$$$$$$%#@X.        .X@#%$$$$$$$$$$$+o*4rdzzzzzzzzzzxxx",
"                                      ..                  o;9azzzzzzzzzzxxx",
"                                      ..                  +:0szzzzzzzzzzxxx",
"    .X@#%%#@X.  .X@#%$$$$$$$$$$$$%#@X.  .X@#%$$$$$$%#@X.  $<qszzzzzzzzzzxxx",
"    X&=:33:=&X  X&=:21<<<<<<<<<<12:=&X  X&=:21<<<<12:=&X  $<qszzzzzzzzzzxxx",
"    @=57yy75=@  @=57trqqqqqqqqqqrt75=@  @=57trqqqqrt75=@  $<qszzzzzzzzzzxxx",
"    #:7illi7:#  #:7ijgssssssssssgji7:#  #:7ijgssssgji7:#  $<qszzzzzzzzzzxxx",
"    %3ylzzly3%  %3ylzzzzzzzzzzzzzzly3%  %3ylzzzzzzzzly3%  $<qszzzzzzzzzzxxx",
"    %3ylzzly3%  %3ylzzzzzzzzzzzzzzly3%  %3ylzzzzzzzzly3%  $<qszzzzzzzzzzxxx",
"    #:7illi7:#  #:7ijgssssssssssgji7:#  #:7ijgssssgji7:#  $<qszzzzzzzzzzxxx",
"    @=57yy75=@  @=57trqqqqqqqqqqrt75=@  @=57trqqqqrt75=@  $<qszzzzzzzzzzxxx",
"    X&=:33:=&X  X&=:21<<<<<<<<<<12:=&X  X&=:21<<<<12:=&X  $<qszzzzzzzzzzxxx",
"    .X@#%%#@X.  .X@#%$$$$$$$$$$$$%#@X.  .X@#%$$$$$$%#@X.  $<qszzzzzzzzzzxxx",
"                                                          $1rgzzzzzzzzzzxxx",
"                                                          %2tjzzzzzzzzzzxxx",
"$$$$$$$$$$$$$$$%#@X.  .X@#%$$$$$$$$$$$$%#@X.  .X@#%%#@X.  #:7ihgdfklzzzzxxx",
"<<<<<<<<<<<<<<12:=&X  X&=:21<<<<<<<<<<12:=&X  X&=:33:=&X  @=57ewrupkzzzzxxx",
"qqqqqqqqqqqqqqrt75=@  @=57trqqqqqqqqqqrt75=@  @=57yy75=@  X&=:,>46ufzzzzxxx",
"ssssssssssssssgji7:#  #:7ijgssssssssssgji7:#  #:7illi7:#  .X@#+O*4rdzzzzxxx",
"zzzzzzzzzzzzzzzzly3%  %2tjzzzzzzzzzzzzzzhe,+  +,ehzzjt2%        o;9azzzzxxx",
"zzzzzzzzzzzzzzzzly3%  $1rgzzzzzzzzzzzzzzgw>O  O>wgzzgr1$        +:0szzzzxxx",
"zzzzlkfdasssssgji7:#  $<qszzlkfdaadfklzzdr4*..*4rdzzsq<$        $<qszzzzxxx",
"zzzzkpur90qqqqrt75=@  $<qszzkpur88rupkzzfu64--46ufzzsq<$        $<qszzzzxxx",
"zzzzfu64;:<<<<12:=&X  $<qszzfu64--46ufzzkpur88rupkzzsq<$        $<qszzzzxxx",
"zzzzdr4*o+$$$$$%#@X.  $<qszzdr4*..*4rdzzlkfdaadfklzzsq<$        $<qszzzzxxx",
"zzzzgw>O              $1rgzzgw>O  O>wgzzzzzzzzzzzzzzgr1$        +:0szzzzxxx",
"zzzzhe,+              %2tjzzhe,+  +,ehzzzzzzzzzzzzzzjt2%        o;9azzzzxxx",
"ssgji7:#              #:7illi7:#  #:7ijgssssssssssgji7:#  .X@#+O*4rdzzzzxxx",
"qqet75=@              @=57yy75=@  @=57trqqqqqqqqqqrt75=@  X&=:,>46ufzzzzxxx",
"<<12:=&X              X&=:33:=&X  X&=:21<<<<<<<<<<12:=&X  @=57ewrupkzzzzxxx",
"$$$%#@X.              .X@#%%#@X.  .X@#%$$$$$$$$$$$$%#@X.  #:7ihgdfklzzzzxxx",
"                    ..                                    %2tjzzzzzzzzzzxxx",
"                    ..                                    $1rgzzzzzzzzzzxxx",
"$$$$$$$$$$$$$$$%#@X.  .X@#%$$$$$$%#@X.  .X@#%$$$$$$%#@X.  $<qszzzzzzzzzzxxx",
"<<<<<<<<<<<<<<12:=&X  X&=:21<<<<12:=&X  X&=:21<<<<12:=&X  $<qszzzzzzzzzzxxx",
"qqqqqqqqqqqqqqrt75=@  @=57trqqqqrt75=@  @=57trqqqqrt75=@  $<qszzzzzzzzzzxxx",
"ssssssssssssssgji7:#  #:7ijgssssgji7:#  #:7ijgssssgji7:#  $<qszzzzzzzzzzxxx",
"zzzzzzzzzzzzzzzzly3%  %3ylzzzzzzzzly3%  %3ylzzzzzzzzly3%  $<qszzzzzzzzzzxxx",
"zzzzzzzzzzzzzzzzly3%  %3ylzzzzzzzzly3%  %3ylzzzzzzzzly3%  $<qszzzzzzzzzzxxx",
"ssssssssssssssgji7:#  #:7ijgssssgji7:#  #:7ijgssssgji7:#  $<qszzzzzzzzzzxxx",
"qqqqqqqqqqqqqqrt75=@  @=57trqqqqrt75=@  @=57trqqqqrt75=@  $<qszzzzzzzzzzxxx",
"<<<<<<<<<<<<<<12:=&X  X&=:21<<<<12:=&X  X&=:21<<<<12:=&X  $<qszzzzzzzzzzxxx",
"$$$$$$$$$$$$$$$%#@X.  .X@#%$$$$$$%#@X.  .X@#%$$$$$$%#@X.  $<qszzzzzzzzzzxxx",
"                                      ..                  $<qszzzzzzzzzzxxx",
"                                      ..                  $<qszzzzzzzzzzxxx",
"$$$$$$$$$%#@X.  .X@#%$$$$$$$$$$$$%#@X.  .X@#%$$$$$$%#@X.  $<qszzzzzzzzzzxxx",
"<<<<<<<<12:=&X  X&=:21<<<<<<<<<<12:=&X  X&=:21<<<<12:=&X  $<qszzzzzzzzzzxxx",
"qqqqqqqqrt75=@  @=57trqqqqqqqqqqrt75=@  @=57trqqqqrt75=@  $<qszzzzzzzzzzxxx",
"ssssssssgji7:#  #:7ijgssssssssssgji7:#  #:7ijgssssgji7:#  $<qszzzzzzzzzzxxx",
"zzzzzzzzzzly3%  %3ylzzzzzzzzzzzzzzly3%  %3ylzzzzzzzzly3%  $1rgzzzzzzzzzzxxx",
"zzzzzzzzzzly3%  %3ylzzzzzzzzzzzzzzly3%  %3ylzzzzzzzzly3%  %2tjzzzzzzzzzzxxx",
"ssssssssgji7:#  #:7ijgssssssssssgji7:#  #:7ijgssssgji7:#  #:7ihgdfklzzzzxxx",
"qqqqqqqqrt75=@  @=57trqqqqqqqqqqrt75=@  @=57trqqqqrt75=@  @=57ewrupkzzzzxxx",
"<<<<<<<<12:=&X  X&=:21<<<<<<<<<<12:=&X  X&=:21<<<<12:=&X  X&=:,>46ufzzzzxxx",
"$$$$$$$$$%#@X.  .X@#%$$$$$$$$$$$$%#@X.  .X@#%$$$$$$%#@X.  .X@#+O*4rdzzzzxxx",
"                                                                o;9azzzzxxx",
"                                                                +>0szzzzxxx",
"                                                                $<qszzzzxxx",
"                                                                $<qszzzxxxx",
"xxxxxxxxxxxxxxxxxxxxxxxxxxxxxxxxxxxxxxxxxxxxxxxxxxxxxxxxxxxxxxxxxxxxxxxxxxx",
"xxxxxxxxxxxxxxxxxxxxxxxxxxxxxxxxxxxxxxxxxxxxxxxxxxxxxxxxxxxxxxxxxxxxxxxxxxx",
"xxxxxxxxxxxxxxxxxxxxxxxxxxxxxxxxxxxxxxxxxxxxxxxxxxxxxxxxxxxxxxxxxxxxxxxxxxx"
};
