/* XPM */
static char *result[] = {
/* columns rows colors chars-per-pixel */
"75 75 55 1 ",
"  c black",
". c #010101",
"X c gray2",
"o c #060606",
"O c #070707",
"+ c #090909",
"@ c gray4",
"# c gray5",
"$ c #0E0E0E",
"% c gray6",
"& c #1B1B1B",
"* c gray11",
"= c gray22",
"- c #494949",
"; c #4B4B4B",
": c gray30",
"> c #4E4E4E",
", c gray31",
"< c #515151",
"1 c gray32",
"2 c #535353",
"3 c gray33",
"4 c #555555",
"5 c gray34",
"6 c gray36",
"7 c gray44",
"8 c gray46",
"9 c gray54",
"0 c gray56",
"q c gray64",
"w c gray66",
"e c #AAAAAA",
"r c gray67",
"t c #ACACAC",
"y c gray68",
"u c #AEAEAE",
"i c gray69",
"p c #B1B1B1",
"a c #B2B2B2",
"s c #B4B4B4",
"d c #B6B6B6",
"f c gray78",
"g c gray89",
"h c #E4E4E4",
"j c gray94",
"k c #F1F1F1",
"l c gray95",
"z c gray96",
"x c #F6F6F6",
"c c #F8F8F8",
"v c #F9F9F9",
"b c gray98",
"n c #FEFEFE",
"m c white",
"M c None",
/* pixels */
"                $1ykmmmmmmmmmmmmmmky1$  $1ykmmmmmmmmky1$        $1ykmmmmMMM",
"                $1ykmmmmmmmmmmmmmmky1$  $1ykmmmmmmmmky1$        $1ykmmmmMMM",
"                $3ixmmmmmmmmmmmmmmxi3$  $3ixmmmmmmmmxi3$        +,rkmmmmMMM",
"                %4avmmmmmmmmmmmmmmva4%  %4avmmmmmmmmva4%        o:ejmmmmMMM",
"                #>qgvxkkkkkkkkkkxvgq>#  #>qgvxkkkkxvgq>#  .X@#+O*6plmmmmMMM",
"                @=8qapyyyyyyyyyypaq8=@  @=8qapyyyypaq8=@  X&=><,69fzmmmmMMM",
"                X&=>43111111111134>=&X  X&=>43111134>=&X  @=8qiupfhbmmmmMMM",
"                .X@#%$$$$$$$$$$$$%#@X.  .X@#%$$$$$$%#@X.  #>qgcxlzbnmmmmMMM",
"                                                          %4avmmmmmmmmmmMMM",
"                                                          $3pxmmmmmmmmmmMMM",
"                      .X@#%$$$$$$$$$$$$%#@X.  .X@#%%#@X.  $1ykmmmmmmmmmmMMM",
"                      X&=>43111111111134>=&X  X&=>55>=&X  $1ykmmmmmmmmmmMMM",
"                      @=8qapyyyyyyyyyypaq8=@  @=8qddq8=@  $1ykmmmmmmmmmmMMM",
"                      #>qgvxkkkkkkkkkkxvgq>#  #>qgnngq>#  $1ykmmmmmmmmmmMMM",
"                      %5dnmmmmmmmmmmmmmmnd5%  %5dnmmnd5%  $1ykmmmmmmmmmmMMM",
"                      %5dnmmmmmmmmmmmmmmnd5%  %5dnmmnd5%  $1ykmmmmmmmmmmMMM",
"                      #>qgvxkkkkkkkkkkxvgq>#  #>qgnngq>#  $1ykmmmmmmmmmmMMM",
"                      @=8qapyyyyyyyyyypaq8=@  @=8qddq8=@  $1ykmmmmmmmmmmMMM",
"                      X&=>43111111111134>=&X  X&=>55>=&X  $1ykmmmmmmmmmmMMM",
"                      .X@#%$$$$$$$$$$$$%#@X.  .X@#%%#@X.  $1ykmmmmmmmmmmMMM",
"                                                          $1ykmmmmmmmmmmMMM",
"                                                          $1ykmmmmmmmmmmMMM",
"                .X@#%$$$$$$%#@X.  .X@#%$$$$$$$$$$$$%#@X.  $1ykmmmmmmmmmmMMM",
"                X&=>43111134>=&X  X&=>43111111111134>=&X  $1ykmmmmmmmmmmMMM",
"                @=8qapyyyypaq8=@  @=8qapyyyyyyyyyypaq8=@  $1ykmmmmmmmmmmMMM",
"                #>qgvxkkkkxvgq>#  #>qgvxkkkkkkkkkkxvgq>#  $1ykmmmmmmmmmmMMM",
"                %5dnmmmmmmmmci<+  @2snmmmmmmmmmmmmmmva4%  $3pxmmmmmmmmmmMMM",
"                %5dnmmmmmmmmxu,O  O<snmmmmmmmmmmmmmmxp3$  %4avmmmmmmmmmmMMM",
"                #>qgcxlzbnmmlp6*..&5whczlzbnmmmmmmmmky1$  #>qgcxlzbnmmmmMMM",
"                @=8qiupfhbmmzf96;;570wutpfhbmmmmmmmmky1$  @=8qiupfhbmmmmMMM",
"                X&=><,69fzmmbhfptuw075;;69fzmmmmmmmmky1$  X&=><,69fzmmmmMMM",
"                .X@#+O*6plmmnbzlzchw5&..*6plmmmmmmmmky1$  .X@#+O*6plmmmmMMM",
"                      O,uxmmmmmmmmns<O  O,uxmmmmmmmmxp3$        o:ejmmmmMMM",
"                      +<icmmmmmmmmns2@  +<icmmmmmmmmva4%        +>rkmmmmMMM",
"                      #>qgvxkkkkxvgq>#  #>qgvxkkkkxvgq>#        $1ykmmmmMMM",
"                      @=8qapyyyypaq8=@  @=8qapyyyypaq8=@        $1ykmmmmMMM",
"                      X&=>43111134>=&X  X&=>43111134>=&X        $1ykmmmmMMM",
"                      .X@#%$$$$$$%#@X.  .X@#%$$$$$$%#@X.        $1ykmmmmMMM",
"                                                        ..      +>rkmmmmMMM",
"                                                        ..      o:ejmmmmMMM",
"                      .X@#%%#@X.  .X@#%$$$$$$$$$$$$%#@X.  .X@#+O*6plmmmmMMM",
"                      X&=>55>=&X  X&=>43111111111134>=&X  X&=><,69fzmmmmMMM",
"                      @=8qddq8=@  @=8qapyyyyyyyyyypaq8=@  @=8qiupfhbmmmmMMM",
"                      #>qgnngq>#  #>qgvxkkkkkkkkkkxvgq>#  #>qgcxlzbnmmmmMMM",
"                      %5dnmmnd5%  %5dnmmmmmmmmmmmmmmnd5%  %4avmmmmmmmmmmMMM",
"                      %5dnmmnd5%  %5dnmmmmmmmmmmmmmmnd5%  $3pxmmmmmmmmmmMMM",
"                      #>qgnngq>#  #>qgvxkkkkkkkkkkxvgq>#  $1ykmmmmmmmmmmMMM",
"                      @=8qddq8=@  @=8qapyyyyyyyyyypaq8=@  $1ykmmmmmmmmmmMMM",
"                      X&=>55>=&X  X&=>43111111111134>=&X  $1ykmmmmmmmmmmMMM",
"                      .X@#%%#@X.  .X@#%$$$$$$$$$$$$%#@X.  $1ykmmmmmmmmmmMMM",
"                                                          $3pxmmmmmmmmmmMMM",
"                                                          %4avmmmmmmmmmmMMM",
"                .X@#%$$$$$$$$$$$$%#@X.  .X@#%$$$$$$%#@X.  #>qgcxlzbnmmmmMMM",
"                X&=>43111111111134>=&X  X&=>43111134>=&X  @=8qiupfhbmmmmMMM",
"                @=8qapyyyyyyyyyypaq8=@  @=8qapyyyypaq8=@  X&=><,69fzmmmmMMM",
"                #>qgvxkkkkkkkkkkxvgq>#  #>qgvxkkkkxvgq>#  .X@#+O*6plmmmmMMM",
"                %5dnmmmmmmmmmmmmmmnd5%  %5dnmmmmmmmmnd5%        .-wjmmmmMMM",
"                %5dnmmmmmmmmmmmmmmnd5%  %5dnmmmmmmmmnd5%        .-wjmmmmMMM",
"                #>qgvxkkkkkkkkkkxvgq>#  #>qgvxkkkkxvgq>#  .X@#+O*6plmmmmMMM",
"                @=8qapyyyyyyyyyypaq8=@  @=8qapyyyypaq8=@  X&=><,69fzmmmmMMM",
"                X&=>43111111111134>=&X  X&=>43111134>=&X  @=8qiupfhbmmmmMMM",
"                .X@#%$$$$$$$$$$$$%#@X.  .X@#%$$$$$$%#@X.  #>qgcxlzbnmmmmMMM",
"                                                          %4avmmmmmmmmmmMMM",
"                                                          $3pxmmmmmmmmmmMMM",
"                      .X@#%%#@X.  .X@#%$$$$$$$$$$$$%#@X.  $1ykmmmmmmmmmmMMM",
"                      X&=>55>=&X  X&=>43111111111134>=&X  $1ykmmmmmmmmmmMMM",
"                      @=8qddq8=@  @=8qapyyyyyyyyyypaq8=@  $1ykmmmmmmmmmmMMM",
"                      #>qgnngq>#  #>qgvxkkkkkkkkkkxvgq>#  $1ykmmmmmmmmmmMMM",
"                      %4avmmva4%  %4avmmmmmmmmmmmmmmva4%  $1ykmmmmmmmmmmMMM",
"                      $3ixmmxi3$  $3ixmmmmmmmmmmmmmmxi3$  $1ykmmmmmmmmmmMMM",
"                      $1ykmmky1$  $1ykmmmmmmmmmmmmmmky1$  $1ykmmmmmmmmmmMMM",
"                      $1ykmmky1$  $1ykmmmmmmmmmmmmmmky1$  $1ykmmmmmmmmmMMMM",
"MMMMMMMMMMMMMMMMMMMMMMMMMMMMMMMMMMMMMMMMMMMMMMMMMMMMMMMMMMMMMMMMMMMMMMMMMMM",
"MMMMMMMMMMMMMMMMMMMMMMMMMMMMMMMMMMMMMMMMMMMMMMMMMMMMMMMMMMMMMMMMMMMMMMMMMMM",
"MMMMMMMMMMMMMMMMMMMMMMMMMMMMMMMMMMMMMMMMMMMMMMMMMMMMMMMMMMMMMMMMMMMMMMMMMMM"
};
