/* XPM */
static char *result[] = {
/* columns rows colors chars-per-pixel */
"75 75 55 1 ",
"  c black",
". c #010101",
"X c gray2",
"o c #060606",
"O c #070707",
"+ c #090909",
"@ c gray4",
"# c gray5",
"$ c #0E0E0E",
"% c gray6",
"& c #1B1B1B",
"* c gray11",
"= c gray22",
"- c #494949",
"; c #4B4B4B",
": c gray30",
"> c #4E4E4E",
", c gray31",
"< c #515151",
"1 c gray32",
"2 c #535353",
"3 c gray33",
"4 c #555555",
"5 c gray34",
"6 c gray36",
"7 c gray44",
"8 c gray46",
"9 c gray54",
"0 c gray56",
"q c gray64",
"w c gray66",
"e c #AAAAAA",
"r c gray67",
"t c #ACACAC",
"y c gray68",
"u c #AEAEAE",
"i c gray69",
"p c #B1B1B1",
"a c #B2B2B2",
"s c #B4B4B4",
"d c #B6B6B6",
"f c gray78",
"g c gray89",
"h c #E4E4E4",
"j c gray94",
"k c #F1F1F1",
"l c gray95",
"z c gray96",
"x c #F6F6F6",
"c c #F8F8F8",
"v c #F9F9F9",
"b c gray98",
"n c #FEFEFE",
"m c white",
"M c None",
/* pixels */
"mmmmmmmmmmky1$  $1ykmmmmmmmmky1$  $1ykmmmmmmmmmmmmmmky1$                MMM",
"mmmmmmmmmmky1$  $1ykmmmmmmmmky1$  $1ykmmmmmmmmmmmmmmky1$                MMM",
"mmmmmmmmmmxi3$  $3ixmmmmmmmmxi3$  $3ixmmmmmmmmmmmmmmxi3$                MMM",
"mmmmmmmmmmva4%  %4avmmmmmmmmva4%  %4avmmmmmmmmmmmmmmva4%                MMM",
"mmmmnbzlxcgq>#  #>qgvxkkkkxvgq>#  #>qgvxkkkkkkkkkkxvgq>#                MMM",
"mmmmbhfpuiq8=@  @=8qapyyyypaq8=@  @=8qapyyyyyyyyyypaq8=@                MMM",
"mmmmzf96,<>=&X  X&=>43111134>=&X  X&=>43111111111134>=&X                MMM",
"mmmmlp6*O+#@X.  .X@#%$$$$$$%#@X.  .X@#%$$$$$$$$$$$$%#@X.                MMM",
"mmmmje:o      ..                                                        MMM",
"mmmmkr>+      ..                                                        MMM",
"mmmmky1$        .X@#%%#@X.  .X@#%$$$$$$$$$$$$%#@X.                      MMM",
"mmmmky1$        X&=>55>=&X  X&=>43111111111134>=&X                      MMM",
"mmmmky1$        @=8qddq8=@  @=8qapyyyyyyyyyypaq8=@                      MMM",
"mmmmky1$        #>qgnngq>#  #>qgvxkkkkkkkkkkxvgq>#                      MMM",
"mmmmkr>+        %5dnmmnd5%  %5dnmmmmmmmmmmmmmmnd5%                      MMM",
"mmmmje:o        %5dnmmnd5%  %5dnmmmmmmmmmmmmmmnd5%                      MMM",
"mmmmlp6*O+#@X.  #>qgnngq>#  #>qgvxkkkkkkkkkkxvgq>#                      MMM",
"mmmmzf96,<>=&X  @=8qddq8=@  @=8qapyyyyyyyyyypaq8=@                      MMM",
"mmmmbhfpuiq8=@  X&=>55>=&X  X&=>43111111111134>=&X                      MMM",
"mmmmnbzlxcgq>#  .X@#%%#@X.  .X@#%$$$$$$$$$$$$%#@X.                      MMM",
"mmmmmmmmmmnd5%                                                          MMM",
"mmmmmmmmmmnd5%                                                          MMM",
"mmmmnbzlxcgq>#  .X@#%$$$$$$%#@X.  .X@#%$$$$$$%#@X.                      MMM",
"mmmmbhfpuiq8=@  X&=>43111134>=&X  X&=>43111134>=&X                      MMM",
"mmmmzf96,<>=&X  @=8qapyyyypaq8=@  @=8qapyyyypaq8=@                      MMM",
"mmmmlp6*O+#@X.  #>qgvxkkkkxvgq>#  #>qgvxkkkkxvgq>#                      MMM",
"mmmmje:o        %4avmmmmmmmmci<+  +<icmmmmmmmmns2@                      MMM",
"mmmmkr>+        $3pxmmmmmmmmxu,O  O,uxmmmmmmmmns<O                      MMM",
"mmmmky1$        $1ykmmmmmmmmlp6*..*6plmmnbzlzchw5&O@#@X.                MMM",
"mmmmky1$        $1ykmmmmmmmmzf96--69fzmmbhfptuw075<2>=&X                MMM",
"mmmmky1$        $1ykmmmmmmmmbhfpwwpfhbmmzf96;;570wssq8=@                MMM",
"mmmmky1$        $1ykmmmmmmmmnbzljjlzbnmmlp6*..&5whnngq>#                MMM",
"mmmmkr>+        $3pxmmmmmmmmmmmmmmmmmmmmxu,O  O<snmmnd5%                MMM",
"mmmmje:o        %4avmmmmmmmmmmmmmmmmmmmmci<+  @2snmmnd5%                MMM",
"mmmmlp6*O+#@X.  #>qgvxkkkkkkkkkkkkkkkkxvgq>#  #>qgnngq>#                MMM",
"mmmmzf96,<>=&X  @=8qapyyyyyyyyyyyyyyyypaq8=@  @=8qddq8=@                MMM",
"mmmmbhfpuiq8=@  X&=>43111111111111111134>=&X  X&=>55>=&X                MMM",
"mmmmnbzlxcgq>#  .X@#%$$$$$$$$$$$$$$$$$$%#@X.  .X@#%%#@X.                MMM",
"mmmmmmmmmmva4%                                                          MMM",
"mmmmmmmmmmxp3$                                                          MMM",
"mmmmmmmmmmky1$  .X@#%$$$$$$$$$$$$%#@X.  .X@#%%#@X.                      MMM",
"mmmmmmmmmmky1$  X&=>43111111111134>=&X  X&=>55>=&X                      MMM",
"mmmmmmmmmmky1$  @=8qapyyyyyyyyyypaq8=@  @=8qddq8=@                      MMM",
"mmmmmmmmmmky1$  #>qgvxkkkkkkkkkkxvgq>#  #>qgnngq>#                      MMM",
"mmmmmmmmmmky1$  %5dnmmmmmmmmmmmmmmnd5%  %5dnmmnd5%                      MMM",
"mmmmmmmmmmky1$  %5dnmmmmmmmmmmmmmmnd5%  %5dnmmnd5%                      MMM",
"mmmmmmmmmmky1$  #>qgvxkkkkkkkkkkxvgq>#  #>qgnngq>#                      MMM",
"mmmmmmmmmmky1$  @=8qapyyyyyyyyyypaq8=@  @=8qddq8=@                      MMM",
"mmmmmmmmmmky1$  X&=>43111111111134>=&X  X&=>55>=&X                      MMM",
"mmmmmmmmmmky1$  .X@#%$$$$$$$$$$$$%#@X.  .X@#%%#@X.                      MMM",
"mmmmmmmmmmky1$                                                          MMM",
"mmmmmmmmmmky1$                                                          MMM",
"mmmmmmmmmmky1$  .X@#%$$$$$$%#@X.  .X@#%$$$$$$%#@X.                      MMM",
"mmmmmmmmmmky1$  X&=>43111134>=&X  X&=>43111134>=&X                      MMM",
"mmmmmmmmmmky1$  @=8qapyyyypaq8=@  @=8qapyyyypaq8=@                      MMM",
"mmmmmmmmmmky1$  #>qgvxkkkkxvgq>#  #>qgvxkkkkxvgq>#                      MMM",
"mmmmmmmmmmxp3$  %5dnmmmmmmmmnd5%  %5dnmmmmmmmmnd5%                      MMM",
"mmmmmmmmmmva4%  %5dnmmmmmmmmnd5%  %5dnmmmmmmmmnd5%                      MMM",
"mmmmnbzlxcgq>#  #>qgvxkkkkxvgq>#  #>qgvxkkkkxvgq>#                      MMM",
"mmmmbhfpuiq8=@  @=8qapyyyypaq8=@  @=8qapyyyypaq8=@                      MMM",
"mmmmzf96,<>=&X  X&=>43111134>=&X  X&=>43111134>=&X                      MMM",
"mmmmlp6*O+#@X.  .X@#%$$$$$$%#@X.  .X@#%$$$$$$%#@X.                      MMM",
"mmmmje:o      ..                                                        MMM",
"mmmmkr>+      ..                                                        MMM",
"mmmmky1$        .X@#%$$$$$$$$$$$$$$$$$$%#@X.  .X@#%%#@X.                MMM",
"mmmmky1$        X&=>43111111111111111134>=&X  X&=>55>=&X                MMM",
"mmmmky1$        @=8qapyyyyyyyyyyyyyyyypaq8=@  @=8qddq8=@                MMM",
"mmmmky1$        #>qgvxkkkkkkkkkkkkkkkkxvgq>#  #>qgnngq>#                MMM",
"mmmmky1$        %4avmmmmmmmmmmmmmmmmmmmmva4%  %4avmmva4%                MMM",
"mmmmky1$        $3ixmmmmmmmmmmmmmmmmmmmmxi3$  $3ixmmxi3$                MMM",
"mmmmky1$        $1ykmmmmmmmmmmmmmmmmmmmmky1$  $1ykmmky1$                MMM",
"mmmmky1$        $1ykmmmmmmmmmmmmmmmmmmmmky1$  $1ykmmky1$               MMMM",
"MMMMMMMMMMMMMMMMMMMMMMMMMMMMMMMMMMMMMMMMMMMMMMMMMMMMMMMMMMMMMMMMMMMMMMMMMMM",
"MMMMMMMMMMMMMMMMMMMMMMMMMMMMMMMMMMMMMMMMMMMMMMMMMMMMMMMMMMMMMMMMMMMMMMMMMMM",
"MMMMMMMMMMMMMMMMMMMMMMMMMMMMMMMMMMMMMMMMMMMMMMMMMMMMMMMMMMMMMMMMMMMMMMMMMMM"
};
