/* XPM */
static char *result[] = {
/* columns rows colors chars-per-pixel */
"75 75 54 1 ",
"  c black",
". c #010101",
"X c gray2",
"o c #060606",
"O c #070707",
"+ c #090909",
"@ c gray4",
"# c gray5",
"$ c #0E0E0E",
"% c gray6",
"& c #1B1B1B",
"* c gray11",
"= c gray22",
"- c #4B4B4B",
"; c gray30",
": c #4E4E4E",
"> c gray31",
", c #515151",
"< c gray32",
"1 c #535353",
"2 c gray33",
"3 c #555555",
"4 c gray34",
"5 c gray36",
"6 c gray44",
"7 c gray46",
"8 c gray54",
"9 c gray56",
"0 c gray64",
"q c gray66",
"w c #AAAAAA",
"e c gray67",
"r c #ACACAC",
"t c gray68",
"y c #AEAEAE",
"u c gray69",
"i c #B1B1B1",
"p c #B2B2B2",
"a c #B4B4B4",
"s c #B6B6B6",
"d c gray78",
"f c gray89",
"g c #E4E4E4",
"h c gray94",
"j c #F1F1F1",
"k c gray95",
"l c gray96",
"z c #F6F6F6",
"x c #F8F8F8",
"c c #F9F9F9",
"v c gray98",
"b c #FEFEFE",
"n c white",
"m c None",
/* pixels */
"                      $<tjnnnnnnnnjt<$  $<tjnnnnnnnnjt<$                mmm",
"                      $<tjnnnnnnnnjt<$  $<tjnnnnnnnnjt<$                mmm",
"                      $2uznnnnnnnnzu2$  $2uznnnnnnnnzu2$                mmm",
"                      %3pcnnnnnnnncp3%  %3pcnnnnnnnncp3%                mmm",
"                      #:0fczjjjjzcf0:#  #:0fczjjjjzcf0:#                mmm",
"                      @=70pittttip07=@  @=70pittttip07=@                mmm",
"                      X&=:32<<<<23:=&X  X&=:32<<<<23:=&X                mmm",
"                      .X@#%$$$$$$%#@X.  .X@#%$$$$$$%#@X.                mmm",
"                                                                        mmm",
"                                                                        mmm",
"    .X@#%$$$$$$$$$$$$%#@X.  .X@#%$$$$$$%#@X.  .X@#%$$$$$$%#@X.          mmm",
"    X&=:32<<<<<<<<<<23:=&X  X&=:32<<<<23:=&X  X&=:32<<<<23:=&X          mmm",
"    @=70pittttttttttip07=@  @=70pittttip07=@  @=70pittttip07=@          mmm",
"    #:0fczjjjjjjjjjjzcf0:#  #:0fczjjjjzcf0:#  #:0fczjjjjzcf0:#          mmm",
"    %4sbnnnnnnnnnnnnnnbs4%  %4sbnnnnnnnnbs4%  %4sbnnnnnnnnbs4%          mmm",
"    %4sbnnnnnnnnnnnnnnbs4%  %4sbnnnnnnnnbs4%  %4sbnnnnnnnnbs4%          mmm",
"    #:0fczjjjjjjjjjjzcf0:#  #:0fczjjjjzcf0:#  #:0fczjjjjzcf0:#          mmm",
"    @=70pittttttttttip07=@  @=70pittttip07=@  @=70pittttip07=@          mmm",
"    X&=:32<<<<<<<<<<23:=&X  X&=:32<<<<23:=&X  X&=:32<<<<23:=&X          mmm",
"    .X@#%$$$$$$$$$$$$%#@X.  .X@#%$$$$$$%#@X.  .X@#%$$$$$$%#@X.          mmm",
"                                            ..                          mmm",
"                                            ..                          mmm",
"    .X@#%%#@X.  .X@#%$$$$$$$$$$$$$$$$$$%#@X.  .X@#%$$$$$$$$$$$$%#@X.    mmm",
"    X&=:44:=&X  X&=:32<<<<<<<<<<<<<<<<23:=&X  X&=:32<<<<<<<<<<23:=&X    mmm",
"    @=70ss07=@  @=70pittttttttttttttttip07=@  @=70pittttttttttip07=@    mmm",
"    #:0fbbf0:#  #:0fczjjjjjjjjjjjjjjjjzcf0:#  #:0fczjjjjjjjjjjzcf0:#    mmm",
"    +,uxnnxu,+  @1abnnnnnnnnnnnnnnnnnnnnxu,+  @1abnnnnnnnnnnnnnnxu,+    mmm",
"    O>yznnzy>O  O,abnnnnnnnnnnnnnnnnnnnnzy>O  O,abnnnnnnnnnnnnnnzy>O    mmm",
"$$+o*5iknnki5*..&4qgxlklvbnnnnnnnnnnnnnnki5*..&4qgxlklvbnnnnnnnnki5*o+$$mmm",
"<<>;58dlnnld85--469qyridgvnnnnnnnnnnnnnnld85--469qyridgvnnnnnnnnld85;><<mmm",
"ttewidgvnnvgdiryq964--58dlnnnnnnnnnnnnnnvgdiryq964--58dlnnnnnnnnvgdiwettmmm",
"jjjhklvbnnbvlklxgq4&..*5iknnnnnnnnnnnnnnbvlklxgq4&..*5iknnnnnnnnbvlkhjjjmmm",
"nnnnnnnnnnnnnnnnba,O  O>yznnnnnnnnnnnnnnnnnnnnba,O  O>yznnnnnnnnnnnnnnnnmmm",
"nnnnnnnnnnnnnnnnba1@  +,uxnnnnnnnnnnnnnnnnnnnnba1@  +,uxnnnnnnnnnnnnnnnnmmm",
"jjjjjjjjjjjjjjzcf0:#  #:0fczjjjjjjjjjjjjjjjjzcf0:#  #:0fczjjjjjjjjjjjjjjmmm",
"ttttttttttttttip07=@  @=70pittttttttttttttttip07=@  @=70pittttttttttttttmmm",
"<<<<<<<<<<<<<<23:=&X  X&=:32<<<<<<<<<<<<<<<<23:=&X  X&=:32<<<<<<<<<<<<<<mmm",
"$$$$$$$$$$$$$$$%#@X.  .X@#%$$$$$$$$$$$$$$$$$$%#@X.  .X@#%$$$$$$$$$$$$$$$mmm",
"                                                                        mmm",
"                                                                        mmm",
"$$$%#@X.  .X@#%$$$$$$%#@X.  .X@#%%#@X.  .X@#%$$$$$$$$$$$$%#@X.  .X@#%$$$mmm",
"<<23:=&X  X&=:32<<<<23:=&X  X&=:44:=&X  X&=:32<<<<<<<<<<23:=&X  X&=:32<<mmm",
"ttup07=@  @=70pittttip07=@  @=70ss07=@  @=70pittttttttttip07=@  @=70puttmmm",
"jjzcf0:#  #:0fczjjjjzcf0:#  #:0fbbf0:#  #:0fczjjjjjjjjjjzcf0:#  #:0fczjjmmm",
"nnnnbs4%  %4sbnnnnnnnnbs4%  %4sbnnbs4%  %4sbnnnnnnnnnnnnnnbs4%  %4sbnnnnmmm",
"nnnnbs4%  %4sbnnnnnnnnbs4%  %4sbnnbs4%  %4sbnnnnnnnnnnnnnnbs4%  %4sbnnnnmmm",
"jjzcf0:#  #:0fczjjjjzcf0:#  #:0fbbf0:#  #:0fczjjjjjjjjjjzcf0:#  #:0fczjjmmm",
"ttup07=@  @=70pittttip07=@  @=70ss07=@  @=70pittttttttttip07=@  @=70puttmmm",
"<<23:=&X  X&=:32<<<<23:=&X  X&=:44:=&X  X&=:32<<<<<<<<<<23:=&X  X&=:32<<mmm",
"$$$%#@X.  .X@#%$$$$$$%#@X.  .X@#%%#@X.  .X@#%$$$$$$$$$$$$%#@X.  .X@#%$$$mmm",
"                          ..                                            mmm",
"                          ..                                            mmm",
"    .X@#%$$$$$$$$$$$$%#@X.  .X@#%$$$$$$$$$$$$%#@X.  .X@#%$$$$$$%#@X.    mmm",
"    X&=:32<<<<<<<<<<23:=&X  X&=:32<<<<<<<<<<23:=&X  X&=:32<<<<23:=&X    mmm",
"    @=70pittttttttttip07=@  @=70pittttttttttip07=@  @=70pittttip07=@    mmm",
"    #:0fczjjjjjjjjjjzcf0:#  #:0fczjjjjjjjjjjzcf0:#  #:0fczjjjjzcf0:#    mmm",
"    %4sbnnnnnnnnnnnnnnbs4%  %4sbnnnnnnnnnnnnnnbs4%  %4sbnnnnnnnnbs4%    mmm",
"    %4sbnnnnnnnnnnnnnnbs4%  %4sbnnnnnnnnnnnnnnbs4%  %4sbnnnnnnnnbs4%    mmm",
"    #:0fczjjjjjjjjjjzcf0:#  #:0fczjjjjjjjjjjzcf0:#  #:0fczjjjjzcf0:#    mmm",
"    @=70pittttttttttip07=@  @=70pittttttttttip07=@  @=70pittttip07=@    mmm",
"    X&=:32<<<<<<<<<<23:=&X  X&=:32<<<<<<<<<<23:=&X  X&=:32<<<<23:=&X    mmm",
"    .X@#%$$$$$$$$$$$$%#@X.  .X@#%$$$$$$$$$$$$%#@X.  .X@#%$$$$$$%#@X.    mmm",
"                                                                        mmm",
"                                                                        mmm",
"                .X@#%$$$$$$$$$$$$%#@X.  .X@#%$$$$$$%#@X.                mmm",
"                X&=:32<<<<<<<<<<23:=&X  X&=:32<<<<23:=&X                mmm",
"                @=70pittttttttttip07=@  @=70pittttip07=@                mmm",
"                #:0fczjjjjjjjjjjzcf0:#  #:0fczjjjjzcf0:#                mmm",
"                %3pcnnnnnnnnnnnnnncp3%  %3pcnnnnnnnncp3%                mmm",
"                $2uznnnnnnnnnnnnnnzu2$  $2uznnnnnnnnzu2$                mmm",
"                $<tjnnnnnnnnnnnnnnjt<$  $<tjnnnnnnnnjt<$                mmm",
"                $<tjnnnnnnnnnnnnnnjt<$  $<tjnnnnnnnnjt<$               mmmm",
"mmmmmmmmmmmmmmmmmmmmmmmmmmmmmmmmmmmmmmmmmmmmmmmmmmmmmmmmmmmmmmmmmmmmmmmmmmm",
"mmmmmmmmmmmmmmmmmmmmmmmmmmmmmmmmmmmmmmmmmmmmmmmmmmmmmmmmmmmmmmmmmmmmmmmmmmm",
"mmmmmmmmmmmmmmmmmmmmmmmmmmmmmmmmmmmmmmmmmmmmmmmmmmmmmmmmmmmmmmmmmmmmmmmmmmm"
};
