/* XPM */
static char *_3653b15d6204ef6ccd64910d82b287b828E4W3IDTaJFNsC[] = {
/* columns rows colors chars-per-pixel */
"25 25 18 1 ",
"  c None",
". c black",
"X c #04102B",
"o c #092565",
"O c #0B2F7F",
"+ c #0E3999",
"@ c #0F3FAA",
"# c #134ED3",
"$ c #3B6CDB",
"% c #1555E4",
"& c #1558ED",
"* c #175EFE",
"= c #2C66E7",
"- c #2563EE",
"; c #5F7FC6",
": c #6E88C2",
"> c #768DC0",
", c #8597BF",
/* pixels */
"                         ",
"                         ",
"                         ",
"                         ",
"                         ",
"                         ",
"                         ",
"                         ",
"                         ",
"                         ",
"         $$$,    $,      ",
"         ***:    *:      ",
"     $$$>  *-$,  *-$,    ",
"     ***:  ***:  ***:    ",
"       *-$=***-$=***:    ",
"       *************:    ",
"     $=***@XXXO*@XO*:    ",
"     *****+...o*+.o*:    ",
"     *;  *&###%*&#%*:    ",
"     *:  ***********:    ",
"                         ",
"                         ",
"                         ",
"                         ",
"                         "
};
