/* XPM */
static char *result[] = {
/* columns rows colors chars-per-pixel */
"75 75 47 1 ",
"  c black",
". c #000001",
"X c #010206",
"o c #010207",
"O c #010309",
"+ c #01050E",
"@ c #020A1B",
"# c #071B49",
"$ c #071B4A",
"% c #071C4A",
"& c #071C4C",
"* c #071D4E",
"= c #071D4F",
"- c #071E52",
"; c #082159",
": c #08225C",
"> c #0B2E7C",
", c #0C338A",
"< c #0F3EA7",
"1 c #0F3EA9",
"2 c #0F3FA9",
"3 c #0F3FAA",
"4 c #0F3FAB",
"5 c #103FAB",
"6 c #1040AC",
"7 c #1040AD",
"8 c #1041B1",
"9 c #1144B7",
"0 c #1249C6",
"q c #134CCD",
"w c #1554E3",
"e c #1658EF",
"r c #1659EF",
"t c #1659F0",
"y c #1659F1",
"u c #165AF4",
"i c #175CF9",
"p c #175EFD",
"a c #175EFE",
"s c #175EFF",
"d c #175FFF",
"f c #1760FF",
"g c #1860FF",
"h c #1861FF",
"j c #1862FF",
"k c #1863FF",
"l c None",
/* pixels */
"lllllllllllllllllllllllllllllllllllllllllllllllllllllllllllllllllllllllllll",
"lllllllllllllllllllllllllllllllllllllllllllllllllllllllllllllllllllllllllll",
"lllllllllllllllllllllllllllllllllllllllllllllllllllllllllllllllllllllllllll",
"lllllllllllllllllllllllllllllllllllllllllllllllllllllllllllllllllllllllllll",
"lllllllllllllllllllllllllllllllllllllllllllllllllllllllllllllllllllllllllll",
"lllllllllllllllllllllllllllllllllllllllllllllllllllllllllllllllllllllllllll",
"lllllllllllllllllllllllllllllllllllllllllllllllllllllllllllllllllllllllllll",
"lllllllllllllllllllllllllllllllllllllllllllllllllllllllllllllllllllllllllll",
"lllllllllllllllllllllllllllllllllllllllllllllllllllllllllllllllllllllllllll",
"lllllllllllllllllllllllllllllllllllllllllllllllllllllllllllllllllllllllllll",
"lllllllllllllllllllllllllllllllllllllllllllllllllllllllllllllllllllllllllll",
"lllllllllllllllllllllllllllllllllllllllllllllllllllllllllllllllllllllllllll",
"lllllllllllllaaaaaaaaaaaaaaaaaaaaaallllllllaaaaaaaaaaaaaaaallllllllllllllll",
"llllllllllllaaaaaaaaaaaaaaaaaaaaaaaallllllaaaaaaaaaaaaaaaaaalllllllllllllll",
"llllllllllllaaaaaaaaaaaaaaaaaaaaaaaallllllaaaaaaaaaaaaaaaaaalllllllllllllll",
"llllllllllllaaaaaaaaaaaaaaaaaaaaaaaallllllaaaaaaaaaaaaaaaaaalllllllllllllll",
"llllllllllllaaaaaaaaaaaaaaaaaaaaaaaallllllaaaaaaaaaaaaaaaaaalllllllllllllll",
"lllllllllllllaaaaaaaaaaaaaaaaaaaaaaaallllaaaaaaaaaaaaaaaaaaalllllllllllllll",
"lllllllllllllllllaaaaaaaaaaaaaaaaaaaaaaaaaaaaaaaaaaaaaaaaaaalllllllllllllll",
"llllllllllllllllllaaaaaaaaaaaaaaaaaaaaaaaaaaaaaaaaaaaaaaaaaalllllllllllllll",
"llllllllllllllllllaaaaaaaaaaaaaaaaaddfggfddaaaaddfggfddaaaaalllllllllllllll",
"llllllllllllllllllaaaaaaaaaaaaaaaaadghhhhgdaaaadghhhhgdaaaaalllllllllllllll",
"llllllllllllllllllaaaaaaaaaaaaaaaapiuyeeyuipsspiuyeeyuipaaaalllllllllllllll",
"lllllllllllllllllllaaaaaaaaaaaaaddiw08<<80wiffiw08<<80widdaalllllllllllllll",
"lllllllllllllllllllllllaaaaaaaaadgu0,:##:,0ujju0,:##:,0ugdaalllllllllllllll",
"llllllllllllllllllllllllaaaaaaaafhy8:@..@:8ykky8:@..@:8yhfaalllllllllllllll",
"llllllllllllllllllllllllaaaaaaaaghr2&X  X&2rkkr2&X  X&2rhgaalllllllllllllll",
"llllllllllllllllllllllllaaaaaaaaght3*O  O*3tkkt3*O  O*3thgaalllllllllllllll",
"llllllllllllllllllllllllaaaaaaaaght6-+  +-6tkkt6-+  +-6thgaalllllllllllllll",
"llllllllllllllllllllllllaaaaaaaaght6-+  +-6tkkt6-+  +-6thgaalllllllllllllll",
"llllllllllllllllllllllllaaaaaaaaght6-+  +-6tkkt6-+  +-6thgaalllllllllllllll",
"llllllllllllllllllllllllaaaaaaaaght6-+  +-6tkkt6-+  +-6thgaalllllllllllllll",
"llllllllllllllllllllllllaaaaaaaaght3*O  O*3tkkt3*O  O=5thgaalllllllllllllll",
"llllllllllllllllllllllllaaaaaaaaghr2&X  X&2rkkr2&X  o*4thgaalllllllllllllll",
"llllllllllllllllllllllllaaaaaaaafhy8:@..@:8ykky8:@..@;7thgaalllllllllllllll",
"lllllllllllllllllllllllaaaaaaaaadgu0,:##:,0ujju0,:$%;>9thgallllllllllllllll",
"lllllllllllllllllllaaaaaaaaaaaaaddiw08<<80wiffiw081279qllllllllllllllllllll",
"llllllllllllllllllaaaaaaaaaaaaaaaapiuyeeyuipsspiuyrtttlllllllllllllllllllll",
"llllllllllllllllllaaaaaaaaaaaaaaaaadghhhhgdaaaadghhhhhlllllllllllllllllllll",
"llllllllllllllllllaaaaaaaaaaaaaaaaaddfggfddaaaaddfgggglllllllllllllllllllll",
"llllllllllllllllllaaaaaaaaaaaaaaaaaaaaaaaaaaaaaaaaaaaalllllllllllllllllllll",
"lllllllllllllllllaaaaaaaaaaaaaaaaaaaaaaaaaaaaaaaaaaaaaallllllllllllllllllll",
"lllllllllllllaaaaaaaaaaaaaaaaaaaaaaaallllllllllaaaaaaaaaaaallllllllllllllll",
"llllllllllllaaaaaaaaaaaaaaaaaaaaaaaallllllllllllaaaaaaaaaaaalllllllllllllll",
"llllllllllllaaaaaaaaaaaaaaaaaaaaaaaallllllllllllaaaaaaaaaaaalllllllllllllll",
"llllllllllllaaaaaaaaaaaaaaaaaaaaaaaallllllllllllaaaaaaaaaaaalllllllllllllll",
"llllllllllllaaaaaaaaaaaaaaaaaaaaaaaallllllllllllaaaaaaaaaaaalllllllllllllll",
"lllllllllllllaaaaaaaaaaaaaaaaaaaaaallllllllllllllaaaaaaaaaaalllllllllllllll",
"lllllllllllllllllllllllllllllllllllllllllllllllllllllaaaaaaalllllllllllllll",
"llllllllllllllllllllllllllllllllllllllllllllllllllllllaaaaaalllllllllllllll",
"llllllllllllllllllllllllllllllllllllllllllllllllllllllaaaaaalllllllllllllll",
"llllllllllllllllllllllllllllllllllllllllllllllllllllllaaaaaalllllllllllllll",
"llllllllllllllllllllllllllllllllllllllllllllllllllllllaaaaaalllllllllllllll",
"lllllllllllllllllllllllllllllllllllllllllllllllllllllllaaaallllllllllllllll",
"lllllllllllllllllllllllllllllllllllllllllllllllllllllllllllllllllllllllllll",
"lllllllllllllllllllllllllllllllllllllllllllllllllllllllllllllllllllllllllll",
"lllllllllllllllllllllllllllllllllllllllllllllllllllllllllllllllllllllllllll",
"lllllllllllllllllllllllllllllllllllllllllllllllllllllllllllllllllllllllllll",
"lllllllllllllllllllllllllllllllllllllllllllllllllllllllllllllllllllllllllll",
"lllllllllllllllllllllllllllllllllllllllllllllllllllllllllllllllllllllllllll",
"lllllllllllllllllllllllllllllllllllllllllllllllllllllllllllllllllllllllllll",
"lllllllllllllllllllllllllllllllllllllllllllllllllllllllllllllllllllllllllll",
"lllllllllllllllllllllllllllllllllllllllllllllllllllllllllllllllllllllllllll",
"lllllllllllllllllllllllllllllllllllllllllllllllllllllllllllllllllllllllllll",
"lllllllllllllllllllllllllllllllllllllllllllllllllllllllllllllllllllllllllll",
"lllllllllllllllllllllllllllllllllllllllllllllllllllllllllllllllllllllllllll",
"lllllllllllllllllllllllllllllllllllllllllllllllllllllllllllllllllllllllllll",
"lllllllllllllllllllllllllllllllllllllllllllllllllllllllllllllllllllllllllll",
"lllllllllllllllllllllllllllllllllllllllllllllllllllllllllllllllllllllllllll",
"lllllllllllllllllllllllllllllllllllllllllllllllllllllllllllllllllllllllllll",
"lllllllllllllllllllllllllllllllllllllllllllllllllllllllllllllllllllllllllll",
"lllllllllllllllllllllllllllllllllllllllllllllllllllllllllllllllllllllllllll",
"lllllllllllllllllllllllllllllllllllllllllllllllllllllllllllllllllllllllllll",
"lllllllllllllllllllllllllllllllllllllllllllllllllllllllllllllllllllllllllll",
"lllllllllllllllllllllllllllllllllllllllllllllllllllllllllllllllllllllllllll"
};
