/* XPM */
static char *e6c8f22b3d814d60dfa5d6a0b85b40a109HQqKkDekmprwuE[] = {
/* columns rows colors chars-per-pixel */
"25 25 18 1 ",
"  c None",
". c black",
"X c #030C21",
"o c #051335",
"O c #071D4F",
"+ c #2957BE",
"@ c #124BC9",
"# c #134DD0",
"$ c #1452DD",
"% c #3D6DD9",
"& c #1554E4",
"* c #165BF7",
"= c #175EFE",
"- c #1D60F7",
"; c #2D66E7",
": c #3268E2",
"> c #5A7CC8",
", c #4370D5",
/* pixels */
"                         ",
"                         ",
"                         ",
"                         ",
"                         ",
"    ,,,,,,,>  ,,,,,>     ",
"    =======:  =====:     ",
"      =====-,%=====:     ",
"      =============:     ",
"        ===&oO=&oO=:     ",
"        ===$.X=$.X=:     ",
"        ===$.X=$.X=:     ",
"        ===$.X=$.X=:     ",
"      ,%===*@#=*@+       ",
"      ===========:       ",
"    ,%=====;    =-,>     ",
"    =======:    ===:     ",
"                  =:     ",
"                  =:     ",
"                         ",
"                         ",
"                         ",
"                         ",
"                         ",
"                         "
};
