/* XPM */
static char *d80d39659f614f04c1523f71e659aa80KbIJRTcLcT16JXrD[] = {
/* columns rows colors chars-per-pixel */
"25 25 17 1 ",
"  c None",
". c black",
"X c #020714",
"o c #051539",
"O c #071B48",
"+ c #1249C5",
"@ c #124BCA",
"# c #1557EA",
"$ c #1658EF",
"% c #175CFA",
"& c #175EFE",
"* c #1B5FFA",
"= c #2764EC",
"- c #2462F0",
"; c #5479CB",
": c #4772D2",
"> c #4370D5",
/* pixels */
"                         ",
"                         ",
"                         ",
"                         ",
"                         ",
"    =&&&&&&&  =&&&&&     ",
"    ;:*&&&&&  -&&&&&     ",
"      =&&&&&&&&&&&&&     ",
"      ;:*&&&@+%&@+%&     ",
"        =&&&X.#&X.#&     ",
"        =&&&X.#&X.#&     ",
"        =&&&X.#&X.#&     ",
"        =&&&Oo$&Oo$&     ",
"        =&&&&&&&&&&&     ",
"        ;:*&>:*&&&>:     ",
"          =&  =&&&       ",
"          ;:  -&>:       ",
"            =&&&         ",
"            ;:::         ",
"                         ",
"                         ",
"                         ",
"                         ",
"                         ",
"                         "
};
