/* XPM */
static char *result[] = {
/* columns rows colors chars-per-pixel */
"75 75 61 1 ",
"  c black",
". c #010101",
"X c #020202",
"o c gray2",
"O c #060606",
"+ c #070707",
"@ c #090909",
"# c gray4",
"$ c gray5",
"% c #0E0E0E",
"& c gray6",
"* c #1B1B1B",
"= c gray11",
"- c gray22",
"; c #494949",
": c gray29",
"> c #4B4B4B",
", c gray30",
"< c #4E4E4E",
"1 c gray31",
"2 c #505050",
"3 c #515151",
"4 c gray32",
"5 c gray33",
"6 c #555555",
"7 c gray34",
"8 c gray35",
"9 c gray36",
"0 c gray44",
"q c gray46",
"w c gray49",
"e c gray54",
"r c gray56",
"t c gray64",
"y c gray66",
"u c #A9A9A9",
"i c #AAAAAA",
"p c gray67",
"a c #ACACAC",
"s c gray68",
"d c #AEAEAE",
"f c #AFAFAF",
"g c gray69",
"h c #B1B1B1",
"j c #B2B2B2",
"k c gray72",
"l c gray78",
"z c #CECECE",
"x c gray89",
"c c #E4E4E4",
"v c gray94",
"b c #F1F1F1",
"n c gray95",
"m c gray96",
"M c #F6F6F6",
"N c #F8F8F8",
"B c #F9F9F9",
"V c gray98",
"C c #FEFEFE",
"Z c white",
"A c None",
/* pixels */
"AAAAAAAAAAAAAAAAAAAAAAAAAAAAAAAAAAAAAAAAAAAAAAAAAAAAAAAAAAAAAAAAAAAAAAAAAAA",
"AAAAAAAAAAAAAAAAAAAAAAAAAAAAAAAAAAAAAAAAAAAAAAAAAAAAAAAAAAAAAAAAAAAAAAAAAAA",
"AAAAAAAAAAAAAAAAAAAAAAAAAAAAAAAAAAAAAAAAAAAAAAAAAAAAAAAAAAAAAAAAAAAAAAAAAAA",
"AAAAAAAAAAAAAAAAAAAAAAAAAAAAAAAAAAAAAAAAAAAAAAAAAAAAAAAAAAAAAAAAAAAAAAAAAAA",
"AAAAAAAAAAAAAAAAAAAAAAAAAAAAAAAAAAAAAAAAAAAAAAAAAAAAAAAAAAAAAAAAAAAAAAAAAAA",
"AAAAAAAAAAAAAAAAAAAAAAAAAAAAAAAAAAAAAAAAAAAAAAAAAAAAAAAAAAAAAAAAAAAAAAAAAAA",
"AAAAAAAAAAAAAAAAAAAAAAAAAAAAAAAAAAAAAAAAAAAAAAAAAAAAAAAAAAAAAAAAAAAAAAAAAAA",
"AAAAAAAAAAAAAAAAAAAAAAAAAAAAAAAAAAAAAAAAAAAAAAAAAAAAAAAAAAAAAAAAAAAAAAAAAAA",
"AAAAAAAAAAAAAAAAAAAAAAAAAAAAAAAAAAAAAAAAAAAAAAAAAAAAAAAAAAAAAAAAAAAAAAAAAAA",
"AAAAAAAAAAAAAAAAAAAAAAAAAAAAAAAAAAAAAAAAAAAAAAAAAAAAAAAAAAAAAAAAAAAAAAAAAAA",
"AAAAAAAAAAAAAAAAAAAAAAAAAAAAAAAAAAAAAAAAAAAAAAAAAAAAAAAAAAAAAAAAAAAAAAAAAAA",
"AAAAAAAAAAAAAAAAAAAAAAAAAAAAAAAAAAAAAAAAAAAAAAAAAAAAAAAAAAAAAAAAAAAAAAAAAAA",
"AAAAAAAAAAAAAAAAAAAAAAAAAZZZZZZZZZZZZZZZZZZZZZZAAAAAAAAAAAAAAAAAAAAAAAAAAAA",
"AAAAAAAAAAAAAAAAAAAAAAAAZZZZZZZZZZZZZZZZZZZZZZZZAAAAAAAAAAAAAAAAAAAAAAAAAAA",
"AAAAAAAAAAAAAAAAAAAAAAAAZZZZZZZZZZZZZZZZZZZZZZZZAAAAAAAAAAAAAAAAAAAAAAAAAAA",
"AAAAAAAAAAAAAAAAAAAAAAAAZZZZZZZZZZZZZZZZZZZZZZZZAAAAAAAAAAAAAAAAAAAAAAAAAAA",
"AAAAAAAAAAAAAAAAAAAAAAAAbbbbbbbbbbbbbbbvnmVCZZZZAAAAAAAAAAAAAAAAAAAAAAAAAAA",
"AAAAAAAAAAAAAAAAAAAAAAAzkdaasssssssssspihlcVZZZZZAAAAAAAAAAAAAAAAAAAAAAAAAA",
"AAAAAAAAAAAAAAAAAAAZZZbkw8124444444444<,9elmZZZZZZZZZAAAAAAAAAAAAAAAAAAAAAA",
"AAAAAAAAAAAAAAAAAAZZZZbd8*+@%%%%%%%%%%@O=9hnZZZZZZZZZZAAAAAAAAAAAAAAAAAAAAA",
"AAAAAAAAAAAAAAAAAAZZZZMd,X              +1dMZZZZZZZZZZAAAAAAAAAAAAAAAAAAAAA",
"AAAAAAAAAAAAAAAAAAZZZZNf,X              @3gNZZZZZZZZZZAAAAAAAAAAAAAAAAAAAAA",
"AAAAAAAAAAAAAAAAAAbbMNcy7*+@%%%%%&$#o.  $<txNMnmVCZZZZAAAAAAAAAAAAAAAAAAAAA",
"AAAAAAAAAAAAAAAAAzkddfyr0712444456<-*o  #-qtgdhlcVZZZZZAAAAAAAAAAAAAAAAAAAA",
"AAAAAAAAAAAAAZZZbkw8,,70rygfsssshjtq-#  o*-<319elmZZZZZZZZZAAAAAAAAAAAAAAAA",
"AAAAAAAAAAAAZZZZbd8*XX*7ycNMbbbbMBxt<$  .o#$@+=9hnZZZZZZZZZZAAAAAAAAAAAAAAA",
"AAAAAAAAAAAAZZZZvi>.  .>dNZZZZZZZZBj4@        O,ivZZZZZZZZZZAAAAAAAAAAAAAAA",
"AAAAAAAAAAAAZZZZvu:.  .>amZZZZZZZZMg2+        @<pbZZZZZZZZZZAAAAAAAAAAAAAAA",
"AAAAAAAAAAAAZZZZnh9=..=9hnZZZZZZZZbd8*+@$#o.  %4sbZZZZZZZZZZAAAAAAAAAAAAAAA",
"AAAAAAAAAAAAZZZZmle9;;9elmZZZZZZZZbkw824<-*o  %4sbZZZZZZZZZZAAAAAAAAAAAAAAA",
"AAAAAAAAAAAAZZZZVclhyyhlcVZZZZZAAAAzkdgjtq-#  %4sbZZZZZZZZZZAAAAAAAAAAAAAAA",
"AAAAAAAAAAAAZZZZCVmnvvnmVCZZZZAAAAAAbbMBxt<$  %4sbZZZZZZZZZZAAAAAAAAAAAAAAA",
"AAAAAAAAAAAAZZZZZZZZZZZZZZZZZZAAAAAAZZZZBj6&  %4sbZZZZZZZZZZAAAAAAAAAAAAAAA",
"AAAAAAAAAAAAZZZZZZZZZZZZZZZZZZAAAAAAZZZZMh5%  %4sbZZZZZZZZZZAAAAAAAAAAAAAAA",
"AAAAAAAAAAAAZZZZZZZZZZZZZZZZZZAAAAAAZZZZbs4%  %4sbZZZZZZZZZZAAAAAAAAAAAAAAA",
"AAAAAAAAAAAAZZZZZZZZZZZZZZZZZZAAAAAAZZZZbs4%  %4sbZZZZZZZZZZAAAAAAAAAAAAAAA",
"AAAAAAAAAAAAZZZZZZZZZZZZZZZZZZAAAAAAZZZZbs4%  %4sbZZZZZZZZZZAAAAAAAAAAAAAAA",
"AAAAAAAAAAAAZZZZZZZZZZZZZZZZZZAAAAAAZZZZbs4%  %4sbZZZZZZZZZZAAAAAAAAAAAAAAA",
"AAAAAAAAAAAAZZZZZZZZZZZZZZZZZZAAAAAAZZZZMh5%  %4sbZZZZZZZZZZAAAAAAAAAAAAAAA",
"AAAAAAAAAAAAZZZZZZZZZZZZZZZZZZAAAAAAZZZZBj6&  %4sbZZZZZZZZZZAAAAAAAAAAAAAAA",
"AAAAAAAAAAAAZZZZCVmnvvnmVCZZZZAAAAAAbbMBxt<$  %4sbZZZZZZZZZZAAAAAAAAAAAAAAA",
"AAAAAAAAAAAAZZZZVclhyyhlcVZZZZZAAAAzkdgjtq-#  %4sbZZZZZZZZZZAAAAAAAAAAAAAAA",
"AAAAAAAAAAAAZZZZmle9;;9elmZZZZZZZZbkw824<-*o  %4sbZZZZZZZZZZAAAAAAAAAAAAAAA",
"AAAAAAAAAAAAZZZZnh9=..=9hnZZZZZZZZbd8*+@$#o.  %4sbZZZZZZZZZZAAAAAAAAAAAAAAA",
"AAAAAAAAAAAAZZZZvu:.  .>amZZZZZZZZMg2+        @<pbZZZZZZZZZZAAAAAAAAAAAAAAA",
"AAAAAAAAAAAAZZZZvi>.  .>dNZZZZZZZZBj4@        O,ivZZZZZZZZZZAAAAAAAAAAAAAAA",
"AAAAAAAAAAAAZZZZbd8*XX*7ycNMbbbbMBxt<$  .o#$@+=9hnZZZZZZZZZZAAAAAAAAAAAAAAA",
"AAAAAAAAAAAAAZZZbkw8,,70rygfsssshjtq-#  o*-<319elmZZZZZZZZZAAAAAAAAAAAAAAAA",
"AAAAAAAAAAAAAAAAAzkddfyr0712444456<-*o  #-qtgdhlcVZZZZZAAAAAAAAAAAAAAAAAAAA",
"AAAAAAAAAAAAAAAAAAbbMNcy7*+@%%%%%&$#o.  $<txNMnmVCZZZZAAAAAAAAAAAAAAAAAAAAA",
"AAAAAAAAAAAAAAAAAAZZZZNf,X              @3gNZZZZZZZZZZAAAAAAAAAAAAAAAAAAAAA",
"AAAAAAAAAAAAAAAAAAZZZZMd,X              +1dMZZZZZZZZZZAAAAAAAAAAAAAAAAAAAAA",
"AAAAAAAAAAAAAAAAAAZZZZbd8*+@%%%%%%%%%%@O=9hnZZZZZZZZZZAAAAAAAAAAAAAAAAAAAAA",
"AAAAAAAAAAAAAAAAAAAZZZbkw8124444444444<,9elmZZZZZZZZZAAAAAAAAAAAAAAAAAAAAAA",
"AAAAAAAAAAAAAAAAAAAAAAAzkdaasssssssssspihlcVZZZZZAAAAAAAAAAAAAAAAAAAAAAAAAA",
"AAAAAAAAAAAAAAAAAAAAAAAAbbbbbbbbbbbbbbbvnmVCZZZZAAAAAAAAAAAAAAAAAAAAAAAAAAA",
"AAAAAAAAAAAAAAAAAAAAAAAAZZZZZZZZZZZZZZZZZZZZZZZZAAAAAAAAAAAAAAAAAAAAAAAAAAA",
"AAAAAAAAAAAAAAAAAAAAAAAAZZZZZZZZZZZZZZZZZZZZZZZZAAAAAAAAAAAAAAAAAAAAAAAAAAA",
"AAAAAAAAAAAAAAAAAAAAAAAAZZZZZZZZZZZZZZZZZZZZZZZZAAAAAAAAAAAAAAAAAAAAAAAAAAA",
"AAAAAAAAAAAAAAAAAAAAAAAAAZZZZZZZZZZZZZZZZZZZZZZAAAAAAAAAAAAAAAAAAAAAAAAAAAA",
"AAAAAAAAAAAAAAAAAAAAAAAAAAAAAAAAAAAAAAAAAAAAAAAAAAAAAAAAAAAAAAAAAAAAAAAAAAA",
"AAAAAAAAAAAAAAAAAAAAAAAAAAAAAAAAAAAAAAAAAAAAAAAAAAAAAAAAAAAAAAAAAAAAAAAAAAA",
"AAAAAAAAAAAAAAAAAAAAAAAAAAAAAAAAAAAAAAAAAAAAAAAAAAAAAAAAAAAAAAAAAAAAAAAAAAA",
"AAAAAAAAAAAAAAAAAAAAAAAAAAAAAAAAAAAAAAAAAAAAAAAAAAAAAAAAAAAAAAAAAAAAAAAAAAA",
"AAAAAAAAAAAAAAAAAAAAAAAAAAAAAAAAAAAAAAAAAAAAAAAAAAAAAAAAAAAAAAAAAAAAAAAAAAA",
"AAAAAAAAAAAAAAAAAAAAAAAAAAAAAAAAAAAAAAAAAAAAAAAAAAAAAAAAAAAAAAAAAAAAAAAAAAA",
"AAAAAAAAAAAAAAAAAAAAAAAAAAAAAAAAAAAAAAAAAAAAAAAAAAAAAAAAAAAAAAAAAAAAAAAAAAA",
"AAAAAAAAAAAAAAAAAAAAAAAAAAAAAAAAAAAAAAAAAAAAAAAAAAAAAAAAAAAAAAAAAAAAAAAAAAA",
"AAAAAAAAAAAAAAAAAAAAAAAAAAAAAAAAAAAAAAAAAAAAAAAAAAAAAAAAAAAAAAAAAAAAAAAAAAA",
"AAAAAAAAAAAAAAAAAAAAAAAAAAAAAAAAAAAAAAAAAAAAAAAAAAAAAAAAAAAAAAAAAAAAAAAAAAA",
"AAAAAAAAAAAAAAAAAAAAAAAAAAAAAAAAAAAAAAAAAAAAAAAAAAAAAAAAAAAAAAAAAAAAAAAAAAA",
"AAAAAAAAAAAAAAAAAAAAAAAAAAAAAAAAAAAAAAAAAAAAAAAAAAAAAAAAAAAAAAAAAAAAAAAAAAA",
"AAAAAAAAAAAAAAAAAAAAAAAAAAAAAAAAAAAAAAAAAAAAAAAAAAAAAAAAAAAAAAAAAAAAAAAAAAA",
"AAAAAAAAAAAAAAAAAAAAAAAAAAAAAAAAAAAAAAAAAAAAAAAAAAAAAAAAAAAAAAAAAAAAAAAAAAA",
"AAAAAAAAAAAAAAAAAAAAAAAAAAAAAAAAAAAAAAAAAAAAAAAAAAAAAAAAAAAAAAAAAAAAAAAAAAA"
};
