/* XPM */
static char *result[] = {
/* columns rows colors chars-per-pixel */
"75 75 47 1 ",
"  c black",
". c #010101",
"X c gray2",
"o c #060606",
"O c #070707",
"+ c #090909",
"@ c gray4",
"# c gray5",
"$ c #0E0E0E",
"% c gray6",
"& c #1B1B1B",
"* c gray11",
"= c gray22",
"- c #494949",
"; c gray30",
": c #4E4E4E",
"> c gray31",
", c #515151",
"< c gray32",
"1 c gray33",
"2 c #555555",
"3 c gray36",
"4 c gray46",
"5 c gray54",
"6 c gray64",
"7 c gray66",
"8 c #AAAAAA",
"9 c gray67",
"0 c gray68",
"q c #AEAEAE",
"w c gray69",
"e c #B1B1B1",
"r c #B2B2B2",
"t c gray78",
"y c gray89",
"u c #E4E4E4",
"i c gray94",
"p c #F1F1F1",
"a c gray95",
"s c gray96",
"d c #F6F6F6",
"f c #F8F8F8",
"g c #F9F9F9",
"h c gray98",
"j c #FEFEFE",
"k c white",
"l c None",
/* pixels */
"lllllllllllllllllllllllllllllllllllllllllllllllllllllllllllllllllllllllllll",
"lllllllllllllllllllllllllllllllllllllllllllllllllllllllllllllllllllllllllll",
"lllllllllllllllllllllllllllllllllllllllllllllllllllllllllllllllllllllllllll",
"lllllllllllllllllllllllllllllllllllllllllllllllllllllllllllllllllllllllllll",
"lllllllllllllllllllllllllllllllllllllllllllllllllllllllllllllllllllllllllll",
"lllllllllllllllllllllllllllllllllllllllllllllllllllllllllllllllllllllllllll",
"lllllllllllllllllllllllllllllllllllllllllllllllllllllllllllllllllllllllllll",
"lllllllllllllllllllllllllllllllllllllllllllllllllllllllllllllllllllllllllll",
"lllllllllllllllllllllllllllllllllllllllllllllllllllllllllllllllllllllllllll",
"lllllllllllllllllllllllllllllllllllllllllllllllllllllllllllllllllllllllllll",
"lllllllllllllllllllllllllllllllllllllllllllllllllllllllllllllllllllllllllll",
"lllllllllllllllllllllllllllllllllllllllllllllllllllllllllllllllllllllllllll",
"lllllllllllllllllllllllllkkkkkkkkkkkkkkkkkkkkkkllllllllllllllllllllllllllll",
"llllllllllllllllllllllllkkkkkkkkkkkkkkkkkkkkkkkklllllllllllllllllllllllllll",
"llllllllllllllllllllllllkkkkkkkkkkkkkkkkkkkkkkkklllllllllllllllllllllllllll",
"llllllllllllllllllllllllkkkkkkkkkkkkkkkkkkkkkkkklllllllllllllllllllllllllll",
"llllllllllllllllllllllllkkkkjhsaiiashjkkkkkkkkkklllllllllllllllllllllllllll",
"lllllllllllllllllllllllkkkkkhute77etuhkkkkkkkkkkkllllllllllllllllllllllllll",
"lllllllllllllllllllkkkkkkkkkst53--35tskkkkkkkkkkkkkkkllllllllllllllllllllll",
"llllllllllllllllllkkkkkkkkkkae3*..*3eakkkkkkkkkkkkkkkklllllllllllllllllllll",
"llllllllllllllllllkkkkkkkkkkdq>O  o;8ikkkkkkkkkkkkkkkklllllllllllllllllllll",
"llllllllllllllllllkkkkkkkkkkfw,+  +:9pkkkkkkkkkkkkkkkklllllllllllllllllllll",
"llllllllllllllllllkkkkjhsadfy6:#  $<0pkkkkkkkkkkkkkkkklllllllllllllllllllll",
"llllllllllllllllllkkkkhuteqw64=@  $<0pkkkkkkkkkkkkkkkklllllllllllllllllllll",
"llllllllllllllllllkkkkst53>,:=&X  $<0pkkkkkkkkkkkkkkkklllllllllllllllllllll",
"llllllllllllllllllkkkkae3*O+#@X.  $<0pkkkkkkkkkkkkkkkklllllllllllllllllllll",
"llllllllllllllllllkkkki8;o        +:9pkkkkkkkkkkkkkkkklllllllllllllllllllll",
"llllllllllllllllllkkkkp9:+        o;8ikkkkkkkkkkkkkkkklllllllllllllllllllll",
"llllllllllllllllllkkkkp0<$  .X@#+O*3eakkkkkkkkkkkkkkkklllllllllllllllllllll",
"llllllllllllllllllkkkkp0<$  X&=:,>35tskkkkkkkkkkkkkkkklllllllllllllllllllll",
"llllllllllllllllllkkkkp0<$  @=46wqetuhkkkkkkkkkkkkkkkklllllllllllllllllllll",
"llllllllllllllllllkkkkp0<$  #:6yfdashjkkkkkkkkkkkkkkkklllllllllllllllllllll",
"llllllllllllllllllkkkkp0<$  %2rgkkkkkkkkkkkkkkkkkkkkkklllllllllllllllllllll",
"llllllllllllllllllkkkkp0<$  $1edkkkkkkkkkkkkkkkkkkkkkklllllllllllllllllllll",
"llllllllllllllllllkkkkp0<$  $<0pkkkkkkkkkkkkkkkkkkkkkklllllllllllllllllllll",
"llllllllllllllllllkkkkp0<$  $<0pkkkkkkkkkkkkkkkkkkkkkklllllllllllllllllllll",
"llllllllllllllllllkkkkp0<$  $<0pkkkkkkkkkkkkkkkkkkkkkklllllllllllllllllllll",
"llllllllllllllllllkkkkp0<$  $<0pkkkkkkkkkkkkkkkkkkkkkklllllllllllllllllllll",
"llllllllllllllllllkkkkp0<$  $1edkkkkkkkkkkkkkkkkkkkkkklllllllllllllllllllll",
"llllllllllllllllllkkkkp0<$  %2rgkkkkkkkkkkkkkkkkkkkkkklllllllllllllllllllll",
"llllllllllllllllllkkkkp0<$  #:6yfdashjkkkkkkkkkkkkkkkklllllllllllllllllllll",
"llllllllllllllllllkkkkp0<$  @=46wqetuhkkkkkkkkkkkkkkkklllllllllllllllllllll",
"llllllllllllllllllkkkkp0<$  X&=:,>35tskkkkkkkkkkkkkkkklllllllllllllllllllll",
"llllllllllllllllllkkkkp0<$  .X@#+O*3eakkkkkkkkkkkkkkkklllllllllllllllllllll",
"llllllllllllllllllkkkkp9:+        o;8ikkkkkkkkkkkkkkkklllllllllllllllllllll",
"llllllllllllllllllkkkki8;o        +:9pkkkkkkkkkkkkkkkklllllllllllllllllllll",
"llllllllllllllllllkkkkae3*O+#@X.  $<0pkkkkkkkkkkkkkkkklllllllllllllllllllll",
"llllllllllllllllllkkkkst53>,:=&X  $<0pkkkkkkkkkkkkkkkklllllllllllllllllllll",
"llllllllllllllllllkkkkhuteqw64=@  $<0pkkkkkkkkkkkkkkkklllllllllllllllllllll",
"llllllllllllllllllkkkkjhsadfy6:#  $<0pkkkkkkkkkkkkkkkklllllllllllllllllllll",
"llllllllllllllllllkkkkkkkkkkfw,+  +:9pkkkkkkkkkkkkkkkklllllllllllllllllllll",
"llllllllllllllllllkkkkkkkkkkdq>O  o;8ikkkkkkkkkkkkkkkklllllllllllllllllllll",
"llllllllllllllllllkkkkkkkkkkae3*..*3eakkkkkkkkkkkkkkkklllllllllllllllllllll",
"lllllllllllllllllllkkkkkkkkkst53--35tskkkkkkkkkkkkkkkllllllllllllllllllllll",
"lllllllllllllllllllllllkkkkkhute77etuhkkkkkkkkkkkllllllllllllllllllllllllll",
"llllllllllllllllllllllllkkkkjhsaiiashjkkkkkkkkkklllllllllllllllllllllllllll",
"llllllllllllllllllllllllkkkkkkkkkkkkkkkkkkkkkkkklllllllllllllllllllllllllll",
"llllllllllllllllllllllllkkkkkkkkkkkkkkkkkkkkkkkklllllllllllllllllllllllllll",
"llllllllllllllllllllllllkkkkkkkkkkkkkkkkkkkkkkkklllllllllllllllllllllllllll",
"lllllllllllllllllllllllllkkkkkkkkkkkkkkkkkkkkkkllllllllllllllllllllllllllll",
"lllllllllllllllllllllllllllllllllllllllllllllllllllllllllllllllllllllllllll",
"lllllllllllllllllllllllllllllllllllllllllllllllllllllllllllllllllllllllllll",
"lllllllllllllllllllllllllllllllllllllllllllllllllllllllllllllllllllllllllll",
"lllllllllllllllllllllllllllllllllllllllllllllllllllllllllllllllllllllllllll",
"lllllllllllllllllllllllllllllllllllllllllllllllllllllllllllllllllllllllllll",
"lllllllllllllllllllllllllllllllllllllllllllllllllllllllllllllllllllllllllll",
"lllllllllllllllllllllllllllllllllllllllllllllllllllllllllllllllllllllllllll",
"lllllllllllllllllllllllllllllllllllllllllllllllllllllllllllllllllllllllllll",
"lllllllllllllllllllllllllllllllllllllllllllllllllllllllllllllllllllllllllll",
"lllllllllllllllllllllllllllllllllllllllllllllllllllllllllllllllllllllllllll",
"lllllllllllllllllllllllllllllllllllllllllllllllllllllllllllllllllllllllllll",
"lllllllllllllllllllllllllllllllllllllllllllllllllllllllllllllllllllllllllll",
"lllllllllllllllllllllllllllllllllllllllllllllllllllllllllllllllllllllllllll",
"lllllllllllllllllllllllllllllllllllllllllllllllllllllllllllllllllllllllllll",
"lllllllllllllllllllllllllllllllllllllllllllllllllllllllllllllllllllllllllll"
};
