/* XPM */
static char *result[] = {
/* columns rows colors chars-per-pixel */
"75 75 2 1 ",
"  c white",
". c None",
/* pixels */
"...........................................................................",
"...........................................................................",
"...........................................................................",
"...........................................................................",
"...........................................................................",
"...........................................................................",
"...........................................................................",
"...........................................................................",
"...........................................................................",
"...........................................................................",
"...........................................................................",
"...........................................................................",
"...............................          ..................................",
"..............................            .................................",
"..............................            .................................",
"..............................            .................................",
"..............................            .................................",
".............................              ................................",
".........................                      ............................",
"........................                        ...........................",
"........................                        ...........................",
"........................                        ...........................",
"........................                        ...........................",
"........................                        ...........................",
"........................                        ...........................",
"........................                        ...........................",
"........................                        ...........................",
"........................                        ...........................",
"........................                        ...........................",
"........................                        ...........................",
"........................                        ...........................",
"........................                        ...........................",
"........................                        ...........................",
"........................                        ...........................",
"........................                        ...........................",
"........................                        ...........................",
"........................                        ...........................",
"........................                        ...........................",
"........................                        ...........................",
"........................                        ...........................",
"........................                        ...........................",
"........................                        ...........................",
"........................                        ...........................",
"........................                        ...........................",
"........................                        ...........................",
"........................                        ...........................",
"........................                        ...........................",
"........................                        ...........................",
"........................                        ...........................",
"........................                        ...........................",
"........................                        ...........................",
"........................                        ...........................",
"........................                        ...........................",
".........................                      ............................",
".............................              ................................",
"..............................            .................................",
"..............................            .................................",
"..............................            .................................",
"..............................            .................................",
"...............................          ..................................",
"...........................................................................",
"...........................................................................",
"...........................................................................",
"...........................................................................",
"...........................................................................",
"...........................................................................",
"...........................................................................",
"...........................................................................",
"...........................................................................",
"...........................................................................",
"...........................................................................",
"...........................................................................",
"...........................................................................",
"...........................................................................",
"..........................................................................."
};
