/* XPM */
static char *result[] = {
/* columns rows colors chars-per-pixel */
"75 75 35 1 ",
"  c black",
". c #000001",
"X c #010206",
"o c #010309",
"O c #01050E",
"+ c #020A1B",
"@ c #071B49",
"# c #071C4C",
"$ c #071D4E",
"% c #071E52",
"& c #08225C",
"* c #0C338A",
"= c #0F3EA7",
"- c #0F3FA9",
"; c #0F3FAA",
": c #1040AC",
"> c #1041B1",
", c #1249C6",
"< c #1554E3",
"1 c #1658EF",
"2 c #1659EF",
"3 c #1659F0",
"4 c #1659F1",
"5 c #165AF4",
"6 c #175CF9",
"7 c #175EFD",
"8 c #175EFE",
"9 c #175EFF",
"0 c #175FFF",
"q c #1760FF",
"w c #1860FF",
"e c #1861FF",
"r c #1862FF",
"t c #1863FF",
"y c None",
/* pixels */
"yyyyyyyyyyyyyyyyyyyyyyyyyyyyyyyyyyyyyyyyyyyyyyyyyyyyyyyyyyyyyyyyyyyyyyyyyyy",
"yyyyyyyyyyyyyyyyyyyyyyyyyyyyyyyyyyyyyyyyyyyyyyyyyyyyyyyyyyyyyyyyyyyyyyyyyyy",
"yyyyyyyyyyyyyyyyyyyyyyyyyyyyyyyyyyyyyyyyyyyyyyyyyyyyyyyyyyyyyyyyyyyyyyyyyyy",
"yyyyyyyyyyyyyyyyyyyyyyyyyyyyyyyyyyyyyyyyyyyyyyyyyyyyyyyyyyyyyyyyyyyyyyyyyyy",
"yyyyyyyyyyyyyyyyyyyyyyyyyyyyyyyyyyyyyyyyyyyyyyyyyyyyyyyyyyyyyyyyyyyyyyyyyyy",
"yyyyyyyyyyyyyyyyyyyyyyyyyyyyyyyyyyyyyyyyyyyyyyyyyyyyyyyyyyyyyyyyyyyyyyyyyyy",
"yyyyyyyyyyyyyyyyyyyyyyyyyyyyyyyyyyyyyyyyyyyyyyyyyyyyyyyyyyyyyyyyyyyyyyyyyyy",
"yyyyyyyyyyyyyyyyyyyyyyyyyyyyyyyyyyyyyyyyyyyyyyyyyyyyyyyyyyyyyyyyyyyyyyyyyyy",
"yyyyyyyyyyyyyyyyyyyyyyyyyyyyyyyyyyyyyyyyyyyyyyyyyyyyyyyyyyyyyyyyyyyyyyyyyyy",
"yyyyyyyyyyyyyyyyyyyyyyyyyyyyyyyyyyyyyyyyyyyyyyyyyyyyyyyyyyyyyyyyyyyyyyyyyyy",
"yyyyyyyyyyyyyyyyyyyyyyyyyyyyyyyyyyyyyyyyyyyyyyyyyyyyyyyyyyyyyyyyyyyyyyyyyyy",
"yyyyyyyyyyyyyyyyyyyyyyyyyyyyyyyyyyyyyyyyyyyyyyyyyyyyyyyyyyyyyyyyyyyyyyyyyyy",
"yyyyyyyyyyyyy8888888888888888888888yyyyyyyy8888888888888888yyyyyyyyyyyyyyyy",
"yyyyyyyyyyyy888888888888888888888888yyyyyy888888888888888888yyyyyyyyyyyyyyy",
"yyyyyyyyyyyy888888888888888888888888yyyyyy888888888888888888yyyyyyyyyyyyyyy",
"yyyyyyyyyyyy888888888888888888888888yyyyyy888888888888888888yyyyyyyyyyyyyyy",
"yyyyyyyyyyyy888888888888888888888888yyyyyy888888888888888888yyyyyyyyyyyyyyy",
"yyyyyyyyyyyyy888888888888888888888888yyyy8888888888888888888yyyyyyyyyyyyyyy",
"yyyyyyyyyyyyyyyyy8888888888888888888888888888888888888888888yyyyyyyyyyyyyyy",
"yyyyyyyyyyyyyyyyyy888888888888888888888888888888888888888888yyyyyyyyyyyyyyy",
"yyyyyyyyyyyyyyyyyy8888888888888888800qwwq00888800qwwq0088888yyyyyyyyyyyyyyy",
"yyyyyyyyyyyyyyyyyy888888888888888880weeeew088880weeeew088888yyyyyyyyyyyyyyy",
"yyyyyyyyyyyyyyyyyy888888888888888876541145679976541145678888yyyyyyyyyyyyyyy",
"yyyyyyyyyyyyyyyyyyy8888888888888006<,>==>,<6qq6<,>==>,<60088yyyyyyyyyyyyyyy",
"yyyyyyyyyyyyyyyyyyyyyyy8888888880w5,*&@@&*,5rr5,*&@@&*,5w088yyyyyyyyyyyyyyy",
"yyyyyyyyyyyyyyyyyyyyyyyy88888888qe4>&+..+&>4tt4>&+..+&>4eq88yyyyyyyyyyyyyyy",
"yyyyyyyyyyyyyyyyyyyyyyyy88888888we2-#X  X#-2tt2-#X  X#-2ew88yyyyyyyyyyyyyyy",
"yyyyyyyyyyyyyyyyyyyyyyyy88888888we3;$o  o$;3tt3;$o  o$;3ew88yyyyyyyyyyyyyyy",
"yyyyyyyyyyyyyyyyyyyyyyyy88888888we3:%O  O%:3tt3:%O  O%:3ew88yyyyyyyyyyyyyyy",
"yyyyyyyyyyyyyyyyyyyyyyyy88888888we3:%O  O%:3tt3:%O  O%:3ew88yyyyyyyyyyyyyyy",
"yyyyyyyyyyyyyyyyyyyyyyyy88888888we3:%O  O%:3tt3:%O  O%:3ew88yyyyyyyyyyyyyyy",
"yyyyyyyyyyyyyyyyyyyyyyyy88888888we3:%O  O%:3tt3:%O  O%:3ew88yyyyyyyyyyyyyyy",
"yyyyyyyyyyyyyyyyyyyyyyyy88888888we3;$o  o$;3tt3;$o  o$;3ew88yyyyyyyyyyyyyyy",
"yyyyyyyyyyyyyyyyyyyyyyyy88888888we2-#X  X#-2tt2-#X  X#-2ew88yyyyyyyyyyyyyyy",
"yyyyyyyyyyyyyyyyyyyyyyyy88888888qe4>&+..+&>4tt4>&+..+&>4eq88yyyyyyyyyyyyyyy",
"yyyyyyyyyyyyyyyyyyyyyyyy888888880w5,*&@@&*,5rr5,*&@@&*,5w088yyyyyyyyyyyyyyy",
"yyyyyyyyyyyyyyyyyyyyyyyy88888888006<,>==>,<6qq6<,>==>,<60088yyyyyyyyyyyyyyy",
"yyyyyyyyyyyyyyyyyyyyyyyy888888888876541145679976541145678888yyyyyyyyyyyyyyy",
"yyyyyyyyyyyyyyyyyyyyyyyy888888888880weeeew088880weeeew088888yyyyyyyyyyyyyyy",
"yyyyyyyyyyyyyyyyyyyyyyyy8888888888800qwwq00888800qwwq0088888yyyyyyyyyyyyyyy",
"yyyyyyyyyyyyyyyyyyyyyyyy888888888888888888888888888888888888yyyyyyyyyyyyyyy",
"yyyyyyyyyyyyyyyyyyyyyyyyy8888888888888888888888888888888888yyyyyyyyyyyyyyyy",
"yyyyyyyyyyyyyyyyyyyyyyyyyyyyy88888888yyyy88888888888888yyyyyyyyyyyyyyyyyyyy",
"yyyyyyyyyyyyyyyyyyyyyyyyyyyyyy888888yyyyyy888888888888yyyyyyyyyyyyyyyyyyyyy",
"yyyyyyyyyyyyyyyyyyyyyyyyyyyyyy888888yyyyyy888888888888yyyyyyyyyyyyyyyyyyyyy",
"yyyyyyyyyyyyyyyyyyyyyyyyyyyyyy888888yyyyyy888888888888yyyyyyyyyyyyyyyyyyyyy",
"yyyyyyyyyyyyyyyyyyyyyyyyyyyyyy888888yyyyyy888888888888yyyyyyyyyyyyyyyyyyyyy",
"yyyyyyyyyyyyyyyyyyyyyyyyyyyyyyy88888yyyyy888888888888yyyyyyyyyyyyyyyyyyyyyy",
"yyyyyyyyyyyyyyyyyyyyyyyyyyyyyyyyyyyy8888888888888yyyyyyyyyyyyyyyyyyyyyyyyyy",
"yyyyyyyyyyyyyyyyyyyyyyyyyyyyyyyyyyyy888888888888yyyyyyyyyyyyyyyyyyyyyyyyyyy",
"yyyyyyyyyyyyyyyyyyyyyyyyyyyyyyyyyyyy888888888888yyyyyyyyyyyyyyyyyyyyyyyyyyy",
"yyyyyyyyyyyyyyyyyyyyyyyyyyyyyyyyyyyy888888888888yyyyyyyyyyyyyyyyyyyyyyyyyyy",
"yyyyyyyyyyyyyyyyyyyyyyyyyyyyyyyyyyyy888888888888yyyyyyyyyyyyyyyyyyyyyyyyyyy",
"yyyyyyyyyyyyyyyyyyyyyyyyyyyyyyyyyyyyy8888888888yyyyyyyyyyyyyyyyyyyyyyyyyyyy",
"yyyyyyyyyyyyyyyyyyyyyyyyyyyyyyyyyyyyyyyyyyyyyyyyyyyyyyyyyyyyyyyyyyyyyyyyyyy",
"yyyyyyyyyyyyyyyyyyyyyyyyyyyyyyyyyyyyyyyyyyyyyyyyyyyyyyyyyyyyyyyyyyyyyyyyyyy",
"yyyyyyyyyyyyyyyyyyyyyyyyyyyyyyyyyyyyyyyyyyyyyyyyyyyyyyyyyyyyyyyyyyyyyyyyyyy",
"yyyyyyyyyyyyyyyyyyyyyyyyyyyyyyyyyyyyyyyyyyyyyyyyyyyyyyyyyyyyyyyyyyyyyyyyyyy",
"yyyyyyyyyyyyyyyyyyyyyyyyyyyyyyyyyyyyyyyyyyyyyyyyyyyyyyyyyyyyyyyyyyyyyyyyyyy",
"yyyyyyyyyyyyyyyyyyyyyyyyyyyyyyyyyyyyyyyyyyyyyyyyyyyyyyyyyyyyyyyyyyyyyyyyyyy",
"yyyyyyyyyyyyyyyyyyyyyyyyyyyyyyyyyyyyyyyyyyyyyyyyyyyyyyyyyyyyyyyyyyyyyyyyyyy",
"yyyyyyyyyyyyyyyyyyyyyyyyyyyyyyyyyyyyyyyyyyyyyyyyyyyyyyyyyyyyyyyyyyyyyyyyyyy",
"yyyyyyyyyyyyyyyyyyyyyyyyyyyyyyyyyyyyyyyyyyyyyyyyyyyyyyyyyyyyyyyyyyyyyyyyyyy",
"yyyyyyyyyyyyyyyyyyyyyyyyyyyyyyyyyyyyyyyyyyyyyyyyyyyyyyyyyyyyyyyyyyyyyyyyyyy",
"yyyyyyyyyyyyyyyyyyyyyyyyyyyyyyyyyyyyyyyyyyyyyyyyyyyyyyyyyyyyyyyyyyyyyyyyyyy",
"yyyyyyyyyyyyyyyyyyyyyyyyyyyyyyyyyyyyyyyyyyyyyyyyyyyyyyyyyyyyyyyyyyyyyyyyyyy",
"yyyyyyyyyyyyyyyyyyyyyyyyyyyyyyyyyyyyyyyyyyyyyyyyyyyyyyyyyyyyyyyyyyyyyyyyyyy",
"yyyyyyyyyyyyyyyyyyyyyyyyyyyyyyyyyyyyyyyyyyyyyyyyyyyyyyyyyyyyyyyyyyyyyyyyyyy",
"yyyyyyyyyyyyyyyyyyyyyyyyyyyyyyyyyyyyyyyyyyyyyyyyyyyyyyyyyyyyyyyyyyyyyyyyyyy",
"yyyyyyyyyyyyyyyyyyyyyyyyyyyyyyyyyyyyyyyyyyyyyyyyyyyyyyyyyyyyyyyyyyyyyyyyyyy",
"yyyyyyyyyyyyyyyyyyyyyyyyyyyyyyyyyyyyyyyyyyyyyyyyyyyyyyyyyyyyyyyyyyyyyyyyyyy",
"yyyyyyyyyyyyyyyyyyyyyyyyyyyyyyyyyyyyyyyyyyyyyyyyyyyyyyyyyyyyyyyyyyyyyyyyyyy",
"yyyyyyyyyyyyyyyyyyyyyyyyyyyyyyyyyyyyyyyyyyyyyyyyyyyyyyyyyyyyyyyyyyyyyyyyyyy",
"yyyyyyyyyyyyyyyyyyyyyyyyyyyyyyyyyyyyyyyyyyyyyyyyyyyyyyyyyyyyyyyyyyyyyyyyyyy",
"yyyyyyyyyyyyyyyyyyyyyyyyyyyyyyyyyyyyyyyyyyyyyyyyyyyyyyyyyyyyyyyyyyyyyyyyyyy"
};
