/* XPM */
static char *result[] = {
/* columns rows colors chars-per-pixel */
"75 75 36 1 ",
"  c black",
". c #000001",
"X c #010206",
"o c #010309",
"O c #01050E",
"+ c #020A1B",
"@ c #071B49",
"# c #071C4C",
"$ c #071D4E",
"% c #071E52",
"& c #08225C",
"* c #0C338A",
"= c #0F3EA7",
"- c #0F3FA9",
"; c #0F3FAA",
": c #1040AC",
"> c #1041B1",
", c #1249C6",
"< c #1554E3",
"1 c #1658EF",
"2 c #1659EF",
"3 c #1659F0",
"4 c #1659F1",
"5 c #165AF4",
"6 c #175CF9",
"7 c #175EFD",
"8 c #175EFE",
"9 c #175EFF",
"0 c #175FFF",
"q c #1760FF",
"w c #1860FF",
"e c #1861FF",
"r c #1862FF",
"t c #1863FF",
"y c #1864FF",
"u c None",
/* pixels */
"uuuuuuuuuuuuuuuuuuuuuuuuuuuuuuuuuuuuuuuuuuuuuuuuuuuuuuuuuuuuuuuuuuuuuuuuuuu",
"uuuuuuuuuuuuuuuuuuuuuuuuuuuuuuuuuuuuuuuuuuuuuuuuuuuuuuuuuuuuuuuuuuuuuuuuuuu",
"uuuuuuuuuuuuuuuuuuuuuuuuuuuuuuuuuuuuuuuuuuuuuuuuuuuuuuuuuuuuuuuuuuuuuuuuuuu",
"uuuuuuuuuuuuuuuuuuuuuuuuuuuuuuuuuuuuuuuuuuuuuuuuuuuuuuuuuuuuuuuuuuuuuuuuuuu",
"uuuuuuuuuuuuuuuuuuuuuuuuuuuuuuuuuuuuuuuuuuuuuuuuuuuuuuuuuuuuuuuuuuuuuuuuuuu",
"uuuuuuuuuuuuuuuuuuuuuuuuuuuuuuuuuuuuuuuuuuuuuuuuuuuuuuuuuuuuuuuuuuuuuuuuuuu",
"uuuuuuuuuuuuuuuuuuuuuuuuuuuuuuuuuuuuuuuuuuuuuuuuuuuuuuuuuuuuuuuuuuuuuuuuuuu",
"uuuuuuuuuuuuuuuuuuuuuuuuuuuuuuuuuuuuuuuuuuuuuuuuuuuuuuuuuuuuuuuuuuuuuuuuuuu",
"uuuuuuuuuuuuuuuuuuuuuuuuuuuuuuuuuuuuuuuuuuuuuuuuuuuuuuuuuuuuuuuuuuuuuuuuuuu",
"uuuuuuuuuuuuuuuuuuuuuuuuuuuuuuuuuuuuuuuuuuuuuuuuuuuuuuuuuuuuuuuuuuuuuuuuuuu",
"uuuuuuuuuuuuuuuuuuuuuuuuuuuuuuuuuuuuuuuuuuuuuuuuuuuuuuuuuuuuuuuuuuuuuuuuuuu",
"uuuuuuuuuuuuuuuuuuuuuuuuuuuuuuuuuuuuuuuuuuuuuuuuuuuuuuuuuuuuuuuuuuuuuuuuuuu",
"uuuuuuuuuuuuuuuuuuuuuuuuuuuuuuuuuuuuuuuuuuuuuuuuuuuuuuuuuuuuuuuuuuuuuuuuuuu",
"uuuuuuuuuuuuuuuuuuuuuuuuuuuuuuuuuuuuuuuuuuuuuuuuuuuuuuuuuuuuuuuuuuuuuuuuuuu",
"uuuuuuuuuuuuuuuuuuuuuuuuuuuuuuuuuuuuuuuuuuuuuuuuuuuuuuuuuuuuuuuuuuuuuuuuuuu",
"uuuuuuuuuuuuuuuuuuuuuuuuuuuuuuuuuuuuuuuuuuuuuuuuuuuuuuuuuuuuuuuuuuuuuuuuuuu",
"uuuuuuuuuuuuuuuuuuuuuuuuuuuuuuuuuuuuuuuuuuuuuuuuuuuuuuuuuuuuuuuuuuuuuuuuuuu",
"uuuuuuuuuuuuuuuuuuuuuuuuuuuuuuuuuuuuuuuuuuuuuuuuuuuuuuuuuuuuuuuuuuuuuuuuuuu",
"uuuuuuuuuuuuuuuuuuuuuuuuuuuuuuuuuuuuuuuuuuuuuuuuuuuuuuuuuuuuuuuuuuuuuuuuuuu",
"uuuuuuuuuuuuuuuuuuuuuuuuuuuuuuuuuuuuuuuuuuuuuuuuuuuuuuuuuuuuuuuuuuuuuuuuuuu",
"uuuuuuuuuuuuuuuuuuuuuuuuuuuuuuuuuuuuuuuuuuuuuuuuuuuuuuuuuuuuuuuuuuuuuuuuuuu",
"uuuuuuuuuuuuuuuuuuuuuuuuuuuuuuuuuuuuuuuuuuuuuuuuuuuuuuuuuuuuuuuuuuuuuuuuuuu",
"uuuuuuuuuuuuuuuuuuuuuuuuuuuuuuuuuuuuuuuuuuuuuuuuuuuuuuuuuuuuuuuuuuuuuuuuuuu",
"uuuuuuuuuuuuuuuuuuuuuuuuuuuuuuuuuuuuuuuuuuuuuuuuuuuuuuuuuuuuuuuuuuuuuuuuuuu",
"uuuuuuuuuuuuuuuuuuuuuuuuuuuuuuuuuuuuuuuuuuuuuuuuuuuuuuuuuuuuuuuuuuuuuuuuuuu",
"uuuuuuuuuuuuuuuuuuuuuuuuuuuuuuuuuuuuuuuuuuuuuuuuuuuuuuuuuuuuuuuuuuuuuuuuuuu",
"uuuuuuuuuuuuuuuuuuuuuuuuuuuuuuuuuuuuuuuuuuuuuuuuuuuuuuuuuuuuuuuuuuuuuuuuuuu",
"uuuuuuuuuuuuuuuuuuuuuuuuuuuuuuuuuuuuuuuuuuuuuuuuuuuuuuuuuuuuuuuuuuuuuuuuuuu",
"uuuuuuuuuuuuuuuuuuuuuuuuuuuuuuuuuuuuuuuuuuuuuuuuuuuuuuuuuuuuuuuuuuuuuuuuuuu",
"uuuuuuuuuuuuuuuuuuuuuuuuuuuuuuuuuuuuuuuuuuuuuuuuuuuuuuuuuuuuuuuuuuuuuuuuuuu",
"uuuuuuuuuuuuuuuuuuuuuuuuu8888888888uuuuuuuuuuuuuu8888uuuuuuuuuuuuuuuuuuuuuu",
"uuuuuuuuuuuuuuuuuuuuuuuu888888888888uuuuuuuuuuuu888888uuuuuuuuuuuuuuuuuuuuu",
"uuuuuuuuuuuuuuuuuuuuuuuu888888888888uuuuuuuuuuuu888888uuuuuuuuuuuuuuuuuuuuu",
"uuuuuuuuuuuuuuuuuuuuuuuu888888888888uuuuuuuuuuuu888888uuuuuuuuuuuuuuuuuuuuu",
"uuuuuuuuuuuuuuuuuuuuuuuu888888888888uuuuuuuuuuuu888888uuuuuuuuuuuuuuuuuuuuu",
"uuuuuuuuuuuuuuuuuuuuuuuu8888888888888uuuuuuuuuuu8888888uuuuuuuuuuuuuuuuuuuu",
"uuuuuuuuuuuuu88888888888uuuuu888888888888uuuuuuu88888888888uuuuuuuuuuuuuuuu",
"uuuuuuuuuuuu888888888888uuuuuu888888888888uuuuuu888888888888uuuuuuuuuuuuuuu",
"uuuuuuuuuuuu888888888888uuuuuu888888888888uuuuuu888888888888uuuuuuuuuuuuuuu",
"uuuuuuuuuuuu888888888888uuuuuu888888888888uuuuuu888888888888uuuuuuuuuuuuuuu",
"uuuuuuuuuuuu888888888888uuuuuu888888888888uuuuuu888888888888uuuuuuuuuuuuuuu",
"uuuuuuuuuuuuu888888888888uuuu88888888888888uuuu8888888888888uuuuuuuuuuuuuuu",
"uuuuuuuuuuuuuuuuu8888888888888888888888888888888888888888888uuuuuuuuuuuuuuu",
"uuuuuuuuuuuuuuuuuu888888888888888888888888888888888888888888uuuuuuuuuuuuuuu",
"uuuuuuuuuuuuuuuuuu8888888888800qwwwwwwwwq00888800qwwq0088888uuuuuuuuuuuuuuu",
"uuuuuuuuuuuuuuuuuu888888888880weeeeeeeeeew088880weeeew088888uuuuuuuuuuuuuuu",
"uuuuuuuuuuuuuuuuuu888888888876542333333245679976541145678888uuuuuuuuuuuuuuu",
"uuuuuuuuuuuuuuuuu888888888006<,>-;::::;->,<6qq6<,>==>,<60088uuuuuuuuuuuuuuu",
"uuuuuuuuuuuuu88888888888880w5,*&#$%%%%$#&*,5rr5,*&@@&*,5w088uuuuuuuuuuuuuuu",
"uuuuuuuuuuuu88888888888888qe4>&+XoOOOOoX+&>4tt4>&+..+&>4eq88uuuuuuuuuuuuuuu",
"uuuuuuuuuuuu88888888888888we1=@.        .@=1yy1=@.  .@=1ew88uuuuuuuuuuuuuuu",
"uuuuuuuuuuuu88888888888888we1=@.        .@=1yy1=@.  .@=1ew88uuuuuuuuuuuuuuu",
"uuuuuuuuuuuu88888888888888qe4>&+XoOOOOoX+&>4tt4>&+..+&>4eq88uuuuuuuuuuuuuuu",
"uuuuuuuuuuuu888888888888880w5,*&#$%%%%$#&*,5rr5,*&@@&*,5w088uuuuuuuuuuuuuuu",
"uuuuuuuuuuuu8888888uuuu888006<,>-;::::;->,<6qq6<,>==>,<60088uuuuuuuuuuuuuuu",
"uuuuuuuuuuuu888888uuuuuu888876542333333245679976541145678888uuuuuuuuuuuuuuu",
"uuuuuuuuuuuu888888uuuuuu888880weeeeeeeeeew088880weeeew088888uuuuuuuuuuuuuuu",
"uuuuuuuuuuuu888888uuuuuu8888800qwwwwwwwwq00888800qwwq0088888uuuuuuuuuuuuuuu",
"uuuuuuuuuuuu888888uuuuuu888888888888888888888888888888888888uuuuuuuuuuuuuuu",
"uuuuuuuuuuuuu8888uuuuuuuu8888888888888888888888888888888888uuuuuuuuuuuuuuuu",
"uuuuuuuuuuuuuuuuuuuuuuuuuuuuuuuuuuuuuuuuuuuuuuuuuuuuuuuuuuuuuuuuuuuuuuuuuuu",
"uuuuuuuuuuuuuuuuuuuuuuuuuuuuuuuuuuuuuuuuuuuuuuuuuuuuuuuuuuuuuuuuuuuuuuuuuuu",
"uuuuuuuuuuuuuuuuuuuuuuuuuuuuuuuuuuuuuuuuuuuuuuuuuuuuuuuuuuuuuuuuuuuuuuuuuuu",
"uuuuuuuuuuuuuuuuuuuuuuuuuuuuuuuuuuuuuuuuuuuuuuuuuuuuuuuuuuuuuuuuuuuuuuuuuuu",
"uuuuuuuuuuuuuuuuuuuuuuuuuuuuuuuuuuuuuuuuuuuuuuuuuuuuuuuuuuuuuuuuuuuuuuuuuuu",
"uuuuuuuuuuuuuuuuuuuuuuuuuuuuuuuuuuuuuuuuuuuuuuuuuuuuuuuuuuuuuuuuuuuuuuuuuuu",
"uuuuuuuuuuuuuuuuuuuuuuuuuuuuuuuuuuuuuuuuuuuuuuuuuuuuuuuuuuuuuuuuuuuuuuuuuuu",
"uuuuuuuuuuuuuuuuuuuuuuuuuuuuuuuuuuuuuuuuuuuuuuuuuuuuuuuuuuuuuuuuuuuuuuuuuuu",
"uuuuuuuuuuuuuuuuuuuuuuuuuuuuuuuuuuuuuuuuuuuuuuuuuuuuuuuuuuuuuuuuuuuuuuuuuuu",
"uuuuuuuuuuuuuuuuuuuuuuuuuuuuuuuuuuuuuuuuuuuuuuuuuuuuuuuuuuuuuuuuuuuuuuuuuuu",
"uuuuuuuuuuuuuuuuuuuuuuuuuuuuuuuuuuuuuuuuuuuuuuuuuuuuuuuuuuuuuuuuuuuuuuuuuuu",
"uuuuuuuuuuuuuuuuuuuuuuuuuuuuuuuuuuuuuuuuuuuuuuuuuuuuuuuuuuuuuuuuuuuuuuuuuuu",
"uuuuuuuuuuuuuuuuuuuuuuuuuuuuuuuuuuuuuuuuuuuuuuuuuuuuuuuuuuuuuuuuuuuuuuuuuuu",
"uuuuuuuuuuuuuuuuuuuuuuuuuuuuuuuuuuuuuuuuuuuuuuuuuuuuuuuuuuuuuuuuuuuuuuuuuuu",
"uuuuuuuuuuuuuuuuuuuuuuuuuuuuuuuuuuuuuuuuuuuuuuuuuuuuuuuuuuuuuuuuuuuuuuuuuuu"
};
