/* XPM */
static char *result[] = {
/* columns rows colors chars-per-pixel */
"75 75 49 1 ",
"  c black",
". c #010101",
"X c gray2",
"o c #060606",
"O c #070707",
"+ c #090909",
"@ c gray4",
"# c gray5",
"$ c #0E0E0E",
"% c gray6",
"& c #1B1B1B",
"* c gray11",
"= c gray22",
"- c #494949",
"; c gray30",
": c #4E4E4E",
"> c gray31",
", c #515151",
"< c gray32",
"1 c gray33",
"2 c #555555",
"3 c gray34",
"4 c gray36",
"5 c gray46",
"6 c gray54",
"7 c gray64",
"8 c gray66",
"9 c #AAAAAA",
"0 c gray67",
"q c gray68",
"w c #AEAEAE",
"e c gray69",
"r c #B1B1B1",
"t c #B2B2B2",
"y c #B6B6B6",
"u c gray78",
"i c gray89",
"p c #E4E4E4",
"a c gray94",
"s c #F1F1F1",
"d c gray95",
"f c gray96",
"g c #F6F6F6",
"h c #F8F8F8",
"j c #F9F9F9",
"k c gray98",
"l c #FEFEFE",
"z c white",
"x c None",
/* pixels */
"zzzzzzzzzzsq<$                                                          xxx",
"zzzzzzzzzzsq<$                                                          xxx",
"zzzzzzzzzzsq<$                                                          xxx",
"zzzzzzzzzzsq<$                                                          xxx",
"zzzzzzzzzzsq<$  .X@#%$$$$$$$$$$$$%#@X.  .X@#%$$$$$$%#@X.  .X@#%$$$$$$$$$xxx",
"zzzzzzzzzzsq<$  X&=:21<<<<<<<<<<12:=&X  X&=:21<<<<12:=&X  X&=:21<<<<<<<<xxx",
"zzzzzzzzzzsq<$  @=57trqqqqqqqqqqrt75=@  @=57trqqqqrt75=@  @=57trqqqqqqqqxxx",
"zzzzzzzzzzsq<$  #:7ijgssssssssssgji7:#  #:7ijgssssgji7:#  #:7ijgssssssssxxx",
"zzzzzzzzzzsq<$  %3ylzzzzzzzzzzzzzzly3%  %3ylzzzzzzzzly3%  %3ylzzzzzzzzzzxxx",
"zzzzzzzzzzsq<$  %3ylzzzzzzzzzzzzzzly3%  %3ylzzzzzzzzly3%  %3ylzzzzzzzzzzxxx",
"zzzzzzzzzzsq<$  #:7ijgssssssssssgji7:#  #:7ijgssssgji7:#  #:7ijgssssssssxxx",
"zzzzzzzzzzsq<$  @=57trqqqqqqqqqqrt75=@  @=57trqqqqrt75=@  @=57trqqqqqqqqxxx",
"zzzzzzzzzzsq<$  X&=:21<<<<<<<<<<12:=&X  X&=:21<<<<12:=&X  X&=:21<<<<<<<<xxx",
"zzzzzzzzzzsq<$  .X@#%$$$$$$$$$$$$%#@X.  .X@#%$$$$$$%#@X.  .X@#%$$$$$$$$$xxx",
"zzzzzzzzzzsq<$                                                          xxx",
"zzzzzzzzzzsq<$                                                          xxx",
"zzzzzzzzzzsq<$  .X@#%$$$$$$%#@X.  .X@#%$$$$$$%#@X.  .X@#%$$$$$$$$$$$$$$$xxx",
"zzzzzzzzzzsq<$  X&=:21<<<<12:=&X  X&=:21<<<<12:=&X  X&=:21<<<<<<<<<<<<<<xxx",
"zzzzzzzzzzsq<$  @=57trqqqqrt75=@  @=57trqqqqrt75=@  @=57trqqqqqqqqqqqqqqxxx",
"zzzzzzzzzzsq<$  #:7ijgssssgji7:#  #:7ijgssssgji7:#  #:7ijgssssssssssssssxxx",
"zzzzzzzzzzgr1$  %3ylzzzzzzzzly3%  %3ylzzzzzzzzly3%  %3ylzzzzzzzzzzzzzzzzxxx",
"zzzzzzzzzzjt2%  %3ylzzzzzzzzly3%  %3ylzzzzzzzzly3%  %3ylzzzzzzzzzzzzzzzzxxx",
"zzzzlkfdghi7:#  #:7ijgssssgji7:#  #:7ijgssssgji7:#  #:7ijgssssssssssssssxxx",
"zzzzkpurwe75=@  @=57trqqqqrt75=@  @=57trqqqqrt75=@  @=57trqqqqqqqqqqqqqqxxx",
"zzzzfu64>,:=&X  X&=:21<<<<12:=&X  X&=:21<<<<12:=&X  X&=:21<<<<<<<<<<<<<<xxx",
"zzzzdr4*O+#@X.  .X@#%$$$$$$%#@X.  .X@#%$$$$$$%#@X.  .X@#%$$$$$$$$$$$$$$$xxx",
"zzzza9;o      ..                                  ..                    xxx",
"zzzzs0:+      ..                                  ..                    xxx",
"zzzzsq<$        .X@#%$$$$$$$$$$$$%#@X.  .X@#%%#@X.  .X@#%%#@X.  .X@#%$$$xxx",
"zzzzsq<$        X&=:21<<<<<<<<<<12:=&X  X&=:33:=&X  X&=:33:=&X  X&=:21<<xxx",
"zzzzsq<$        @=57trqqqqqqqqqqrt75=@  @=57yy75=@  @=57yy75=@  @=57teqqxxx",
"zzzzsq<$        #:7ijgssssssssssgji7:#  #:7illi7:#  #:7illi7:#  #:7ijgssxxx",
"zzzzs0:+        %2tjzzzzzzzzzzzzzzhe,+  +,ehzzjt2%  %2tjzzhe,+  +,ehzzzzxxx",
"zzzza9;o        $1rgzzzzzzzzzzzzzzgw>O  O>wgzzgr1$  $1rgzzgw>O  O>wgzzzzxxx",
"zzzzdr4*O+#@X.  $<qszzlkfdaadfklzzdr4*..*4rdzzsq<$  $<qszzdr4*..*4rdzzzzxxx",
"zzzzfu64>,:=&X  $<qszzkpur88rupkzzfu64--46ufzzsq<$  $<qszzfu64--46ufzzzzxxx",
"zzzzkpurwe75=@  $<qszzfu64--46ufzzkpur88rupkzzsq<$  $<qszzkpur88rupkzzzzxxx",
"zzzzlkfdghi7:#  $<qszzdr4*..*4rdzzlkfdaadfklzzsq<$  $<qszzlkfdaadfklzzzzxxx",
"zzzzzzzzzzjt2%  $1rgzzgw>O  O>wgzzzzzzzzzzzzzzgr1$  $1rgzzzzzzzzzzzzzzzzxxx",
"zzzzzzzzzzgr1$  %2tjzzhe,+  +,ehzzzzzzzzzzzzzzjt2%  %2tjzzzzzzzzzzzzzzzzxxx",
"zzzzzzzzzzsq<$  #:7illi7:#  #:7ijgssssssssssgji7:#  #:7ijgssssssssssssssxxx",
"zzzzzzzzzzsq<$  @=57yy75=@  @=57trqqqqqqqqqqrt75=@  @=57trqqqqqqqqqqqqqqxxx",
"zzzzzzzzzzsq<$  X&=:33:=&X  X&=:21<<<<<<<<<<12:=&X  X&=:21<<<<<<<<<<<<<<xxx",
"zzzzzzzzzzsq<$  .X@#%%#@X.  .X@#%$$$$$$$$$$$$%#@X.  .X@#%$$$$$$$$$$$$$$$xxx",
"zzzzzzzzzzgr1$                                                          xxx",
"zzzzzzzzzzjt2%                                                          xxx",
"zzzzlkfdghi7:#  .X@#%$$$$$$%#@X.  .X@#%$$$$$$$$$$$$%#@X.  .X@#%%#@X.    xxx",
"zzzzkpurwe75=@  X&=:21<<<<12:=&X  X&=:21<<<<<<<<<<12:=&X  X&=:33:=&X    xxx",
"zzzzfu64>,:=&X  @=57trqqqqrt75=@  @=57trqqqqqqqqqqrt75=@  @=57yy75=@    xxx",
"zzzzdr4*O+#@X.  #:7ijgssssgji7:#  #:7ijgssssssssssgji7:#  #:7illi7:#    xxx",
"zzzza8-.        %3ylzzzzzzzzly3%  %3ylzzzzzzzzzzzzzzly3%  %3ylzzly3%    xxx",
"zzzza8-.        %3ylzzzzzzzzly3%  %3ylzzzzzzzzzzzzzzly3%  %3ylzzly3%    xxx",
"zzzzdr4*O+#@X.  #:7ijgssssgji7:#  #:7ijgssssssssssgji7:#  #:7illi7:#    xxx",
"zzzzfu64>,:=&X  @=57trqqqqrt75=@  @=57trqqqqqqqqqqrt75=@  @=57yy75=@    xxx",
"zzzzkpurwe75=@  X&=:21<<<<12:=&X  X&=:21<<<<<<<<<<12:=&X  X&=:33:=&X    xxx",
"zzzzlkfdghi7:#  .X@#%$$$$$$%#@X.  .X@#%$$$$$$$$$$$$%#@X.  .X@#%%#@X.    xxx",
"zzzzzzzzzzhe,+                                                          xxx",
"zzzzzzzzzzgw>O                                                          xxx",
"zzzzzzzzzzdr4*o+$$$$$$$$$$$$$$$$$%#@X.        .X@#%$$$$$$$$$$$$%#@X.    xxx",
"zzzzzzzzzzfu64;:<<<<<<<<<<<<<<<<12:=&X        X&=:21<<<<<<<<<<12:=&X    xxx",
"zzzzzzzzzzkpur90qqqqqqqqqqqqqqqqrt75=@        @=57trqqqqqqqqqqrt75=@    xxx",
"zzzzzzzzzzlkfdasssssssssssssssssgji7:#        #:7ijgssssssssssgji7:#    xxx",
"zzzzzzzzzzzzzzzzzzzzzzzzzzzzzzzzzzhe,+        +,ehzzzzzzzzzzzzzzhe,+    xxx",
"zzzzzzzzzzzzzzzzzzzzzzzzzzzzzzzzzzgw>O        O>wgzzzzzzzzzzzzzzgw>O    xxx",
"zzzzzzzzzzzzzzzzzzzzzzzzzzzzzzzzzzdr4*o+$$$$+o*4rdzzzzzzzzzzzzzzdr4*o+$$xxx",
"zzzzzzzzzzzzzzzzzzzzzzzzzzzzzzzzzzfu64;:<<<<:;46ufzzzzzzzzzzzzzzfu64;><<xxx",
"zzzzzzzzzzzzzzzzzzzzzzzzzzzzzzzzzzkpur90qqqq09rupkzzzzzzzzzzzzzzkpur90qqxxx",
"zzzzzzzzzzzzzzzzzzzzzzzzzzzzzzzzzzlkfdassssssadfklzzzzzzzzzzzzzzlkfdasssxxx",
"zzzzzzzzzzzzzzzzzzzzzzzzzzzzzzzzzzzzzzzzzzzzzzzzzzzzzzzzzzzzzzzzzzzzzzzzxxx",
"zzzzzzzzzzzzzzzzzzzzzzzzzzzzzzzzzzzzzzzzzzzzzzzzzzzzzzzzzzzzzzzzzzzzzzzzxxx",
"zzzzzzzzzzzzzzzzzzzzzzzzzzzzzzzzzzzzzzzzzzzzzzzzzzzzzzzzzzzzzzzzzzzzzzzzxxx",
"zzzzzzzzzzzzzzzzzzzzzzzzzzzzzzzzzzzzzzzzzzzzzzzzzzzzzzzzzzzzzzzzzzzzzzzxxxx",
"xxxxxxxxxxxxxxxxxxxxxxxxxxxxxxxxxxxxxxxxxxxxxxxxxxxxxxxxxxxxxxxxxxxxxxxxxxx",
"xxxxxxxxxxxxxxxxxxxxxxxxxxxxxxxxxxxxxxxxxxxxxxxxxxxxxxxxxxxxxxxxxxxxxxxxxxx",
"xxxxxxxxxxxxxxxxxxxxxxxxxxxxxxxxxxxxxxxxxxxxxxxxxxxxxxxxxxxxxxxxxxxxxxxxxxx"
};
