/* XPM */
static char *result[] = {
/* columns rows colors chars-per-pixel */
"75 75 49 1 ",
"  c black",
". c #010101",
"X c gray2",
"o c #060606",
"O c #070707",
"+ c #090909",
"@ c gray4",
"# c gray5",
"$ c #0E0E0E",
"% c gray6",
"& c #1B1B1B",
"* c gray11",
"= c gray22",
"- c #494949",
"; c gray30",
": c #4E4E4E",
"> c gray31",
", c #515151",
"< c gray32",
"1 c gray33",
"2 c #555555",
"3 c gray34",
"4 c gray36",
"5 c gray46",
"6 c gray54",
"7 c gray64",
"8 c gray66",
"9 c #AAAAAA",
"0 c gray67",
"q c gray68",
"w c #AEAEAE",
"e c gray69",
"r c #B1B1B1",
"t c #B2B2B2",
"y c #B6B6B6",
"u c gray78",
"i c gray89",
"p c #E4E4E4",
"a c gray94",
"s c #F1F1F1",
"d c gray95",
"f c gray96",
"g c #F6F6F6",
"h c #F8F8F8",
"j c #F9F9F9",
"k c gray98",
"l c #FEFEFE",
"z c white",
"x c None",
/* pixels */
"                                                                $<qszzzzxxx",
"                                                                $<qszzzzxxx",
"                                                                +>0szzzzxxx",
"                                                                o;9azzzzxxx",
"    .X@#%$$$$$$%#@X.  .X@#%%#@X.  .X@#%$$$$$$$$$$$$%#@X.  .X@#+O*4rdzzzzxxx",
"    X&=:21<<<<12:=&X  X&=:33:=&X  X&=:21<<<<<<<<<<12:=&X  X&=:,>46ufzzzzxxx",
"    @=57trqqqqrt75=@  @=57yy75=@  @=57trqqqqqqqqqqrt75=@  @=57ewrupkzzzzxxx",
"    #:7ijgssssgji7:#  #:7illi7:#  #:7ijgssssssssssgji7:#  #:7ihgdfklzzzzxxx",
"    %3ylzzzzzzzzly3%  %3ylzzly3%  %3ylzzzzzzzzzzzzzzly3%  %2tjzzzzzzzzzzxxx",
"    %3ylzzzzzzzzly3%  %3ylzzly3%  %3ylzzzzzzzzzzzzzzly3%  $1rgzzzzzzzzzzxxx",
"    #:7ijgssssgji7:#  #:7illi7:#  #:7ijgssssssssssgji7:#  $<qszzzzzzzzzzxxx",
"    @=57trqqqqrt75=@  @=57yy75=@  @=57trqqqqqqqqqqrt75=@  $<qszzzzzzzzzzxxx",
"    X&=:21<<<<12:=&X  X&=:33:=&X  X&=:21<<<<<<<<<<12:=&X  $<qszzzzzzzzzzxxx",
"    .X@#%$$$$$$%#@X.  .X@#%%#@X.  .X@#%$$$$$$$$$$$$%#@X.  $<qszzzzzzzzzzxxx",
"                                                          $<qszzzzzzzzzzxxx",
"                                                          $<qszzzzzzzzzzxxx",
"$$$$$$$$$%#@X.  .X@#%$$$$$$$$$$$$$$$$$$%#@X.  .X@#%%#@X.  $<qszzzzzzzzzzxxx",
"<<<<<<<<12:=&X  X&=:21<<<<<<<<<<<<<<<<12:=&X  X&=:33:=&X  $<qszzzzzzzzzzxxx",
"qqqqqqqqrt75=@  @=57trqqqqqqqqqqqqqqqqrt75=@  @=57yy75=@  $<qszzzzzzzzzzxxx",
"ssssssssgji7:#  #:7ijgssssssssssssssssgji7:#  #:7illi7:#  $<qszzzzzzzzzzxxx",
"zzzzzzzzzzly3%  %3ylzzzzzzzzzzzzzzzzzzzzly3%  %3ylzzly3%  $1rgzzzzzzzzzzxxx",
"zzzzzzzzzzly3%  %3ylzzzzzzzzzzzzzzzzzzzzly3%  %3ylzzly3%  %2tjzzzzzzzzzzxxx",
"ssssssssgji7:#  #:7ijgssssssssssssssssgji7:#  #:7illi7:#  #:7ihgdfklzzzzxxx",
"qqqqqqqqrt75=@  @=57trqqqqqqqqqqqqqqqqrt75=@  @=57yy75=@  @=57ewrupkzzzzxxx",
"<<<<<<<<12:=&X  X&=:21<<<<<<<<<<<<<<<<12:=&X  X&=:33:=&X  X&=:,>46ufzzzzxxx",
"$$$$$$$$$%#@X.  .X@#%$$$$$$$$$$$$$$$$$$%#@X.  .X@#%%#@X.  .X@#+O*4rdzzzzxxx",
"              ..                            ..          ..      .-8azzzzxxx",
"              ..                            ..          ..      .-8azzzzxxx",
"$$$$$$$$$%#@X.        .X@#%$$$$$$$$$$$$%#@X.  .X@#%%#@X.  .X@#+O*4rdzzzzxxx",
"<<<<<<<<12:=&X        X&=:21<<<<<<<<<<12:=&X  X&=:33:=&X  X&=:,>46ufzzzzxxx",
"qqqqqqqqrt75=@        @=57trqqqqqqqqqqrt75=@  @=57yy75=@  @=57ewrupkzzzzxxx",
"ssssssssgji7:#        #:7ijgssssssssssgji7:#  #:7illi7:#  #:7ihgdfklzzzzxxx",
"zzzzzzzzzzjt2%        +,ehzzzzzzzzzzzzzzhe,+  +,ehzzjt2%  %3ylzzzzzzzzzzxxx",
"zzzzzzzzzzgr1$        O>wgzzzzzzzzzzzzzzgw>O  O>wgzzgr1$  %3ylzzzzzzzzzzxxx",
"zzzzzzzzzzsq<$  .X@#+O*4rdzzlkfdaadfklzzdr4*..*4rdzzsq<$  #:7ihgdfklzzzzxxx",
"zzzzzzzzzzsq<$  X&=:,>46ufzzkpur88rupkzzfu64--46ufzzsq<$  @=57ewrupkzzzzxxx",
"zzzzzzzzzzsq<$  @=57ewrupkzzfu64--46ufzzkpur88rupkzzsq<$  X&=:,>46ufzzzzxxx",
"zzzzzzzzzzsq<$  #:7ihgdfklzzdr4*..*4rdzzlkfdaadfklzzsq<$  .X@#+O*4rdzzzzxxx",
"zzzzzzzzzzgr1$  %3ylzzzzzzzzgw>O  O>wgzzzzzzzzzzzzzzgr1$        o;9azzzzxxx",
"zzzzzzzzzzjt2%  %3ylzzzzzzzzhe,+  +,ehzzzzzzzzzzzzzzjt2%        +:0szzzzxxx",
"ssssssssgji7:#  #:7ijgssssgji7:#  #:7ijgssssssssssgji7:#        $<qszzzzxxx",
"qqqqqqqqrt75=@  @=57trqqqqrt75=@  @=57trqqqqqqqqqqrt75=@        $<qszzzzxxx",
"<<<<<<<<12:=&X  X&=:21<<<<12:=&X  X&=:21<<<<<<<<<<12:=&X        $<qszzzzxxx",
"$$$$$$$$$%#@X.  .X@#%$$$$$$%#@X.  .X@#%$$$$$$$$$$$$%#@X.        $<qszzzzxxx",
"                                                        ..      +:0szzzzxxx",
"                                                        ..      o;9azzzzxxx",
"    .X@#%$$$$$$%#@X.  .X@#%$$$$$$$$$$$$%#@X.  .X@#%%#@X.  .X@#+O*4rdzzzzxxx",
"    X&=:21<<<<12:=&X  X&=:21<<<<<<<<<<12:=&X  X&=:33:=&X  X&=:,>46ufzzzzxxx",
"    @=57trqqqqrt75=@  @=57trqqqqqqqqqqrt75=@  @=57yy75=@  @=57ewrupkzzzzxxx",
"    #:7ijgssssgji7:#  #:7ijgssssssssssgji7:#  #:7illi7:#  #:7ihgdfklzzzzxxx",
"    %3ylzzzzzzzzly3%  %3ylzzzzzzzzzzzzzzly3%  %3ylzzly3%  %2tjzzzzzzzzzzxxx",
"    %3ylzzzzzzzzly3%  %3ylzzzzzzzzzzzzzzly3%  %3ylzzly3%  $1rgzzzzzzzzzzxxx",
"    #:7ijgssssgji7:#  #:7ijgssssssssssgji7:#  #:7illi7:#  $<qszzzzzzzzzzxxx",
"    @=57trqqqqrt75=@  @=57trqqqqqqqqqqrt75=@  @=57yy75=@  $<qszzzzzzzzzzxxx",
"    X&=:21<<<<12:=&X  X&=:21<<<<<<<<<<12:=&X  X&=:33:=&X  $<qszzzzzzzzzzxxx",
"    .X@#%$$$$$$%#@X.  .X@#%$$$$$$$$$$$$%#@X.  .X@#%%#@X.  $<qszzzzzzzzzzxxx",
"                                                          $<qszzzzzzzzzzxxx",
"                                                          $<qszzzzzzzzzzxxx",
"    .X@#%$$$$$$$$$$$$$$$$$$%#@X.        .X@#%$$$$$$%#@X.  $<qszzzzzzzzzzxxx",
"    X&=:21<<<<<<<<<<<<<<<<12:=&X        X&=:21<<<<12:=&X  $<qszzzzzzzzzzxxx",
"    @=57trqqqqqqqqqqqqqqqqrt75=@        @=57trqqqqrt75=@  $<qszzzzzzzzzzxxx",
"    #:7ijgssssssssssssssssgji7:#        #:7ijgssssgji7:#  $<qszzzzzzzzzzxxx",
"    +,ehzzzzzzzzzzzzzzzzzzzzhe,+        +,ehzzzzzzzzhe,+  +:0szzzzzzzzzzxxx",
"    O>wgzzzzzzzzzzzzzzzzzzzzgw>O        O>wgzzzzzzzzgw>O  o;9azzzzzzzzzzxxx",
"$$+o*4rdzzzzzzzzzzzzzzzzzzzzdr4*o+$$$$+o*4rdzzzzzzzzdr4*..*4rdzzzzzzzzzzxxx",
"<<>;46ufzzzzzzzzzzzzzzzzzzzzfu64;:<<<<:;46ufzzzzzzzzfu64--46ufzzzzzzzzzzxxx",
"qq09rupkzzzzzzzzzzzzzzzzzzzzkpur90qqqq09rupkzzzzzzzzkpur88rupkzzzzzzzzzzxxx",
"sssadfklzzzzzzzzzzzzzzzzzzzzlkfdassssssadfklzzzzzzzzlkfdaadfklzzzzzzzzzzxxx",
"zzzzzzzzzzzzzzzzzzzzzzzzzzzzzzzzzzzzzzzzzzzzzzzzzzzzzzzzzzzzzzzzzzzzzzzzxxx",
"zzzzzzzzzzzzzzzzzzzzzzzzzzzzzzzzzzzzzzzzzzzzzzzzzzzzzzzzzzzzzzzzzzzzzzzzxxx",
"zzzzzzzzzzzzzzzzzzzzzzzzzzzzzzzzzzzzzzzzzzzzzzzzzzzzzzzzzzzzzzzzzzzzzzzzxxx",
"zzzzzzzzzzzzzzzzzzzzzzzzzzzzzzzzzzzzzzzzzzzzzzzzzzzzzzzzzzzzzzzzzzzzzzzxxxx",
"xxxxxxxxxxxxxxxxxxxxxxxxxxxxxxxxxxxxxxxxxxxxxxxxxxxxxxxxxxxxxxxxxxxxxxxxxxx",
"xxxxxxxxxxxxxxxxxxxxxxxxxxxxxxxxxxxxxxxxxxxxxxxxxxxxxxxxxxxxxxxxxxxxxxxxxxx",
"xxxxxxxxxxxxxxxxxxxxxxxxxxxxxxxxxxxxxxxxxxxxxxxxxxxxxxxxxxxxxxxxxxxxxxxxxxx"
};
