/* XPM */
static char *result[] = {
/* columns rows colors chars-per-pixel */
"75 75 49 1 ",
"  c black",
". c #010101",
"X c gray2",
"o c #060606",
"O c #070707",
"+ c #090909",
"@ c gray4",
"# c gray5",
"$ c #0E0E0E",
"% c gray6",
"& c #1B1B1B",
"* c gray11",
"= c gray22",
"- c #494949",
"; c gray30",
": c #4E4E4E",
"> c gray31",
", c #515151",
"< c gray32",
"1 c gray33",
"2 c #555555",
"3 c gray34",
"4 c gray36",
"5 c gray46",
"6 c gray54",
"7 c gray64",
"8 c gray66",
"9 c #AAAAAA",
"0 c gray67",
"q c gray68",
"w c #AEAEAE",
"e c gray69",
"r c #B1B1B1",
"t c #B2B2B2",
"y c #B6B6B6",
"u c gray78",
"i c gray89",
"p c #E4E4E4",
"a c gray94",
"s c #F1F1F1",
"d c gray95",
"f c gray96",
"g c #F6F6F6",
"h c #F8F8F8",
"j c #F9F9F9",
"k c gray98",
"l c #FEFEFE",
"z c white",
"x c None",
/* pixels */
"zzzzzzzzzzzzzzzzzzzzzzzzzzzzzzzzzzzzzzzzzzzzzzzzzzzzzzzzzzzzzzzzzzzzzzzzxxx",
"zzzzzzzzzzzzzzzzzzzzzzzzzzzzzzzzzzzzzzzzzzzzzzzzzzzzzzzzzzzzzzzzzzzzzzzzxxx",
"zzzzzzzzzzzzzzzzzzzzzzzzzzzzzzzzzzzzzzzzzzzzzzzzzzzzzzzzzzzzzzzzzzzzzzzzxxx",
"zzzzzzzzzzzzzzzzzzzzzzzzzzzzzzzzzzzzzzzzzzzzzzzzzzzzzzzzzzzzzzzzzzzzzzzzxxx",
"zzzzzzzzzzzzzzzzzzzzzzlkfdassssssadfklzzlkfdaadfklzzzzzzzzzzzzzzlkfdasssxxx",
"zzzzzzzzzzzzzzzzzzzzzzkpur90qqqq09rupkzzkpur88rupkzzzzzzzzzzzzzzkpur90qqxxx",
"zzzzzzzzzzzzzzzzzzzzzzfu64;:<<<<:;46ufzzfu64--46ufzzzzzzzzzzzzzzfu64;><<xxx",
"zzzzzzzzzzzzzzzzzzzzzzdr4*o+$$$$+o*4rdzzdr4*..*4rdzzzzzzzzzzzzzzdr4*o+$$xxx",
"zzzzzzzzzzzzzzzzzzzzzzgw>O        O>wgzzgw>O  O>wgzzzzzzzzzzzzzzgw>O    xxx",
"zzzzzzzzzzzzzzzzzzzzzzhe,+        +,ehzzhe,+  +,ehzzzzzzzzzzzzzzhe,+    xxx",
"zzzzzzzzzzlkfdasssssgji7:#        #:7illi7:#  #:7ijgssssssssssgji7:#    xxx",
"zzzzzzzzzzkpur90qqqqrt75=@        @=57yy75=@  @=57trqqqqqqqqqqrt75=@    xxx",
"zzzzzzzzzzfu64;:<<<<12:=&X        X&=:33:=&X  X&=:21<<<<<<<<<<12:=&X    xxx",
"zzzzzzzzzzdr4*o+$$$$$%#@X.        .X@#%%#@X.  .X@#%$$$$$$$$$$$$%#@X.    xxx",
"zzzzzzzzzza9;o            ..                                            xxx",
"zzzzzzzzzzs0:+            ..                                            xxx",
"zzzzzzzzzzsq<$  .X@#%%#@X.  .X@#%$$$$$$$$$$$$%#@X.  .X@#%$$$$$$%#@X.    xxx",
"zzzzzzzzzzsq<$  X&=:33:=&X  X&=:21<<<<<<<<<<12:=&X  X&=:21<<<<12:=&X    xxx",
"zzzzzzzzzzsq<$  @=57yy75=@  @=57trqqqqqqqqqqrt75=@  @=57trqqqqrt75=@    xxx",
"zzzzzzzzzzsq<$  #:7illi7:#  #:7ijgssssssssssgji7:#  #:7ijgssssgji7:#    xxx",
"zzzzzzzzzzgr1$  %3ylzzly3%  %3ylzzzzzzzzzzzzzzly3%  %3ylzzzzzzzzly3%    xxx",
"zzzzzzzzzzjt2%  %3ylzzly3%  %3ylzzzzzzzzzzzzzzly3%  %3ylzzzzzzzzly3%    xxx",
"zzzzlkfdghi7:#  #:7illi7:#  #:7ijgssssssssssgji7:#  #:7ijgssssgji7:#    xxx",
"zzzzkpurwe75=@  @=57yy75=@  @=57trqqqqqqqqqqrt75=@  @=57trqqqqrt75=@    xxx",
"zzzzfu64>,:=&X  X&=:33:=&X  X&=:21<<<<<<<<<<12:=&X  X&=:21<<<<12:=&X    xxx",
"zzzzdr4*O+#@X.  .X@#%%#@X.  .X@#%$$$$$$$$$$$$%#@X.  .X@#%$$$$$$%#@X.    xxx",
"zzzza9;o      ..                                                        xxx",
"zzzzs0:+      ..                                                        xxx",
"zzzzsq<$        .X@#%$$$$$$$$$$$$%#@X.  .X@#%$$$$$$%#@X.  .X@#%$$$$$$$$$xxx",
"zzzzsq<$        X&=:21<<<<<<<<<<12:=&X  X&=:21<<<<12:=&X  X&=:21<<<<<<<<xxx",
"zzzzsq<$        @=57trqqqqqqqqqqrt75=@  @=57trqqqqrt75=@  @=57trqqqqqqqqxxx",
"zzzzsq<$        #:7ijgssssssssssgji7:#  #:7ijgssssgji7:#  #:7ijgssssssssxxx",
"zzzzs0:+        %2tjzzzzzzzzzzzzzzhe,+  +,ehzzzzzzzzly3%  %2tjzzzzzzzzzzxxx",
"zzzza9;o        $1rgzzzzzzzzzzzzzzgw>O  O>wgzzzzzzzzly3%  $1rgzzzzzzzzzzxxx",
"zzzzdr4*O+#@X.  $<qszzlkfdaadfklzzdr4*..*4rdzzlkfdghi7:#  $<qszzzzzzzzzzxxx",
"zzzzfu64>,:=&X  $<qszzkpur88rupkzzfu64--46ufzzkpurwe75=@  $<qszzzzzzzzzzxxx",
"zzzzkpurwe75=@  $<qszzfu64--46ufzzkpur88rupkzzfu64>,:=&X  $<qszzzzzzzzzzxxx",
"zzzzlkfdghi7:#  $<qszzdr4*..*4rdzzlkfdaadfklzzdr4*O+#@X.  $<qszzzzzzzzzzxxx",
"zzzzzzzzzzjt2%  $1rgzzgw>O  O>wgzzzzzzzzzzzzzzgw>O        $1rgzzzzzzzzzzxxx",
"zzzzzzzzzzgr1$  %2tjzzhe,+  +,ehzzzzzzzzzzzzzzhe,+        %2tjzzzzzzzzzzxxx",
"zzzzzzzzzzsq<$  #:7illi7:#  #:7ijgssssssssssgji7:#        #:7ijgssssssssxxx",
"zzzzzzzzzzsq<$  @=57yy75=@  @=57trqqqqqqqqqqrt75=@        @=57trqqqqqqqqxxx",
"zzzzzzzzzzsq<$  X&=:33:=&X  X&=:21<<<<<<<<<<12:=&X        X&=:21<<<<<<<<xxx",
"zzzzzzzzzzsq<$  .X@#%%#@X.  .X@#%$$$$$$$$$$$$%#@X.        .X@#%$$$$$$$$$xxx",
"zzzzzzzzzzsq<$            ..                      ..                    xxx",
"zzzzzzzzzzsq<$            ..                      ..                    xxx",
"zzzzzzzzzzsq<$  .X@#%%#@X.  .X@#%$$$$$$$$$$$$%#@X.  .X@#%$$$$$$$$$$$$$$$xxx",
"zzzzzzzzzzsq<$  X&=:33:=&X  X&=:21<<<<<<<<<<12:=&X  X&=:21<<<<<<<<<<<<<<xxx",
"zzzzzzzzzzsq<$  @=57yy75=@  @=57trqqqqqqqqqqrt75=@  @=57trqqqqqqqqqqqqqqxxx",
"zzzzzzzzzzsq<$  #:7illi7:#  #:7ijgssssssssssgji7:#  #:7ijgssssssssssssssxxx",
"zzzzzzzzzzsq<$  %3ylzzly3%  %3ylzzzzzzzzzzzzzzly3%  %3ylzzzzzzzzzzzzzzzzxxx",
"zzzzzzzzzzsq<$  %3ylzzly3%  %3ylzzzzzzzzzzzzzzly3%  %3ylzzzzzzzzzzzzzzzzxxx",
"zzzzzzzzzzsq<$  #:7illi7:#  #:7ijgssssssssssgji7:#  #:7ijgssssssssssssssxxx",
"zzzzzzzzzzsq<$  @=57yy75=@  @=57trqqqqqqqqqqrt75=@  @=57trqqqqqqqqqqqqqqxxx",
"zzzzzzzzzzsq<$  X&=:33:=&X  X&=:21<<<<<<<<<<12:=&X  X&=:21<<<<<<<<<<<<<<xxx",
"zzzzzzzzzzsq<$  .X@#%%#@X.  .X@#%$$$$$$$$$$$$%#@X.  .X@#%$$$$$$$$$$$$$$$xxx",
"zzzzzzzzzzgr1$                                    ..                    xxx",
"zzzzzzzzzzjt2%                                    ..                    xxx",
"zzzzlkfdghi7:#  .X@#%$$$$$$$$$$$$%#@X.  .X@#%%#@X.  .X@#%$$$$$$%#@X.    xxx",
"zzzzkpurwe75=@  X&=:21<<<<<<<<<<12:=&X  X&=:33:=&X  X&=:21<<<<12:=&X    xxx",
"zzzzfu64>,:=&X  @=57trqqqqqqqqqqrt75=@  @=57yy75=@  @=57trqqqqrt75=@    xxx",
"zzzzdr4*O+#@X.  #:7ijgssssssssssgji7:#  #:7illi7:#  #:7ijgssssgji7:#    xxx",
"zzzza9;o        %3ylzzzzzzzzzzzzzzly3%  %3ylzzly3%  %3ylzzzzzzzzly3%    xxx",
"zzzzs0:+        %3ylzzzzzzzzzzzzzzly3%  %3ylzzly3%  %3ylzzzzzzzzly3%    xxx",
"zzzzsq<$        #:7ijgssssssssssgji7:#  #:7illi7:#  #:7ijgssssgji7:#    xxx",
"zzzzsq<$        @=57trqqqqqqqqqqrt75=@  @=57yy75=@  @=57trqqqqrt75=@    xxx",
"zzzzsq<$        X&=:21<<<<<<<<<<12:=&X  X&=:33:=&X  X&=:21<<<<12:=&X    xxx",
"zzzzsq<$        .X@#%$$$$$$$$$$$$%#@X.  .X@#%%#@X.  .X@#%$$$$$$%#@X.    xxx",
"zzzzsq<$                                                                xxx",
"zzzzsq<$                                                                xxx",
"zzzzsq<$                                                                xxx",
"zzzzsq<$                                                               xxxx",
"xxxxxxxxxxxxxxxxxxxxxxxxxxxxxxxxxxxxxxxxxxxxxxxxxxxxxxxxxxxxxxxxxxxxxxxxxxx",
"xxxxxxxxxxxxxxxxxxxxxxxxxxxxxxxxxxxxxxxxxxxxxxxxxxxxxxxxxxxxxxxxxxxxxxxxxxx",
"xxxxxxxxxxxxxxxxxxxxxxxxxxxxxxxxxxxxxxxxxxxxxxxxxxxxxxxxxxxxxxxxxxxxxxxxxxx"
};
