/* XPM */
static char *result[] = {
/* columns rows colors chars-per-pixel */
"75 75 57 1 ",
"  c black",
". c #010101",
"X c gray2",
"o c #060606",
"O c #070707",
"+ c #090909",
"@ c gray4",
"# c gray5",
"$ c #0E0E0E",
"% c gray6",
"& c #1B1B1B",
"* c gray11",
"= c gray22",
"- c #494949",
"; c #4B4B4B",
": c gray30",
"> c #4E4E4E",
", c gray31",
"< c #505050",
"1 c #515151",
"2 c gray32",
"3 c #535353",
"4 c gray33",
"5 c #555555",
"6 c gray34",
"7 c gray36",
"8 c gray44",
"9 c gray46",
"0 c gray54",
"q c gray56",
"w c gray64",
"e c gray66",
"r c #AAAAAA",
"t c gray67",
"y c #ACACAC",
"u c gray68",
"i c #AEAEAE",
"p c #AFAFAF",
"a c gray69",
"s c #B1B1B1",
"d c #B2B2B2",
"f c #B4B4B4",
"g c #B6B6B6",
"h c gray78",
"j c gray89",
"k c #E4E4E4",
"l c gray94",
"z c #F1F1F1",
"x c gray95",
"c c gray96",
"v c #F6F6F6",
"b c #F8F8F8",
"n c #F9F9F9",
"m c gray98",
"M c #FEFEFE",
"N c white",
"B c None",
/* pixels */
"NNNNNNNNNNNNNNNNNNNNNNNNNNNNNNNNNNNNNNNNNNNNNNNNNNNNNNNNNNNNNNNNNNNNNNNNBBB",
"NNNNNNNNNNNNNNNNNNNNNNNNNNNNNNNNNNNNNNNNNNNNNNNNNNNNNNNNNNNNNNNNNNNNNNNNBBB",
"NNNNNNNNNNNNNNNNNNNNNNNNNNNNNNNNNNNNNNNNNNNNNNNNNNNNNNNNNNNNNNNNNNNNNNNNBBB",
"NNNNNNNNNNNNNNNNNNNNNNNNNNNNNNNNNNNNNNNNNNNNNNNNNNNNNNNNNNNNNNNNNNNNNNNNBBB",
"NNNNNNNNNNNNNNNNNNNNNNMmcxlzzzzzzlxcmMNNNNNNNNMmcxllxcmMNNMmcxlzzzzzzzzzBBB",
"NNNNNNNNNNNNNNNNNNNNNNmkhsrtuuuutrshkmNNNNNNNNmkhseeshkmNNmkhsrtuuuuuuuuBBB",
"NNNNNNNNNNNNNNNNNNNNNNch07:>2222>:70hcNNNNNNNNch07--70hcNNch07:>22222222BBB",
"NNNNNNNNNNNNNNNNNNNNNNxs7*o+$$$$+o*7sxNNNNNNNNxs7*..*7sxNNxs7*o+$$$$$$$$BBB",
"NNNNNNNNNNNNNNNNNNNNNNvi,O        O,ivNNNNNNNNvi,O  O,ivNNvi,O          BBB",
"NNNNNNNNNNNNNNNNNNNNNNba1+        +1abNNNNNNNNba1+  +1abNNba1+          BBB",
"zzzzzzzzzzzzzzzzzzzzvnjw>#        #>wjnvzzzzvnjw>#  #>wjMMjw>#          BBB",
"uuuuuuuuuuuuuuuuuuuusdw9=@        @=9wdsuuuusdw9=@  @=9wggw9=@          BBB",
"2222222222222222222245>=&X        X&=>54222245>=&X  X&=>66>=&X          BBB",
"$$$$$$$$$$$$$$$$$$$$$%#@X.        .X@#%$$$$$$%#@X.  .X@#%%#@X.          BBB",
"                          ..                      ..                    BBB",
"                          ..                      ..                    BBB",
"$$$$$$$$$$$$$$$$$$$$$%#@X.  .X@#%$$$$$$$$$$$$%#@X.  .X@#%$$$$$$$$$$$$$$$BBB",
"2222222222222222222245>=&X  X&=>54222222222245>=&X  X&=>5422222222222222BBB",
"uuuuuuuuuuuuuuuuuuuusdw9=@  @=9wdsuuuuuuuuuusdw9=@  @=9wdsuuuuuuuuuuuuuuBBB",
"zzzzzzzzzzzzzzzzzzzzvnjw>#  #>wjnvzzzzzzzzzzvnjw>#  #>wjnvzzzzzzzzzzzzzzBBB",
"NNNNNNNNNNNNNNNNNNNNNNMg6%  %6gMNNNNNNNNNNNNNNMg6%  %6gMNNNNNNNNNNNNNNNNBBB",
"NNNNNNNNNNNNNNNNNNNNNNMg6%  %6gMNNNNNNNNNNNNNNMg6%  %6gMNNNNNNNNNNNNNNNNBBB",
"zzzzzzzzzzzzzzzzzzzzvnjw>#  #>wjnvzzzzzzzzzzvnjw>#  #>wjnvzzzzzzzzzzzzzzBBB",
"uuuuuuuuuuuuuuuuuuuusdw9=@  @=9wdsuuuuuuuuuusdw9=@  @=9wdsuuuuuuuuuuuuuuBBB",
"2222222222222222222245>=&X  X&=>54222222222245>=&X  X&=>5422222222222222BBB",
"$$$$$$$$$$$$$$$$$$$$$%#@X.  .X@#%$$$$$$$$$$$$%#@X.  .X@#%$$$$$$$$$$$$$$$BBB",
"                                                                        BBB",
"                                                                        BBB",
"    .X@#%$$$$$$%#@X.  .X@#%$$$$$$$$$$$$%#@X.  .X@#%$$$$$$$$$$$$%#@X.    BBB",
"    X&=>54222245>=&X  X&=>54222222222245>=&X  X&=>54222222222245>=&X    BBB",
"    @=9wdsuuuusdw9=@  @=9wdsuuuuuuuuuusdw9=@  @=9wdsuuuuuuuuuusdw9=@    BBB",
"    #>wjnvzzzzvnjw>#  #>wjnvzzzzzzzzzzvnjw>#  #>wjnvzzzzzzzzzzvnjw>#    BBB",
"    %6gMNNNNNNNNba1+  +1abNNNNNNNNNNNNNNMg6%  %5dnNNNNNNNNNNNNNNMf3@    BBB",
"    %6gMNNNNNNNNvi,O  O,ivNNNNNNNNNNNNNNMg6%  $4svNNNNNNNNNNNNNNMf1O    BBB",
"    #>wjbvxcmMNNxs7*..*7sxNNMmcxlzzzzzvnjw>#  $2uzNNNNNNNNMmcxcbke6&O+$$BBB",
"    @=9waishkmNNch07--70hcNNmkhsrtuuuusdw9=@  $2uzNNNNNNNNmkhsyieq86,<22BBB",
"    X&=>1,70hcNNmkhseeshkmNNch07:>222245>=&X  $2uzNNNNNNNNch07;;68qeapuuBBB",
"    .X@#+O*7sxNNMmcxllxcmMNNxs7*o+$$$$$%#@X.  $2uzNNNNNNNNxs7*..&6ekbvzzBBB",
"          O,ivNNNNNNNNNNNNNNvi,O              $4svNNNNNNNNvi,O  O1fMNNNNBBB",
"          +1abNNNNNNNNNNNNNNba1+              %5dnNNNNNNNNba1+  @3fMNNNNBBB",
"          #>wjnvzzzzzzzzzzvnjw>#              #>wjnvzzzzvnjw>#  #>wjnvzzBBB",
"          @=9wdsuuuuuuuuuusdw9=@              @=9wdsuuuusdw9=@  @=9wdauuBBB",
"          X&=>54222222222245>=&X              X&=>54222245>=&X  X&=>5422BBB",
"          .X@#%$$$$$$$$$$$$%#@X.              .X@#%$$$$$$%#@X.  .X@#%$$$BBB",
"                                            ..                          BBB",
"                                            ..                          BBB",
"    .X@#%$$$$$$%#@X.  .X@#%$$$$$$$$$$$$%#@X.  .X@#%$$$$$$$$$$$$%#@X.    BBB",
"    X&=>54222245>=&X  X&=>54222222222245>=&X  X&=>54222222222245>=&X    BBB",
"    @=9wdsuuuusdw9=@  @=9wdsuuuuuuuuuusdw9=@  @=9wdsuuuuuuuuuusdw9=@    BBB",
"    #>wjnvzzzzvnjw>#  #>wjnvzzzzzzzzzzvnjw>#  #>wjnvzzzzzzzzzzvnjw>#    BBB",
"    %6gMNNNNNNNNMg6%  %6gMNNNNNNNNNNNNNNMg6%  %6gMNNNNNNNNNNNNNNMg6%    BBB",
"    %6gMNNNNNNNNMg6%  %6gMNNNNNNNNNNNNNNMg6%  %6gMNNNNNNNNNNNNNNMg6%    BBB",
"    #>wjnvzzzzvnjw>#  #>wjnvzzzzzzzzzzvnjw>#  #>wjnvzzzzzzzzzzvnjw>#    BBB",
"    @=9wdsuuuusdw9=@  @=9wdsuuuuuuuuuusdw9=@  @=9wdsuuuuuuuuuusdw9=@    BBB",
"    X&=>54222245>=&X  X&=>54222222222245>=&X  X&=>54222222222245>=&X    BBB",
"    .X@#%$$$$$$%#@X.  .X@#%$$$$$$$$$$$$%#@X.  .X@#%$$$$$$$$$$$$%#@X.    BBB",
"                                                                        BBB",
"                                                                        BBB",
"                                                                        BBB",
"                                                                        BBB",
"                                                                        BBB",
"                                                                        BBB",
"                                                                        BBB",
"                                                                        BBB",
"                                                                        BBB",
"                                                                        BBB",
"                                                                        BBB",
"                                                                        BBB",
"                                                                        BBB",
"                                                                        BBB",
"                                                                        BBB",
"                                                                       BBBB",
"BBBBBBBBBBBBBBBBBBBBBBBBBBBBBBBBBBBBBBBBBBBBBBBBBBBBBBBBBBBBBBBBBBBBBBBBBBB",
"BBBBBBBBBBBBBBBBBBBBBBBBBBBBBBBBBBBBBBBBBBBBBBBBBBBBBBBBBBBBBBBBBBBBBBBBBBB",
"BBBBBBBBBBBBBBBBBBBBBBBBBBBBBBBBBBBBBBBBBBBBBBBBBBBBBBBBBBBBBBBBBBBBBBBBBBB"
};
