/* XPM */
static char *result[] = {
/* columns rows colors chars-per-pixel */
"75 75 61 1 ",
"  c black",
". c #010101",
"X c #020202",
"o c gray2",
"O c #060606",
"+ c #070707",
"@ c #090909",
"# c gray4",
"$ c gray5",
"% c #0E0E0E",
"& c gray6",
"* c #1B1B1B",
"= c gray11",
"- c gray22",
"; c #494949",
": c gray29",
"> c #4B4B4B",
", c gray30",
"< c #4E4E4E",
"1 c gray31",
"2 c #505050",
"3 c #515151",
"4 c gray32",
"5 c gray33",
"6 c #555555",
"7 c gray34",
"8 c gray35",
"9 c gray36",
"0 c gray44",
"q c gray46",
"w c gray49",
"e c gray54",
"r c gray56",
"t c gray64",
"y c gray66",
"u c #A9A9A9",
"i c #AAAAAA",
"p c gray67",
"a c #ACACAC",
"s c gray68",
"d c #AEAEAE",
"f c #AFAFAF",
"g c gray69",
"h c #B1B1B1",
"j c #B2B2B2",
"k c gray72",
"l c gray78",
"z c #CECECE",
"x c gray89",
"c c #E4E4E4",
"v c gray94",
"b c #F1F1F1",
"n c gray95",
"m c gray96",
"M c #F6F6F6",
"N c #F8F8F8",
"B c #F9F9F9",
"V c gray98",
"C c #FEFEFE",
"Z c white",
"A c None",
/* pixels */
"AAAAAAAAAAAAAAAAAAAAAAAAAAAAAAAAAAAAAAAAAAAAAAAAAAAAAAAAAAAAAAAAAAAAAAAAAAA",
"AAAAAAAAAAAAAAAAAAAAAAAAAAAAAAAAAAAAAAAAAAAAAAAAAAAAAAAAAAAAAAAAAAAAAAAAAAA",
"AAAAAAAAAAAAAAAAAAAAAAAAAAAAAAAAAAAAAAAAAAAAAAAAAAAAAAAAAAAAAAAAAAAAAAAAAAA",
"AAAAAAAAAAAAAAAAAAAAAAAAAAAAAAAAAAAAAAAAAAAAAAAAAAAAAAAAAAAAAAAAAAAAAAAAAAA",
"AAAAAAAAAAAAAAAAAAAAAAAAAAAAAAAAAAAAAAAAAAAAAAAAAAAAAAAAAAAAAAAAAAAAAAAAAAA",
"AAAAAAAAAAAAAAAAAAAAAAAAAAAAAAAAAAAAAAAAAAAAAAAAAAAAAAAAAAAAAAAAAAAAAAAAAAA",
"AAAAAAAAAAAAAAAAAAAAAAAAAAAAAAAAAAAAAAAAAAAAAAAAAAAAAAAAAAAAAAAAAAAAAAAAAAA",
"AAAAAAAAAAAAAAAAAAAAAAAAAAAAAAAAAAAAAAAAAAAAAAAAAAAAAAAAAAAAAAAAAAAAAAAAAAA",
"AAAAAAAAAAAAAAAAAAAAAAAAAAAAAAAAAAAAAAAAAAAAAAAAAAAAAAAAAAAAAAAAAAAAAAAAAAA",
"AAAAAAAAAAAAAAAAAAAAAAAAAAAAAAAAAAAAAAAAAAAAAAAAAAAAAAAAAAAAAAAAAAAAAAAAAAA",
"AAAAAAAAAAAAAAAAAAAAAAAAAAAAAAAAAAAAAAAAAAAAAAAAAAAAAAAAAAAAAAAAAAAAAAAAAAA",
"AAAAAAAAAAAAAAAAAAAAAAAAAAAAAAAAAAAAAAAAAAAAAAAAAAAAAAAAAAAAAAAAAAAAAAAAAAA",
"AAAAAAAAAAAAAAAAAAAAAAAAAZZZZZZZZZZZZZZZZZZZZZZAAAAAAAAAAAAAAAAAAAAAAAAAAAA",
"AAAAAAAAAAAAAAAAAAAAAAAAZZZZZZZZZZZZZZZZZZZZZZZZAAAAAAAAAAAAAAAAAAAAAAAAAAA",
"AAAAAAAAAAAAAAAAAAAAAAAAZZZZZZZZZZZZZZZZZZZZZZZZAAAAAAAAAAAAAAAAAAAAAAAAAAA",
"AAAAAAAAAAAAAAAAAAAAAAAAZZZZZZZZZZZZZZZZZZZZZZZZAAAAAAAAAAAAAAAAAAAAAAAAAAA",
"AAAAAAAAAAAAAAAAAAAAAAAAZZZZCVmnvbbbbbbbbbbbbbbbAAAAAAAAAAAAAAAAAAAAAAAAAAA",
"AAAAAAAAAAAAAAAAAAAAAAAZZZZZVclhipssssssssssaadkzAAAAAAAAAAAAAAAAAAAAAAAAAA",
"AAAAAAAAAAAAAAAAAAAZZZZZZZZZmle9,<4444444444218wkbZZZAAAAAAAAAAAAAAAAAAAAAA",
"AAAAAAAAAAAAAAAAAAZZZZZZZZZZnh9=O@%%%%%%%%%%@+*8dbZZZZAAAAAAAAAAAAAAAAAAAAA",
"AAAAAAAAAAAAAAAAAAZZZZZZZZZZMd1+              X,dMZZZZAAAAAAAAAAAAAAAAAAAAA",
"AAAAAAAAAAAAAAAAAAZZZZZZZZZZNg3@              X,fNZZZZAAAAAAAAAAAAAAAAAAAAA",
"AAAAAAAAAAAAAAAAAAZZZZCVmnMNxt<$  .o#$&%%%%%@+*7ycNMbbAAAAAAAAAAAAAAAAAAAAA",
"AAAAAAAAAAAAAAAAAZZZZZVclhdgtq-#  o*-<6544442170ryfddkzAAAAAAAAAAAAAAAAAAAA",
"AAAAAAAAAAAAAZZZZZZZZZmle913<-*o  #-qtjhssssfgyr07,,8wkbZZZAAAAAAAAAAAAAAAA",
"AAAAAAAAAAAAZZZZZZZZZZnh9=+@$#o.  $<txBMbbbbMNcy7*XX*8dbZZZZAAAAAAAAAAAAAAA",
"AAAAAAAAAAAAZZZZZZZZZZvi,O        @4jBZZZZZZZZNd>.  .>ivZZZZAAAAAAAAAAAAAAA",
"AAAAAAAAAAAAZZZZZZZZZZbp<@        +2gMZZZZZZZZma>.  .:uvZZZZAAAAAAAAAAAAAAA",
"AAAAAAAAAAAAZZZZZZZZZZbs4%  .o#$@+*8dbZZZZZZZZnh9=..=9hnZZZZAAAAAAAAAAAAAAA",
"AAAAAAAAAAAAZZZZZZZZZZbs4%  o*-<428wkbZZZZZZZZmle9;;9elmZZZZAAAAAAAAAAAAAAA",
"AAAAAAAAAAAAZZZZZZZZZZbs4%  #-qtjgdkzAAAAZZZZZVclhyyhlcVZZZZAAAAAAAAAAAAAAA",
"AAAAAAAAAAAAZZZZZZZZZZbs4%  $<txBMbbAAAAAAZZZZCVmnvvnmVCZZZZAAAAAAAAAAAAAAA",
"AAAAAAAAAAAAZZZZZZZZZZbs4%  &6jBZZZZAAAAAAZZZZZZZZZZZZZZZZZZAAAAAAAAAAAAAAA",
"AAAAAAAAAAAAZZZZZZZZZZbs4%  %5hMZZZZAAAAAAZZZZZZZZZZZZZZZZZZAAAAAAAAAAAAAAA",
"AAAAAAAAAAAAZZZZZZZZZZbs4%  %4sbZZZZAAAAAAZZZZZZZZZZZZZZZZZZAAAAAAAAAAAAAAA",
"AAAAAAAAAAAAZZZZZZZZZZbs4%  %4sbZZZZAAAAAAZZZZZZZZZZZZZZZZZZAAAAAAAAAAAAAAA",
"AAAAAAAAAAAAZZZZZZZZZZbs4%  %4sbZZZZAAAAAAZZZZZZZZZZZZZZZZZZAAAAAAAAAAAAAAA",
"AAAAAAAAAAAAZZZZZZZZZZbs4%  %4sbZZZZAAAAAAZZZZZZZZZZZZZZZZZZAAAAAAAAAAAAAAA",
"AAAAAAAAAAAAZZZZZZZZZZbs4%  %5hMZZZZAAAAAAZZZZZZZZZZZZZZZZZZAAAAAAAAAAAAAAA",
"AAAAAAAAAAAAZZZZZZZZZZbs4%  &6jBZZZZAAAAAAZZZZZZZZZZZZZZZZZZAAAAAAAAAAAAAAA",
"AAAAAAAAAAAAZZZZZZZZZZbs4%  $<txBMbbAAAAAAZZZZCVmnvvnmVCZZZZAAAAAAAAAAAAAAA",
"AAAAAAAAAAAAZZZZZZZZZZbs4%  #-qtjgdkzAAAAZZZZZVclhyyhlcVZZZZAAAAAAAAAAAAAAA",
"AAAAAAAAAAAAZZZZZZZZZZbs4%  o*-<428wkbZZZZZZZZmle9;;9elmZZZZAAAAAAAAAAAAAAA",
"AAAAAAAAAAAAZZZZZZZZZZbs4%  .o#$@+*8dbZZZZZZZZnh9=..=9hnZZZZAAAAAAAAAAAAAAA",
"AAAAAAAAAAAAZZZZZZZZZZbp<@        +2gMZZZZZZZZma>.  .:uvZZZZAAAAAAAAAAAAAAA",
"AAAAAAAAAAAAZZZZZZZZZZvi,O        @4jBZZZZZZZZNd>.  .>ivZZZZAAAAAAAAAAAAAAA",
"AAAAAAAAAAAAZZZZZZZZZZnh9=+@$#o.  $<txBMbbbbMNcy7*XX*8dbZZZZAAAAAAAAAAAAAAA",
"AAAAAAAAAAAAAZZZZZZZZZmle913<-*o  #-qtjhssssfgyr07,,8wkbZZZAAAAAAAAAAAAAAAA",
"AAAAAAAAAAAAAAAAAZZZZZVclhdgtq-#  o*-<6544442170ryfddkzAAAAAAAAAAAAAAAAAAAA",
"AAAAAAAAAAAAAAAAAAZZZZCVmnMNxt<$  .o#$&%%%%%@+*7ycNMbbAAAAAAAAAAAAAAAAAAAAA",
"AAAAAAAAAAAAAAAAAAZZZZZZZZZZNg3@              X,fNZZZZAAAAAAAAAAAAAAAAAAAAA",
"AAAAAAAAAAAAAAAAAAZZZZZZZZZZMd1+              X,dMZZZZAAAAAAAAAAAAAAAAAAAAA",
"AAAAAAAAAAAAAAAAAAZZZZZZZZZZnh9=O@%%%%%%%%%%@+*8dbZZZZAAAAAAAAAAAAAAAAAAAAA",
"AAAAAAAAAAAAAAAAAAAZZZZZZZZZmle9,<4444444444218wkbZZZAAAAAAAAAAAAAAAAAAAAAA",
"AAAAAAAAAAAAAAAAAAAAAAAZZZZZVclhipssssssssssaadkzAAAAAAAAAAAAAAAAAAAAAAAAAA",
"AAAAAAAAAAAAAAAAAAAAAAAAZZZZCVmnvbbbbbbbbbbbbbbbAAAAAAAAAAAAAAAAAAAAAAAAAAA",
"AAAAAAAAAAAAAAAAAAAAAAAAZZZZZZZZZZZZZZZZZZZZZZZZAAAAAAAAAAAAAAAAAAAAAAAAAAA",
"AAAAAAAAAAAAAAAAAAAAAAAAZZZZZZZZZZZZZZZZZZZZZZZZAAAAAAAAAAAAAAAAAAAAAAAAAAA",
"AAAAAAAAAAAAAAAAAAAAAAAAZZZZZZZZZZZZZZZZZZZZZZZZAAAAAAAAAAAAAAAAAAAAAAAAAAA",
"AAAAAAAAAAAAAAAAAAAAAAAAAZZZZZZZZZZZZZZZZZZZZZZAAAAAAAAAAAAAAAAAAAAAAAAAAAA",
"AAAAAAAAAAAAAAAAAAAAAAAAAAAAAAAAAAAAAAAAAAAAAAAAAAAAAAAAAAAAAAAAAAAAAAAAAAA",
"AAAAAAAAAAAAAAAAAAAAAAAAAAAAAAAAAAAAAAAAAAAAAAAAAAAAAAAAAAAAAAAAAAAAAAAAAAA",
"AAAAAAAAAAAAAAAAAAAAAAAAAAAAAAAAAAAAAAAAAAAAAAAAAAAAAAAAAAAAAAAAAAAAAAAAAAA",
"AAAAAAAAAAAAAAAAAAAAAAAAAAAAAAAAAAAAAAAAAAAAAAAAAAAAAAAAAAAAAAAAAAAAAAAAAAA",
"AAAAAAAAAAAAAAAAAAAAAAAAAAAAAAAAAAAAAAAAAAAAAAAAAAAAAAAAAAAAAAAAAAAAAAAAAAA",
"AAAAAAAAAAAAAAAAAAAAAAAAAAAAAAAAAAAAAAAAAAAAAAAAAAAAAAAAAAAAAAAAAAAAAAAAAAA",
"AAAAAAAAAAAAAAAAAAAAAAAAAAAAAAAAAAAAAAAAAAAAAAAAAAAAAAAAAAAAAAAAAAAAAAAAAAA",
"AAAAAAAAAAAAAAAAAAAAAAAAAAAAAAAAAAAAAAAAAAAAAAAAAAAAAAAAAAAAAAAAAAAAAAAAAAA",
"AAAAAAAAAAAAAAAAAAAAAAAAAAAAAAAAAAAAAAAAAAAAAAAAAAAAAAAAAAAAAAAAAAAAAAAAAAA",
"AAAAAAAAAAAAAAAAAAAAAAAAAAAAAAAAAAAAAAAAAAAAAAAAAAAAAAAAAAAAAAAAAAAAAAAAAAA",
"AAAAAAAAAAAAAAAAAAAAAAAAAAAAAAAAAAAAAAAAAAAAAAAAAAAAAAAAAAAAAAAAAAAAAAAAAAA",
"AAAAAAAAAAAAAAAAAAAAAAAAAAAAAAAAAAAAAAAAAAAAAAAAAAAAAAAAAAAAAAAAAAAAAAAAAAA",
"AAAAAAAAAAAAAAAAAAAAAAAAAAAAAAAAAAAAAAAAAAAAAAAAAAAAAAAAAAAAAAAAAAAAAAAAAAA",
"AAAAAAAAAAAAAAAAAAAAAAAAAAAAAAAAAAAAAAAAAAAAAAAAAAAAAAAAAAAAAAAAAAAAAAAAAAA",
"AAAAAAAAAAAAAAAAAAAAAAAAAAAAAAAAAAAAAAAAAAAAAAAAAAAAAAAAAAAAAAAAAAAAAAAAAAA"
};
