/* XPM */
static char *result[] = {
/* columns rows colors chars-per-pixel */
"75 75 35 1 ",
"  c black",
". c #010101",
"X c gray2",
"o c #070707",
"O c #090909",
"+ c gray4",
"@ c gray5",
"# c #0E0E0E",
"$ c gray6",
"% c #1B1B1B",
"& c gray22",
"* c #4E4E4E",
"= c gray31",
"- c #505050",
"; c gray32",
": c gray33",
"> c #555555",
", c gray35",
"< c gray46",
"1 c gray49",
"2 c gray64",
"3 c #ACACAC",
"4 c gray68",
"5 c #AEAEAE",
"6 c gray69",
"7 c #B1B1B1",
"8 c #B2B2B2",
"9 c gray72",
"0 c #CECECE",
"q c gray89",
"w c #F1F1F1",
"e c #F6F6F6",
"r c #F9F9F9",
"t c white",
"y c None",
/* pixels */
"yyyyyyyyyyyyyyyyyyyyyyyyyyyyyyyyyyyyyyyyyyyyyyyyyyyyyyyyyyyyyyyyyyyyyyyyyyy",
"yyyyyyyyyyyyyyyyyyyyyyyyyyyyyyyyyyyyyyyyyyyyyyyyyyyyyyyyyyyyyyyyyyyyyyyyyyy",
"yyyyyyyyyyyyyyyyyyyyyyyyyyyyyyyyyyyyyyyyyyyyyyyyyyyyyyyyyyyyyyyyyyyyyyyyyyy",
"yyyyyyyyyyyyyyyyyyyyyyyyyyyyyyyyyyyyyyyyyyyyyyyyyyyyyyyyyyyyyyyyyyyyyyyyyyy",
"yyyyyyyyyyyyyyyyyyyyyyyyyyyyyyyyyyyyyyyyyyyyyyyyyyyyyyyyyyyyyyyyyyyyyyyyyyy",
"yyyyyyyyyyyyyyyyyyyyyyyyyyyyyyyyyyyyyyyyyyyyyyyyyyyyyyyyyyyyyyyyyyyyyyyyyyy",
"yyyyyyyyyyyyyyyyyyyyyyyyyyyyyyyyyyyyyyyyyyyyyyyyyyyyyyyyyyyyyyyyyyyyyyyyyyy",
"yyyyyyyyyyyyyyyyyyyyyyyyyyyyyyyyyyyyyyyyyyyyyyyyyyyyyyyyyyyyyyyyyyyyyyyyyyy",
"yyyyyyyyyyyyyyyyyyyyyyyyyyyyyyyyyyyyyyyyyyyyyyyyyyyyyyyyyyyyyyyyyyyyyyyyyyy",
"yyyyyyyyyyyyyyyyyyyyyyyyyyyyyyyyyyyyyyyyyyyyyyyyyyyyyyyyyyyyyyyyyyyyyyyyyyy",
"yyyyyyyyyyyyyyyyyyyyyyyyyyyyyyyyyyyyyyyyyyyyyyyyyyyyyyyyyyyyyyyyyyyyyyyyyyy",
"yyyyyyyyyyyyyyyyyyyyyyyyyyyyyyyyyyyyyyyyyyyyyyyyyyyyyyyyyyyyyyyyyyyyyyyyyyy",
"yyyyyyyyyyyyyyyyyyyyyyyyyttttttttttttttttttttttyyyyyyyyyyyyyyyyyyyyyyyyyyyy",
"yyyyyyyyyyyyyyyyyyyyyyyyttttttttttttttttttttttttyyyyyyyyyyyyyyyyyyyyyyyyyyy",
"yyyyyyyyyyyyyyyyyyyyyyyyttttttttttttttttttttttttyyyyyyyyyyyyyyyyyyyyyyyyyyy",
"yyyyyyyyyyyyyyyyyyyyyyyyttttttttttttttttttttttttyyyyyyyyyyyyyyyyyyyyyyyyyyy",
"yyyyyyyyyyyyyyyyyyyyyyyywwwwwwwwwwwwwwwwwwwwwwwwyyyyyyyyyyyyyyyyyyyyyyyyyyy",
"yyyyyyyyyyyyyyyyyyyyyyy09533444444444444444433590yyyyyyyyyyyyyyyyyyyyyyyyyy",
"yyyyyyyyyyyyyyyyyyytttw91,=-;;;;;;;;;;;;;;;;-=,19wtttyyyyyyyyyyyyyyyyyyyyyy",
"yyyyyyyyyyyyyyyyyyttttw5,%oO################Oo%,5wttttyyyyyyyyyyyyyyyyyyyyy",
"yyyyyyyyyyyyyyyyyytttte6-o                    o-6ettttyyyyyyyyyyyyyyyyyyyyy",
"yyyyyyyyyyyyyyyyyyttttr8;O                    O;8rttttyyyyyyyyyyyyyyyyyyyyy",
"yyyyyyyyyyyyyyyyyywwerq2*@  .X+@$######$@+X.  @*2qrewwyyyyyyyyyyyyyyyyyyyyy",
"yyyyyyyyyyyyyyyyy095682<&+  X%&*>:;;;;:>*&%X  +&<286590yyyyyyyyyyyyyyyyyyyy",
"yyyyyyyyyyyyytttw91,-;*&%X  +&<2874444782<&+  X%&*;-,19wtttyyyyyyyyyyyyyyyy",
"yyyyyyyyyyyyttttw5,%oO@+X.  @*2qrewwwwerq2*@  .X+@Oo%,5wttttyyyyyyyyyyyyyyy",
"yyyyyyyyyyyyttttw3=o        O;8rttttttttr8;O        o=3wttttyyyyyyyyyyyyyyy",
"yyyyyyyyyyyyttttw3-O        o-6etttttttte6-o        O-3wttttyyyyyyyyyyyyyyy",
"yyyyyyyyyyyyttttw4;#  .X+@Oo%,5wttttttttw5,%oO@+X.  #;4wttttyyyyyyyyyyyyyyy",
"yyyyyyyyyyyyttttw4;#  X%&*;-,19wttttttttw91,-;*&%X  #;4wttttyyyyyyyyyyyyyyy",
"yyyyyyyyyyyyttttw4;#  +&<286590yyyyyyyyyy095682<&+  #;4wttttyyyyyyyyyyyyyyy",
"yyyyyyyyyyyyttttw4;#  @*2qrewwyyyyyyyyyyyywwerq2*@  #;4wttttyyyyyyyyyyyyyyy",
"yyyyyyyyyyyyttttw4;#  $>8rttttyyyyyyyyyyyyttttr8>$  #;4wttttyyyyyyyyyyyyyyy",
"yyyyyyyyyyyyttttw4;#  #:7ettttyyyyyyyyyyyytttte7:#  #;4wttttyyyyyyyyyyyyyyy",
"yyyyyyyyyyyyttttw4;#  #;4wttttyyyyyyyyyyyyttttw4;#  #;4wttttyyyyyyyyyyyyyyy",
"yyyyyyyyyyyyttttw4;#  #;4wttttyyyyyyyyyyyyttttw4;#  #;4wttttyyyyyyyyyyyyyyy",
"yyyyyyyyyyyyttttw4;#  #;4wttttyyyyyyyyyyyyttttw4;#  #;4wttttyyyyyyyyyyyyyyy",
"yyyyyyyyyyyyttttw4;#  #;4wttttyyyyyyyyyyyyttttw4;#  #;4wttttyyyyyyyyyyyyyyy",
"yyyyyyyyyyyyttttw4;#  #:7ettttyyyyyyyyyyyytttte7:#  #;4wttttyyyyyyyyyyyyyyy",
"yyyyyyyyyyyyttttw4;#  $>8rttttyyyyyyyyyyyyttttr8>$  #;4wttttyyyyyyyyyyyyyyy",
"yyyyyyyyyyyyttttw4;#  @*2qrewwyyyyyyyyyyyywwerq2*@  #;4wttttyyyyyyyyyyyyyyy",
"yyyyyyyyyyyyttttw4;#  +&<286590yyyyyyyyyy095682<&+  #;4wttttyyyyyyyyyyyyyyy",
"yyyyyyyyyyyyttttw4;#  X%&*;-,19wttttttttw91,-;*&%X  #;4wttttyyyyyyyyyyyyyyy",
"yyyyyyyyyyyyttttw4;#  .X+@Oo%,5wttttttttw5,%oO@+X.  #;4wttttyyyyyyyyyyyyyyy",
"yyyyyyyyyyyyttttw3-O        o-6etttttttte6-o        O-3wttttyyyyyyyyyyyyyyy",
"yyyyyyyyyyyyttttw3=o        O;8rttttttttr8;O        o=3wttttyyyyyyyyyyyyyyy",
"yyyyyyyyyyyyttttw5,%oO@+X.  @*2qrewwwwerq2*@  .X+@Oo%,5wttttyyyyyyyyyyyyyyy",
"yyyyyyyyyyyyytttw91,-;*&%X  +&<2874444782<&+  X%&*;-,19wtttyyyyyyyyyyyyyyyy",
"yyyyyyyyyyyyyyyyy095682<&+  X%&*>:;;;;:>*&%X  +&<286590yyyyyyyyyyyyyyyyyyyy",
"yyyyyyyyyyyyyyyyyywwerq2*@  .X+@$######$@+X.  @*2qrewwyyyyyyyyyyyyyyyyyyyyy",
"yyyyyyyyyyyyyyyyyyttttr8;O                    O;8rttttyyyyyyyyyyyyyyyyyyyyy",
"yyyyyyyyyyyyyyyyyytttte6-o                    o-6ettttyyyyyyyyyyyyyyyyyyyyy",
"yyyyyyyyyyyyyyyyyyttttw5,%oO################Oo%,5wttttyyyyyyyyyyyyyyyyyyyyy",
"yyyyyyyyyyyyyyyyyyytttw91,=-;;;;;;;;;;;;;;;;-=,19wtttyyyyyyyyyyyyyyyyyyyyyy",
"yyyyyyyyyyyyyyyyyyyyyyy09533444444444444444433590yyyyyyyyyyyyyyyyyyyyyyyyyy",
"yyyyyyyyyyyyyyyyyyyyyyyywwwwwwwwwwwwwwwwwwwwwwwwyyyyyyyyyyyyyyyyyyyyyyyyyyy",
"yyyyyyyyyyyyyyyyyyyyyyyyttttttttttttttttttttttttyyyyyyyyyyyyyyyyyyyyyyyyyyy",
"yyyyyyyyyyyyyyyyyyyyyyyyttttttttttttttttttttttttyyyyyyyyyyyyyyyyyyyyyyyyyyy",
"yyyyyyyyyyyyyyyyyyyyyyyyttttttttttttttttttttttttyyyyyyyyyyyyyyyyyyyyyyyyyyy",
"yyyyyyyyyyyyyyyyyyyyyyyyyttttttttttttttttttttttyyyyyyyyyyyyyyyyyyyyyyyyyyyy",
"yyyyyyyyyyyyyyyyyyyyyyyyyyyyyyyyyyyyyyyyyyyyyyyyyyyyyyyyyyyyyyyyyyyyyyyyyyy",
"yyyyyyyyyyyyyyyyyyyyyyyyyyyyyyyyyyyyyyyyyyyyyyyyyyyyyyyyyyyyyyyyyyyyyyyyyyy",
"yyyyyyyyyyyyyyyyyyyyyyyyyyyyyyyyyyyyyyyyyyyyyyyyyyyyyyyyyyyyyyyyyyyyyyyyyyy",
"yyyyyyyyyyyyyyyyyyyyyyyyyyyyyyyyyyyyyyyyyyyyyyyyyyyyyyyyyyyyyyyyyyyyyyyyyyy",
"yyyyyyyyyyyyyyyyyyyyyyyyyyyyyyyyyyyyyyyyyyyyyyyyyyyyyyyyyyyyyyyyyyyyyyyyyyy",
"yyyyyyyyyyyyyyyyyyyyyyyyyyyyyyyyyyyyyyyyyyyyyyyyyyyyyyyyyyyyyyyyyyyyyyyyyyy",
"yyyyyyyyyyyyyyyyyyyyyyyyyyyyyyyyyyyyyyyyyyyyyyyyyyyyyyyyyyyyyyyyyyyyyyyyyyy",
"yyyyyyyyyyyyyyyyyyyyyyyyyyyyyyyyyyyyyyyyyyyyyyyyyyyyyyyyyyyyyyyyyyyyyyyyyyy",
"yyyyyyyyyyyyyyyyyyyyyyyyyyyyyyyyyyyyyyyyyyyyyyyyyyyyyyyyyyyyyyyyyyyyyyyyyyy",
"yyyyyyyyyyyyyyyyyyyyyyyyyyyyyyyyyyyyyyyyyyyyyyyyyyyyyyyyyyyyyyyyyyyyyyyyyyy",
"yyyyyyyyyyyyyyyyyyyyyyyyyyyyyyyyyyyyyyyyyyyyyyyyyyyyyyyyyyyyyyyyyyyyyyyyyyy",
"yyyyyyyyyyyyyyyyyyyyyyyyyyyyyyyyyyyyyyyyyyyyyyyyyyyyyyyyyyyyyyyyyyyyyyyyyyy",
"yyyyyyyyyyyyyyyyyyyyyyyyyyyyyyyyyyyyyyyyyyyyyyyyyyyyyyyyyyyyyyyyyyyyyyyyyyy",
"yyyyyyyyyyyyyyyyyyyyyyyyyyyyyyyyyyyyyyyyyyyyyyyyyyyyyyyyyyyyyyyyyyyyyyyyyyy",
"yyyyyyyyyyyyyyyyyyyyyyyyyyyyyyyyyyyyyyyyyyyyyyyyyyyyyyyyyyyyyyyyyyyyyyyyyyy"
};
